<svg width="20" height="20" viewBox="0 0 20 20" fill="none" xmlns="http://www.w3.org/2000/svg">
<path d="M17.4987 5.20809C17.4987 3.71246 16.2862 2.5 14.7906 2.5H5.20809C3.71246 2.5 2.5 3.71246 2.5 5.20809V14.7906C2.5 16.2862 3.71246 17.4987 5.20809 17.4987H9.30367L9.60017 16.3128C9.6055 16.2914 9.61108 16.2701 9.61683 16.2488H5.20809C4.40275 16.2488 3.74989 15.5959 3.74989 14.7906V7.08293H16.2488V9.35975C16.6478 9.201 17.0767 9.13983 17.4987 9.17625V5.20809ZM5.20809 3.74989H14.7906C15.5959 3.74989 16.2488 4.40275 16.2488 5.20809V5.83304H3.74989V5.20809C3.74989 4.40275 4.40275 3.74989 5.20809 3.74989ZM15.9153 10.5572L10.9971 15.4754C10.7103 15.7622 10.5069 16.1215 10.4086 16.5149L10.0272 18.0403C9.86133 18.7037 10.4622 19.3047 11.1257 19.1388L12.6511 18.7574C13.0445 18.6591 13.4038 18.4557 13.6906 18.1689L18.6088 13.2507C19.3526 12.5068 19.3526 11.3009 18.6088 10.5572C17.8651 9.81342 16.6592 9.81342 15.9153 10.5572Z" fill="#626262"/>
</svg>
