<svg width="18" height="18" viewBox="0 0 18 18" fill="none" xmlns="http://www.w3.org/2000/svg">
<path d="M15.7139 2.28607C14.6657 1.23793 12.9664 1.23798 11.9183 2.28619L2.95577 11.2498C2.65102 11.5546 2.43682 11.9379 2.337 12.3571L1.51531 15.8083C1.47007 15.9983 1.52664 16.1982 1.66476 16.3363C1.80289 16.4744 2.00278 16.531 2.1928 16.4857L5.64373 15.6641C6.06313 15.5642 6.44659 15.3499 6.75143 15.0451L15.714 6.08146C16.762 5.03334 16.762 3.33412 15.7139 2.28607ZM12.7138 3.08163C13.3225 2.47282 14.3096 2.47279 14.9184 3.08157C15.5271 3.6903 15.5272 4.67724 14.9185 5.28601L14.25 5.95459L12.0454 3.75009L12.7138 3.08163ZM11.25 4.54563L13.4545 6.75013L5.95589 14.2496C5.79828 14.4073 5.60001 14.518 5.38316 14.5697L2.82143 15.1796L3.43141 12.6178C3.48301 12.4009 3.59376 12.2028 3.75131 12.0452L11.25 4.54563Z" fill="#494D55"/>
</svg>
