<svg width="1220" height="900" viewBox="0 0 1221 1080" fill="none" xmlns="http://www.w3.org/2000/svg">
<rect x="-0.5" y="-0.5" width="1221" height="1081" fill="#FBFEFF" stroke="black"/>
<path d="M704.595 612.763C706.785 624.814 720.356 655.807 727.475 671.125C727.906 672.052 728.133 673.053 728.124 674.075C728.012 688.034 726.4 718.295 720.599 739.47C714.743 760.849 579.734 786.218 507.337 797.136C503.85 797.661 500.545 795.484 499.616 792.082L486.597 744.438C485.79 741.485 487.003 738.351 489.588 736.71L593.574 670.693C596.295 668.966 597.492 665.59 596.339 662.581C585.957 635.489 569.168 614.85 563.755 610.18C562.597 609.182 561.133 610.796 560.397 609.457C556.213 601.844 550.881 544.208 549.092 527.942L538.901 431.07C535.32 397.75 530.616 361.5 557.73 355.762C584.843 350.025 596.015 378.076 598.212 392.818L635.689 667.749C640.396 624.717 650.744 475.537 653.757 443.024C657.522 402.382 667.878 365.326 695.18 372.498C717.022 378.236 721.227 408.359 720.599 422.703C714.323 480.877 702.335 600.332 704.595 612.763Z" fill="#FFF4EA" stroke="#121212" stroke-width="2"/>
<path d="M388.78 594.589C389.319 594.469 389.659 593.935 389.54 593.396C389.42 592.857 388.886 592.517 388.347 592.637L388.78 594.589ZM378.575 638.307C375.234 632.017 371.8 622.296 372.234 613.542C372.45 609.183 373.621 605.121 376.179 601.828C378.73 598.545 382.73 595.933 388.78 594.589L388.347 592.637C381.925 594.063 377.484 596.888 374.6 600.601C371.724 604.304 370.467 608.797 370.236 613.443C369.778 622.698 373.38 632.789 376.808 639.245L378.575 638.307Z" fill="black"/>
<path d="M526.207 564.068C526.746 563.948 527.086 563.414 526.966 562.875C526.847 562.335 526.312 561.995 525.773 562.115L526.207 564.068ZM516.001 607.786C512.661 601.495 509.227 591.775 509.661 583.02C509.877 578.661 511.048 574.6 513.606 571.306C516.156 568.023 520.157 565.411 526.207 564.068L525.773 562.115C519.352 563.541 514.911 566.366 512.027 570.079C509.15 573.782 507.893 578.275 507.663 582.921C507.205 592.177 510.807 602.268 514.235 608.724L516.001 607.786Z" fill="black"/>
<path d="M572.015 553.892C572.554 553.773 572.894 553.238 572.774 552.699C572.654 552.16 572.12 551.82 571.581 551.94L572.015 553.892ZM561.809 597.61C558.468 591.32 555.035 581.6 555.468 572.845C555.684 568.486 556.856 564.424 559.414 561.131C561.964 557.848 565.964 555.236 572.015 553.892L571.581 551.94C565.159 553.366 560.719 556.191 557.834 559.904C554.958 563.607 553.701 568.1 553.471 572.746C553.012 582.002 556.614 592.093 560.043 598.549L561.809 597.61Z" fill="black"/>
<path d="M617.822 543.718C618.361 543.598 618.701 543.064 618.582 542.525C618.462 541.986 617.928 541.646 617.389 541.766L617.822 543.718ZM607.617 587.436C604.276 581.146 600.842 571.425 601.276 562.671C601.492 558.312 602.663 554.25 605.222 550.957C607.772 547.674 611.772 545.062 617.822 543.718L617.389 541.766C610.967 543.192 606.527 546.017 603.642 549.73C600.766 553.433 599.509 557.926 599.279 562.572C598.82 571.827 602.422 581.918 605.85 588.374L607.617 587.436Z" fill="black"/>
<path d="M663.628 533.544C664.167 533.424 664.507 532.89 664.388 532.351C664.268 531.811 663.734 531.471 663.195 531.591L663.628 533.544ZM653.423 577.262C650.082 570.971 646.648 561.251 647.082 552.496C647.298 548.137 648.469 544.076 651.027 540.782C653.578 537.499 657.578 534.887 663.628 533.544L663.195 531.591C656.773 533.017 652.332 535.842 649.448 539.555C646.572 543.258 645.315 547.751 645.084 552.397C644.626 561.653 648.228 571.744 651.656 578.2L653.423 577.262Z" fill="black"/>
<path d="M709.438 523.371C709.977 523.251 710.317 522.717 710.197 522.178C710.077 521.639 709.543 521.299 709.004 521.419L709.438 523.371ZM699.232 567.089C695.892 560.799 692.458 551.078 692.892 542.324C693.107 537.965 694.279 533.903 696.837 530.61C699.387 527.327 703.388 524.715 709.438 523.371L709.004 521.419C702.582 522.845 698.142 525.67 695.258 529.383C692.381 533.086 691.124 537.579 690.894 542.225C690.435 551.48 694.037 561.572 697.466 568.027L699.232 567.089Z" fill="black"/>
<rect x="365.49" y="628.532" width="405.551" height="251.42" rx="21.6163" transform="rotate(-12.5222 365.49 628.532)" fill="#EBE7D0" stroke="black" stroke-width="2"/>
<mask id="path-10-outside-1_1138_10478" maskUnits="userSpaceOnUse" x="364.297" y="539.311" width="412.388" height="151.916" fill="black">
<rect fill="white" x="364.297" y="539.311" width="412.388" height="151.916"/>
<path fill-rule="evenodd" clip-rule="evenodd" d="M773.681 600.534L379.729 688.032L371.153 649.417C368.684 638.302 375.694 627.29 386.809 624.821L740.509 546.264C751.624 543.795 762.636 550.805 765.105 561.92L773.681 600.534Z"/>
</mask>
<path fill-rule="evenodd" clip-rule="evenodd" d="M773.681 600.534L379.729 688.032L371.153 649.417C368.684 638.302 375.694 627.29 386.809 624.821L740.509 546.264C751.624 543.795 762.636 550.805 765.105 561.92L773.681 600.534Z" fill="#4AC2E0"/>
<path d="M773.681 600.534L774.115 602.487L776.067 602.053L775.633 600.101L773.681 600.534ZM379.729 688.032L377.777 688.465L378.21 690.418L380.163 689.984L379.729 688.032ZM740.509 546.264L740.942 548.216L740.509 546.264ZM773.247 598.582L379.296 686.079L380.163 689.984L774.115 602.487L773.247 598.582ZM381.682 687.598L373.105 648.984L369.201 649.851L377.777 688.465L381.682 687.598ZM373.105 648.984C370.876 638.947 377.206 629.003 387.243 626.774L386.375 622.869C374.182 625.577 366.492 637.657 369.201 649.851L373.105 648.984ZM387.243 626.774L740.942 548.216L740.075 544.312L386.375 622.869L387.243 626.774ZM740.942 548.216C750.979 545.987 760.923 552.317 763.152 562.354L767.057 561.486C764.349 549.293 752.269 541.603 740.075 544.312L740.942 548.216ZM763.152 562.354L771.729 600.968L775.633 600.101L767.057 561.486L763.152 562.354Z" fill="black" mask="url(#path-10-outside-1_1138_10478)"/>
<rect x="354.015" y="620.143" width="405.551" height="251.42" rx="21.6163" transform="rotate(-12.5222 354.015 620.143)" fill="#F9F6E3" stroke="black" stroke-width="2"/>
<mask id="path-13-outside-2_1138_10478" maskUnits="userSpaceOnUse" x="352.823" y="530.922" width="412.388" height="151.916" fill="black">
<rect fill="white" x="352.823" y="530.922" width="412.388" height="151.916"/>
<path fill-rule="evenodd" clip-rule="evenodd" d="M762.207 592.146L368.255 679.643L359.679 641.029C357.21 629.914 364.219 618.902 375.335 616.433L729.034 537.875C740.15 535.407 751.162 542.416 753.63 553.531L762.207 592.146Z"/>
</mask>
<path fill-rule="evenodd" clip-rule="evenodd" d="M762.207 592.146L368.255 679.643L359.679 641.029C357.21 629.914 364.219 618.902 375.335 616.433L729.034 537.875C740.15 535.407 751.162 542.416 753.63 553.531L762.207 592.146Z" fill="#4DD9FC"/>
<path d="M762.207 592.146L762.64 594.098L764.593 593.665L764.159 591.712L762.207 592.146ZM368.255 679.643L366.303 680.077L366.736 682.029L368.689 681.596L368.255 679.643ZM359.679 641.029L361.631 640.595L359.679 641.029ZM753.63 553.531L751.678 553.965L753.63 553.531ZM761.773 590.193L367.821 677.691L368.689 681.596L762.64 594.098L761.773 590.193ZM370.207 679.209L361.631 640.595L357.726 641.462L366.303 680.077L370.207 679.209ZM361.631 640.595C359.402 630.558 365.731 620.614 375.768 618.385L374.901 614.48C362.707 617.189 355.018 629.269 357.726 641.462L361.631 640.595ZM375.768 618.385L729.468 539.828L728.601 535.923L374.901 614.48L375.768 618.385ZM729.468 539.828C739.505 537.599 749.449 543.928 751.678 553.965L755.583 553.098C752.875 540.904 740.794 533.215 728.601 535.923L729.468 539.828ZM751.678 553.965L760.254 592.579L764.159 591.712L755.583 553.098L751.678 553.965Z" fill="black" mask="url(#path-13-outside-2_1138_10478)"/>
<path d="M400.771 648.593C406.907 647.23 410.685 641.004 409.294 634.74C407.903 628.476 401.844 624.434 395.708 625.797C389.573 627.16 385.795 633.386 387.186 639.65C388.577 645.914 394.636 649.956 400.771 648.593Z" fill="white" stroke="black" stroke-width="2"/>
<path d="M397.584 636.441C397.168 636.804 397.124 637.435 397.487 637.852C397.85 638.268 398.481 638.312 398.898 637.949L397.584 636.441ZM398.898 637.949C402.66 634.673 405.622 629.846 407.537 624.593C409.454 619.334 410.35 613.571 409.911 608.369C409.473 603.179 407.692 598.429 404.126 595.373C400.527 592.289 395.301 591.093 388.345 592.638L388.778 594.59C395.304 593.141 399.83 594.326 402.825 596.892C405.852 599.486 407.506 603.652 407.918 608.538C408.33 613.411 407.49 618.882 405.658 623.908C403.825 628.937 401.025 633.444 397.584 636.441L398.898 637.949Z" fill="black"/>
<path d="M446.581 638.418C452.717 637.055 456.495 630.829 455.104 624.565C453.712 618.301 447.654 614.259 441.518 615.622C435.383 616.985 431.604 623.211 432.996 629.475C434.387 635.739 440.445 639.781 446.581 638.418Z" fill="white" stroke="black" stroke-width="2"/>
<path d="M492.39 628.244C498.525 626.881 502.304 620.655 500.912 614.391C499.521 608.127 493.462 604.085 487.327 605.448C481.191 606.811 477.413 613.037 478.804 619.301C480.196 625.565 486.254 629.607 492.39 628.244Z" fill="white" stroke="black" stroke-width="2"/>
<path d="M538.197 618.07C544.333 616.707 548.111 610.481 546.72 604.217C545.329 597.953 539.27 593.912 533.134 595.274C526.999 596.637 523.221 602.864 524.612 609.127C526.003 615.391 532.062 619.433 538.197 618.07Z" fill="white" stroke="black" stroke-width="2"/>
<path d="M535.01 605.918C534.594 606.281 534.55 606.913 534.913 607.329C535.276 607.746 535.907 607.789 536.324 607.426L535.01 605.918ZM536.324 607.426C540.086 604.15 543.048 599.324 544.963 594.07C546.88 588.811 547.776 583.049 547.337 577.847C546.899 572.656 545.118 567.906 541.552 564.85C537.953 561.766 532.727 560.57 525.771 562.115L526.204 564.067C532.73 562.618 537.256 563.803 540.251 566.369C543.278 568.963 544.932 573.13 545.344 578.015C545.756 582.888 544.916 588.36 543.084 593.385C541.251 598.414 538.451 602.921 535.01 605.918L536.324 607.426Z" fill="black"/>
<path d="M584.006 607.896C590.141 606.533 593.92 600.307 592.528 594.043C591.137 587.779 585.078 583.737 578.943 585.1C572.807 586.463 569.029 592.689 570.42 598.953C571.811 605.217 577.87 609.259 584.006 607.896Z" fill="white" stroke="black" stroke-width="2"/>
<path d="M580.819 595.744C580.402 596.107 580.359 596.738 580.721 597.155C581.084 597.571 581.716 597.615 582.132 597.252L580.819 595.744ZM582.132 597.252C585.894 593.976 588.857 589.149 590.772 583.896C592.689 578.637 593.585 572.874 593.146 567.672C592.708 562.482 590.927 557.732 587.36 554.676C583.761 551.592 578.536 550.396 571.579 551.941L572.013 553.893C578.539 552.444 583.065 553.629 586.059 556.195C589.086 558.789 590.741 562.955 591.153 567.841C591.564 572.714 590.725 578.185 588.893 583.211C587.059 588.24 584.26 592.747 580.819 595.744L582.132 597.252Z" fill="black"/>
<path d="M629.815 597.721C635.95 596.358 639.728 590.132 638.337 583.868C636.946 577.604 630.887 573.563 624.752 574.925C618.616 576.288 614.838 582.515 616.229 588.778C617.62 595.042 623.679 599.084 629.815 597.721Z" fill="white" stroke="black" stroke-width="2"/>
<path d="M626.627 585.569C626.211 585.932 626.167 586.564 626.53 586.98C626.893 587.397 627.525 587.44 627.941 587.077L626.627 585.569ZM627.941 587.077C631.703 583.801 634.665 578.975 636.581 573.721C638.497 568.463 639.394 562.7 638.955 557.498C638.517 552.307 636.736 547.557 633.169 544.501C629.57 541.417 624.344 540.221 617.388 541.766L617.822 543.718C624.347 542.269 628.873 543.454 631.868 546.02C634.895 548.614 636.55 552.781 636.962 557.666C637.373 562.539 636.533 568.011 634.702 573.036C632.868 578.066 630.068 582.572 626.627 585.569L627.941 587.077Z" fill="black"/>
<path d="M675.621 587.547C681.757 586.184 685.535 579.958 684.144 573.694C682.753 567.43 676.694 563.389 670.558 564.751C664.423 566.114 660.645 572.341 662.036 578.604C663.427 584.868 669.486 588.91 675.621 587.547Z" fill="white" stroke="black" stroke-width="2"/>
<path d="M672.434 575.395C672.018 575.758 671.974 576.39 672.337 576.806C672.7 577.222 673.331 577.266 673.748 576.903L672.434 575.395ZM673.748 576.903C677.51 573.627 680.472 568.801 682.387 563.547C684.304 558.288 685.2 552.526 684.761 547.324C684.324 542.133 682.542 537.383 678.976 534.327C675.377 531.243 670.151 530.047 663.195 531.592L663.628 533.544C670.154 532.095 674.68 533.28 677.675 535.846C680.702 538.44 682.356 542.607 682.769 547.492C683.18 552.365 682.34 557.836 680.508 562.862C678.675 567.891 675.875 572.398 672.434 575.395L673.748 576.903Z" fill="black"/>
<path d="M721.432 577.373C727.567 576.01 731.346 569.784 729.954 563.52C728.563 557.256 722.504 553.215 716.369 554.577C710.233 555.94 706.455 562.167 707.846 568.43C709.238 574.694 715.296 578.736 721.432 577.373Z" fill="white" stroke="black" stroke-width="2"/>
<path d="M718.245 565.221C717.828 565.584 717.785 566.216 718.147 566.632C718.51 567.049 719.142 567.092 719.558 566.729L718.245 565.221ZM719.558 566.729C723.32 563.453 726.283 558.627 728.198 553.373C730.115 548.114 731.011 542.352 730.572 537.15C730.134 531.959 728.353 527.209 724.786 524.153C721.187 521.069 715.962 519.873 709.005 521.418L709.439 523.37C715.965 521.921 720.491 523.106 723.485 525.672C726.512 528.266 728.167 532.433 728.579 537.318C728.99 542.191 728.151 547.662 726.319 552.688C724.485 557.717 721.686 562.224 718.245 565.221L719.558 566.729Z" fill="black"/>
<path d="M469.494 590.084C469.469 592.007 469.49 593.656 469.523 594.93C468.98 594.23 468.399 593.441 467.766 592.581C467.427 592.12 467.072 591.639 466.701 591.14C464.849 588.653 462.638 585.84 459.906 583.354C454.394 578.339 446.766 574.669 435.709 577.389C425.963 579.786 419.423 588.405 418.137 600.558C416.852 612.7 420.773 628.447 431.922 645.527C438.791 656.05 451.086 662.925 461.699 662.123C467.05 661.718 471.969 659.355 475.463 654.542C478.555 650.284 480.475 644.188 480.689 636.004L483.734 640.275C483.752 640.299 483.77 640.322 483.789 640.344C486.949 644.037 492.668 648.921 499.619 651.616C506.602 654.322 514.89 654.833 522.999 649.622C527.943 646.445 531.079 641.402 533.018 635.697C534.956 629.993 535.723 623.553 535.88 617.456C536.194 605.263 534.072 594.249 533.783 592.811C533.763 592.712 533.747 592.623 533.729 592.52L532.743 592.687L533.729 592.52C533.438 590.799 530.853 576.284 524.409 563.186C521.188 556.64 516.961 550.36 511.497 546.229C505.991 542.066 499.249 540.105 491.155 542.21C484.784 543.867 480.279 548.293 477.114 553.856C473.955 559.408 472.088 566.16 470.991 572.645C469.892 579.14 469.556 585.427 469.494 590.084Z" fill="#FFF4EA" stroke="#121212" stroke-width="2" stroke-linejoin="round"/>
<path d="M480.776 636.036C479.05 624.581 474.657 603.554 468.537 593.669" stroke="black" stroke-width="2" stroke-linecap="round" stroke-linejoin="round"/>
<path d="M427.937 726.381L427.057 726.856L427.533 727.736L457.222 782.648L457.698 783.527L458.577 783.052L479.435 771.775C487.997 767.145 493.638 760.686 495.908 753.102C498.177 745.517 497.03 736.954 492.298 728.201C487.556 719.43 481.018 713.779 473.41 711.54C465.804 709.302 457.278 710.517 448.642 715.186L427.937 726.381ZM466.273 760.739L450.821 732.16L455.478 729.642C459.804 727.303 463.401 726.492 466.598 727.469C469.803 728.45 472.89 731.316 475.977 737.026C479.053 742.715 479.765 746.873 478.873 750.077C477.987 753.266 475.434 755.785 471.309 758.016L466.273 760.739Z" fill="#FBDF96" stroke="#121212" stroke-width="2"/>
<path d="M614.683 671.527L613.689 671.422L613.583 672.416L607.018 734.494L606.913 735.488L607.907 735.594L631.487 738.087C641.167 739.111 649.472 736.974 655.632 732.002C661.793 727.03 665.69 719.319 666.736 709.424C667.785 699.508 665.588 691.151 660.58 685.002C655.572 678.854 647.853 675.035 638.091 674.003L614.683 671.527ZM626.872 721.542L630.289 689.234L635.554 689.791C640.444 690.308 643.87 691.673 645.953 694.287C648.042 696.908 648.967 701.018 648.285 707.472C647.605 713.904 645.84 717.736 643.293 719.875C640.759 722.004 637.229 722.638 632.566 722.145L626.872 721.542Z" fill="#FBDF96" stroke="#121212" stroke-width="2"/>
<path d="M733.279 656.324L733.165 655.331L732.172 655.444L715.896 657.302L714.902 657.416L715.016 658.409L722.097 720.43L722.211 721.424L723.204 721.311L739.48 719.452L740.474 719.339L740.361 718.345L733.279 656.324Z" fill="#4DD9FC" stroke="#121212" stroke-width="2"/>
<path d="M672.186 731.208L672.478 732.165L673.435 731.873L692.522 726.056C699.914 723.803 705.194 720.123 708.196 715.55C711.211 710.959 711.862 705.567 710.166 700.075C709.039 696.304 707.334 693.121 704.501 691.149C702.395 689.683 699.767 688.955 696.501 689.049C701.535 685.574 704.084 679.991 702.198 673.928C698.973 663.201 686.81 658.645 673.403 662.731L654.151 668.598L653.194 668.889L653.486 669.846L657.181 681.97L657.472 682.926L658.429 682.635L677.681 676.768C679.593 676.185 681.318 676.293 682.647 676.889C683.964 677.48 684.957 678.574 685.408 680.116L685.411 680.127L685.414 680.137C685.903 681.681 685.614 683.226 684.643 684.585C683.66 685.96 681.956 687.165 679.624 687.876L661.691 693.341L660.735 693.632L661.026 694.589L664.344 705.476L664.636 706.432L665.592 706.141L683.521 700.677C686.125 699.905 688.425 699.91 690.158 700.484C691.869 701.052 693.029 702.167 693.5 703.711C693.995 705.335 693.728 706.901 692.835 708.236C691.931 709.586 690.347 710.747 688.15 711.416L668.981 717.259L668.024 717.55L668.316 718.507L672.186 731.208Z" fill="#4DD9FC" stroke="#121212" stroke-width="2"/>
<circle cx="431.274" cy="715.483" r="17.0072" transform="rotate(-13.2859 431.274 715.483)" fill="white" stroke="#121212" stroke-width="2"/>
<circle cx="464.314" cy="707.682" r="17.0072" transform="rotate(-13.2859 464.314 707.682)" fill="white" stroke="#121212" stroke-width="2"/>
<circle cx="429.768" cy="723.124" r="8.84247" transform="rotate(-13.2859 429.768 723.124)" fill="#121212" stroke="#121212" stroke-width="2"/>
<circle cx="462.807" cy="715.324" r="8.84247" transform="rotate(-13.2859 462.807 715.324)" fill="#121212" stroke="#121212" stroke-width="2"/>
<path d="M506.712 758.59L507.454 758.586L507.666 757.875L511.101 746.325L530.528 746.229L534.119 757.748L534.339 758.454L535.078 758.45L552.754 758.363L554.139 758.356L553.696 757.044L532.696 694.723L532.465 694.038L531.743 694.042L509.412 694.152L508.691 694.155L508.467 694.841L487.996 757.366L487.564 758.684L488.951 758.677L506.712 758.59ZM526.05 731.835L515.432 731.887L520.638 714.486L526.05 731.835Z" fill="#FBDF96" stroke="#121212" stroke-width="2"/>
<path d="M537.657 719.881L536.071 720.426L537.305 721.562L572.605 754.044L579.03 772.72L579.355 773.666L580.301 773.341L595.71 768.04L596.656 767.714L596.331 766.769L589.906 748.093L597.753 700.768L598.028 699.113L596.441 699.659L579.075 705.633L578.485 705.836L578.408 706.455L575.068 733.208L556.057 714.146L555.615 713.703L555.023 713.907L537.657 719.881Z" fill="#FBDF96" stroke="#121212" stroke-width="2"/>
<path d="M454.196 806.904L452.329 807.263L451.973 805.413L453.84 805.053L454.196 806.904ZM455.635 814.372L453.768 814.731L453.408 812.864L455.275 812.505L455.635 814.372ZM467.715 812.662L467.985 814.066L462.285 815.164L459.713 801.814L465.017 800.793L465.287 802.197L461.537 802.919L463.567 813.461L467.715 812.662ZM468.442 799.893L471.147 813.937L469.594 814.236L468.28 807.412L464.942 808.055L464.675 806.667L468.012 806.024L466.889 800.192L468.442 799.893ZM474.517 813.459L472.964 813.758L470.214 799.483L471.767 799.184L474.517 813.459ZM486.643 796.318L489.393 810.593L487.84 810.892L485.09 796.617L486.643 796.318ZM476.818 803.043L477.715 807.702C478.132 809.867 479.087 810.642 480.574 810.356C482.045 810.073 482.643 808.998 482.226 806.833L481.328 802.174C480.908 799.993 479.953 799.218 478.483 799.501C476.996 799.787 476.398 800.862 476.818 803.043ZM476.162 808.001L475.265 803.342C474.679 800.302 475.949 798.532 478.212 798.096C480.459 797.664 482.296 798.835 482.881 801.875L483.779 806.534C484.358 809.541 483.088 811.311 480.841 811.744C478.578 812.18 476.742 811.009 476.162 808.001ZM497.467 806.93L497.738 808.335L492.038 809.433L489.466 796.083L494.77 795.061L495.04 796.465L491.29 797.188L493.32 807.729L497.467 806.93ZM498.195 794.161L500.9 808.205L499.347 808.504L498.033 801.681L494.695 802.324L494.428 800.936L497.765 800.293L496.642 794.461L498.195 794.161ZM504.27 807.728L502.716 808.027L499.967 793.752L501.52 793.452L504.27 807.728ZM516.396 790.587L519.146 804.862L517.593 805.161L514.843 790.886L516.396 790.587ZM506.571 797.311L507.468 801.971C507.885 804.135 508.84 804.911 510.327 804.624C511.797 804.341 512.396 803.266 511.979 801.102L511.081 796.443C510.661 794.262 509.706 793.486 508.236 793.769C506.749 794.056 506.151 795.131 506.571 797.311ZM505.915 802.27L505.018 797.611C504.432 794.571 505.702 792.801 507.965 792.365C510.212 791.932 512.049 793.103 512.634 796.143L513.532 800.803C514.111 803.81 512.841 805.579 510.594 806.012C508.331 806.448 506.494 805.277 505.915 802.27Z" fill="#121212"/>
<path d="M709.971 893.535L705.054 1056.68L510.063 1056.68L510.063 896.295C487.1 892.345 480.212 873.935 478.893 860.112L709.971 810.05C701.393 802.48 674.785 752.311 684.117 735.438C697.958 710.415 734.157 737.501 750.984 752.311C767.811 767.122 775.934 780.075 775.934 807.388C775.934 820.867 740.041 861.83 709.971 893.535Z" fill="#FFF4EA" stroke="#121212" stroke-width="2" stroke-linejoin="round"/>
<path fill-rule="evenodd" clip-rule="evenodd" d="M502.932 903.272C511.446 903.272 554.903 903.272 588.805 903.272L588.805 903.272L609.734 903.272L630.719 903.272L630.719 903.272C664.621 903.272 708.078 903.272 716.591 903.272C730.929 903.272 751.392 906.128 748.323 928.02C746.774 939.076 739.528 942.255 727.531 943.088C727.754 944.094 727.871 945.14 727.871 946.213L727.871 1038.32C727.871 1046.27 721.43 1052.71 713.485 1052.71L505.024 1052.71C497.079 1052.71 490.638 1046.27 490.638 1038.32L490.638 946.213C490.638 945.113 490.762 944.041 490.996 943.012C479.594 942.07 472.706 938.766 471.2 928.02C468.132 906.128 488.595 903.272 502.932 903.272Z" fill="#E2CCFB"/>
<path d="M588.805 903.272L588.805 904.272L590.151 904.272L589.762 902.984L588.805 903.272ZM502.932 903.272L502.932 902.272L502.932 903.272ZM588.805 903.272L588.805 902.272L587.459 902.272L587.847 903.561L588.805 903.272ZM609.734 903.272L609.734 904.272L609.734 903.272ZM630.719 903.272L631.677 903.56L632.064 902.272L630.719 902.272L630.719 903.272ZM630.719 903.272L629.761 902.984L629.374 904.272L630.719 904.272L630.719 903.272ZM716.591 903.272L716.591 902.272L716.591 903.272ZM748.323 928.02L747.333 927.881V927.881L748.323 928.02ZM727.531 943.088L727.462 942.09L726.303 942.17L726.555 943.304L727.531 943.088ZM727.871 946.213L726.871 946.213L727.871 946.213ZM727.871 1038.32L728.871 1038.32L727.871 1038.32ZM713.485 1052.71L713.485 1053.71L713.485 1052.71ZM505.024 1052.71L505.024 1051.71L505.024 1052.71ZM490.638 1038.32L491.638 1038.32L490.638 1038.32ZM490.638 946.213L489.638 946.213L490.638 946.213ZM490.996 943.012L491.971 943.234L492.226 942.11L491.078 942.015L490.996 943.012ZM471.2 928.02L470.21 928.158L471.2 928.02ZM588.805 902.272C554.903 902.272 511.446 902.272 502.932 902.272L502.932 904.272C511.446 904.272 554.903 904.272 588.805 904.272L588.805 902.272ZM587.847 903.561L587.847 903.561L589.762 902.984L589.762 902.984L587.847 903.561ZM609.734 902.272L588.805 902.272L588.805 904.272L609.734 904.272L609.734 902.272ZM630.719 902.272L609.734 902.272L609.734 904.272L630.719 904.272L630.719 902.272ZM631.677 903.56L631.677 903.56L629.761 902.984L629.761 902.984L631.677 903.56ZM716.591 902.272C708.078 902.272 664.621 902.272 630.719 902.272L630.719 904.272C664.621 904.272 708.078 904.272 716.591 904.272L716.591 902.272ZM749.314 928.158C750.103 922.529 749.39 918.029 747.566 914.462C745.742 910.894 742.854 908.351 739.452 906.552C732.696 902.979 723.782 902.272 716.591 902.272L716.591 904.272C723.739 904.272 732.224 904.992 738.517 908.32C741.64 909.972 744.188 912.247 745.786 915.372C747.383 918.497 748.078 922.564 747.333 927.881L749.314 928.158ZM727.6 944.085C733.638 943.666 738.663 942.651 742.39 940.226C746.185 937.756 748.507 933.913 749.314 928.158L747.333 927.881C746.59 933.183 744.515 936.457 741.299 938.549C738.017 940.686 733.421 941.676 727.462 942.09L727.6 944.085ZM726.555 943.304C726.762 944.24 726.871 945.213 726.871 946.213L728.871 946.213C728.871 945.067 728.746 943.948 728.507 942.871L726.555 943.304ZM726.871 946.213L726.871 1038.32L728.871 1038.32L728.871 946.213L726.871 946.213ZM726.871 1038.32C726.871 1045.72 720.878 1051.71 713.485 1051.71L713.485 1053.71C721.983 1053.71 728.871 1046.82 728.871 1038.32L726.871 1038.32ZM713.485 1051.71L505.024 1051.71L505.024 1053.71L713.485 1053.71L713.485 1051.71ZM505.024 1051.71C497.631 1051.71 491.638 1045.72 491.638 1038.32L489.638 1038.32C489.638 1046.82 496.527 1053.71 505.024 1053.71L505.024 1051.71ZM491.638 1038.32L491.638 946.213L489.638 946.213L489.638 1038.32L491.638 1038.32ZM491.638 946.213C491.638 945.188 491.753 944.191 491.971 943.234L490.021 942.79C489.77 943.892 489.638 945.038 489.638 946.213L491.638 946.213ZM470.21 928.158C470.993 933.748 473.208 937.54 476.822 940.017C480.377 942.455 485.165 943.534 490.913 944.009L491.078 942.015C485.425 941.548 481.068 940.504 477.953 938.368C474.896 936.272 472.913 933.038 472.191 927.881L470.21 928.158ZM502.932 902.272C495.742 902.272 486.827 902.979 480.072 906.552C476.67 908.351 473.782 910.894 471.957 914.462C470.133 918.029 469.421 922.529 470.21 928.158L472.191 927.881C471.445 922.564 472.14 918.497 473.738 915.372C475.336 912.247 477.884 909.972 481.007 908.32C487.299 904.992 495.785 904.272 502.932 904.272L502.932 902.272Z" fill="black"/>
<path d="M246.999 973.625L369.842 1005.85" stroke="black" stroke-width="1.4"/>
<path d="M251.297 957.246L374.139 989.474" stroke="black" stroke-width="1.4"/>
<path d="M255.594 940.867L378.436 973.095" stroke="black" stroke-width="1.4"/>
<path d="M259.891 924.488L382.733 956.716" stroke="black" stroke-width="1.4"/>
<path d="M264.188 908.109L387.031 940.337" stroke="black" stroke-width="1.4"/>
<rect x="267.341" y="916.966" width="19.0389" height="59.9611" transform="rotate(14.7005 267.341 916.966)" fill="#E2CCFB" stroke="black" stroke-width="1.4"/>
<rect x="297.706" y="895.755" width="19.0389" height="88.1833" transform="rotate(14.7005 297.706 895.755)" fill="#58C179" stroke="black" stroke-width="1.4"/>
<rect x="312.853" y="932.553" width="19.0389" height="56.4333" transform="rotate(14.7005 312.853 932.553)" fill="#FBDF96" stroke="black" stroke-width="1.4"/>
<rect x="333.729" y="947.513" width="19.0389" height="47.2611" transform="rotate(14.7005 333.729 947.513)" fill="#0EAFE1" stroke="black" stroke-width="1.4"/>
<rect x="361.05" y="937.904" width="19.0389" height="63.4889" transform="rotate(14.7005 361.05 937.904)" fill="#F6A89E" stroke="black" stroke-width="1.4"/>
<path fill-rule="evenodd" clip-rule="evenodd" d="M873.617 665.31C873.028 664.279 872.546 663.262 872.173 662.26C871.791 663.434 871.279 664.622 870.635 665.748C869.536 667.671 868.621 668.661 868.055 669.252C868.621 669.842 869.536 670.832 870.635 672.755C871.279 673.881 871.791 675.069 872.173 676.244C872.546 675.242 873.028 674.224 873.617 673.193C874.816 671.095 875.687 669.974 876.263 669.252C875.687 668.529 874.816 667.408 873.617 665.31ZM878.06 668.703C877.955 668.566 877.84 668.422 877.713 668.263L877.713 668.263C877.14 667.544 876.324 666.521 875.136 664.442C873.775 662.059 873.085 659.853 873.001 657.838C872.981 657.368 872.593 657 872.126 657C871.659 657 871.271 657.368 871.252 657.838C871.166 659.881 870.462 662.524 869.116 664.879C868.085 666.683 867.418 667.374 866.865 667.948C866.627 668.195 866.409 668.42 866.193 668.703C866.139 668.77 866.096 668.843 866.065 668.921C866.021 669.027 866 669.14 866 669.252C866 669.448 866.066 669.643 866.193 669.801C866.409 670.083 866.627 670.308 866.865 670.555C867.418 671.129 868.085 671.82 869.116 673.624C870.462 675.979 871.166 678.622 871.252 680.665C871.271 681.135 871.659 681.504 872.126 681.503C872.593 681.504 872.981 681.135 873.001 680.665C873.085 678.65 873.775 676.444 875.136 674.061C876.324 671.982 877.14 670.959 877.713 670.241L877.713 670.241C877.84 670.081 877.955 669.937 878.06 669.8C878.113 669.733 878.156 669.659 878.188 669.582C878.273 669.373 878.275 669.135 878.188 668.922C878.156 668.844 878.113 668.77 878.06 668.703Z" fill="black"/>
<path fill-rule="evenodd" clip-rule="evenodd" d="M170.617 824.096C170.028 823.065 169.546 822.048 169.173 821.046C168.791 822.22 168.279 823.408 167.635 824.534C166.536 826.457 165.621 827.447 165.055 828.038C165.621 828.628 166.536 829.618 167.635 831.541C168.279 832.667 168.791 833.855 169.173 835.03C169.546 834.028 170.028 833.01 170.617 831.979C171.816 829.881 172.687 828.76 173.263 828.038C172.687 827.315 171.816 826.195 170.617 824.096ZM175.06 827.49C174.955 827.352 174.84 827.208 174.713 827.049L174.713 827.049C174.14 826.33 173.324 825.307 172.136 823.228C170.775 820.845 170.085 818.639 170.001 816.625C169.981 816.154 169.593 815.786 169.126 815.786C168.659 815.786 168.271 816.154 168.252 816.625C168.166 818.667 167.462 821.31 166.116 823.666C165.085 825.469 164.418 826.16 163.865 826.734C163.627 826.981 163.409 827.206 163.193 827.489C163.139 827.556 163.096 827.629 163.065 827.707C163.021 827.813 163 827.926 163 828.038C163 828.234 163.066 828.429 163.193 828.587C163.409 828.869 163.627 829.095 163.865 829.342C164.418 829.915 165.085 830.606 166.116 832.41C167.462 834.765 168.166 837.408 168.252 839.451C168.271 839.922 168.659 840.29 169.126 840.289C169.593 840.29 169.981 839.922 170.001 839.451C170.085 837.436 170.775 835.231 172.136 832.847C173.324 830.768 174.14 829.745 174.713 829.027L174.713 829.027C174.84 828.868 174.955 828.723 175.06 828.586C175.113 828.519 175.156 828.445 175.188 828.368C175.273 828.159 175.275 827.921 175.188 827.708C175.156 827.63 175.113 827.557 175.06 827.49Z" fill="black"/>
<path fill-rule="evenodd" clip-rule="evenodd" d="M190.884 806.061C189.871 804.471 189.088 802.908 188.543 801.376C187.997 803.122 187.188 804.921 186.115 806.605C184.537 809.083 183.267 810.271 182.487 811C182.474 811.012 182.461 811.025 182.447 811.037C182.461 811.049 182.474 811.062 182.487 811.074C183.267 811.803 184.537 812.991 186.115 815.469C187.188 817.153 187.997 818.952 188.543 820.699C189.088 819.167 189.871 817.603 190.884 816.014C192.599 813.32 193.825 811.932 194.621 811.037C193.825 810.142 192.599 808.754 190.884 806.061ZM196.433 810.449C196.29 810.28 196.132 810.101 195.956 809.904C195.161 809.009 194.018 807.723 192.36 805.12C190.457 802.133 189.492 799.364 189.374 796.834C189.352 796.365 188.964 796 188.499 796C188.034 796 187.647 796.365 187.625 796.834C187.505 799.395 186.522 802.708 184.639 805.665C183.194 807.933 182.233 808.828 181.459 809.549C181.136 809.85 180.845 810.12 180.566 810.448C180.456 810.569 180.385 810.714 180.355 810.867C180.344 810.923 180.338 810.98 180.338 811.037C180.338 811.25 180.416 811.461 180.566 811.626C180.845 811.954 181.136 812.224 181.459 812.526C182.233 813.246 183.194 814.142 184.639 816.409C186.522 819.367 187.505 822.68 187.625 825.24C187.647 825.709 188.034 826.075 188.499 826.074C188.964 826.075 189.352 825.709 189.374 825.24C189.492 822.71 190.457 819.942 192.36 816.954C194.018 814.351 195.161 813.065 195.956 812.17C196.132 811.973 196.29 811.795 196.433 811.625C196.724 811.306 196.74 810.813 196.454 810.473C196.447 810.465 196.44 810.457 196.433 810.449Z" fill="black"/>
<path fill-rule="evenodd" clip-rule="evenodd" d="M426.331 375.817C425.706 374.723 425.195 373.643 424.8 372.58C424.395 373.826 423.851 375.086 423.168 376.281C422.002 378.322 421.03 379.372 420.431 379.998C421.03 380.625 422.002 381.675 423.168 383.716C423.851 384.911 424.395 386.171 424.8 387.417C425.195 386.354 425.706 385.274 426.331 384.18C427.604 381.954 428.528 380.765 429.139 379.998C428.528 379.232 427.604 378.043 426.331 375.817ZM431.048 379.42C430.936 379.273 430.813 379.119 430.678 378.949L430.678 378.949C430.07 378.187 429.204 377.101 427.944 374.896C426.499 372.367 425.768 370.027 425.678 367.89C425.657 367.39 425.245 366.999 424.75 367C424.254 366.999 423.843 367.39 423.822 367.89C423.731 370.056 422.984 372.861 421.556 375.36C420.462 377.273 419.755 378.007 419.168 378.615C418.914 378.878 418.682 379.118 418.452 379.42C418.405 379.479 418.365 379.544 418.334 379.612C418.278 379.735 418.25 379.867 418.25 379.998C418.25 380.13 418.278 380.262 418.334 380.385C418.365 380.453 418.405 380.518 418.452 380.577C418.682 380.879 418.914 381.119 419.168 381.382C419.755 381.99 420.462 382.724 421.556 384.637C422.984 387.136 423.731 389.94 423.822 392.107C423.843 392.607 424.254 392.997 424.75 392.997C425.245 392.997 425.657 392.607 425.678 392.107C425.768 389.97 426.499 387.63 427.944 385.101C429.204 382.896 430.07 381.81 430.678 381.048L430.678 381.048C430.813 380.878 430.936 380.724 431.048 380.577C431.095 380.517 431.134 380.453 431.165 380.385C431.276 380.143 431.279 379.86 431.165 379.612C431.134 379.544 431.095 379.48 431.048 379.42Z" fill="black"/>
<path fill-rule="evenodd" clip-rule="evenodd" d="M949.553 921.388C946.874 916.7 945.009 912.151 943.966 907.761C942.941 912.606 941.057 917.824 938.306 922.638C935.138 928.182 932.708 930.716 931.09 932.403L931.09 932.403C930.73 932.778 930.41 933.111 930.132 933.427C930.41 933.742 930.73 934.075 931.09 934.451L931.09 934.451C932.708 936.138 935.138 938.672 938.306 944.215C941.057 949.029 942.941 954.247 943.966 959.093C945.009 954.703 946.874 950.153 949.553 945.465C953.088 939.279 955.579 936.157 957.218 934.103L957.218 934.103C957.409 933.864 957.588 933.64 957.756 933.427C957.588 933.214 957.409 932.989 957.218 932.75L957.218 932.75C955.579 930.697 953.088 927.574 949.553 921.388ZM959.649 932.839C959.357 932.453 959.03 932.044 958.665 931.587L958.665 931.586C957.027 929.533 954.623 926.519 951.165 920.467C947.184 913.5 945.113 906.955 944.858 900.89C944.837 900.39 944.425 899.999 943.929 900C943.434 899.999 943.022 900.39 943.001 900.89C942.744 906.985 940.658 914.78 936.694 921.717C933.653 927.038 931.521 929.257 929.91 930.932L929.91 930.932C929.269 931.6 928.71 932.181 928.21 932.838C928.129 932.937 928.07 933.051 928.036 933.171C928.012 933.255 928 933.341 928 933.427C928 933.638 928.072 933.847 928.21 934.016C928.71 934.672 929.269 935.254 929.91 935.921L929.91 935.921C931.521 937.597 933.653 939.815 936.694 945.137C940.658 952.074 942.744 959.868 943.001 965.964C943.022 966.464 943.434 966.854 943.929 966.853C944.425 966.854 944.837 966.464 944.858 965.964C945.113 959.898 947.184 953.353 951.165 946.386C954.623 940.335 957.027 937.321 958.665 935.267L958.665 935.267C959.03 934.81 959.357 934.4 959.649 934.015C959.73 933.916 959.788 933.803 959.822 933.683C959.87 933.517 959.871 933.339 959.822 933.17C959.788 933.051 959.73 932.938 959.649 932.839Z" fill="black"/>
<rect x="171.502" y="476.096" width="250.984" height="70.0799" rx="35.04" transform="rotate(-12.1835 171.502 476.096)" fill="black"/>
<path d="M214.531 498.401C214.835 499.808 216.096 500.557 217.523 500.249C218.93 499.945 219.77 498.743 219.467 497.335C219.163 495.928 217.901 495.179 216.493 495.482C215.067 495.79 214.227 496.993 214.531 498.401ZM212.767 498.782C212.272 496.492 213.77 494.421 216.153 493.906C218.518 493.395 220.736 494.665 221.231 496.954C221.725 499.244 220.232 501.334 217.867 501.845C215.484 502.359 213.261 501.071 212.767 498.782ZM226.025 491.775L227.751 499.77L225.987 500.15L224.261 492.155L226.025 491.775ZM229.546 506.355L229.882 507.913L216.295 510.846L215.33 506.38L226.797 503.904L226.497 502.515L215.03 504.991L214.698 503.452L227.929 500.595L228.89 505.043L217.423 507.519L217.722 508.908L229.546 506.355ZM232.338 490.412L234.102 490.031C234.305 490.969 234.409 491.909 234.393 492.836C235.821 494.354 237.961 495.621 240.102 496.258L239.305 497.845C237.503 497.232 235.642 496.161 234.177 494.925C233.803 496.833 232.922 498.575 231.543 500.012L229.932 499.102C232.255 496.852 233.075 493.827 232.338 490.412ZM245.618 491.237L245.958 492.814L243.668 493.308L244.572 497.493L242.808 497.874L240.802 488.584L242.566 488.203L243.328 491.731L245.618 491.237ZM242.219 505.426L237.114 506.528C234.468 507.099 232.585 506.111 232.172 504.197C231.754 502.264 233.062 500.587 235.708 500.016L240.813 498.914C243.459 498.342 245.342 499.33 245.759 501.263C246.173 503.178 244.865 504.855 242.219 505.426ZM236.778 504.97L241.882 503.868C243.309 503.56 244.124 502.697 243.901 501.665C243.674 500.614 242.575 500.163 241.149 500.471L236.044 501.573C234.637 501.877 233.803 502.745 234.03 503.796C234.252 504.828 235.37 505.274 236.778 504.97ZM263.298 498.852L263.638 500.428L249.694 503.439L248.766 499.141L260.758 496.552L260.523 495.463L248.531 498.053L248.19 496.476L261.947 493.506L262.859 497.729L250.866 500.318L251.117 501.482L263.298 498.852ZM246.721 493.945L262.242 490.594L262.582 492.171L247.061 495.522L246.721 493.945ZM250.055 490.554L257.637 488.917C258.519 488.727 259.143 488.16 258.993 487.465C258.839 486.752 258.037 486.493 257.154 486.684L249.572 488.321C248.69 488.511 248.254 489.038 248.408 489.751C248.558 490.445 249.172 490.745 250.055 490.554ZM249.236 486.763L256.818 485.126C258.77 484.705 260.376 485.32 260.757 487.085C261.138 488.849 259.925 490.053 257.973 490.475L250.391 492.112C248.458 492.529 247.025 491.896 246.644 490.132C246.263 488.367 247.303 487.18 249.236 486.763ZM277.361 480.769L280.805 496.722L279.041 497.103L277.903 491.829L275.613 492.323L275.269 490.728L277.558 490.234L276.76 486.536L274.639 486.994L274.295 485.399L276.416 484.941L275.597 481.15L277.361 480.769ZM267.452 483.184L273.101 481.964L273.92 485.755C274.913 490.353 274.296 494.592 271.556 498.188L269.769 497.553C272.605 494.132 273.019 490.133 272.192 486.305L271.682 483.94L267.797 484.779L267.452 483.184ZM284.637 496.091L282.873 496.472L279.372 480.257L281.136 479.876L284.637 496.091ZM296.27 476.608L298.034 476.227L300.384 487.112L298.62 487.493L296.27 476.608ZM300.55 487.882L301.572 492.611L299.807 492.992L299.127 489.839L287.491 492.352L287.15 490.775L300.55 487.882ZM288.53 481.245L290.501 480.82C292.434 480.402 293.996 481.087 294.336 482.663C294.681 484.258 293.54 485.526 291.607 485.943L291.457 485.976L291.68 487.008L296.916 485.877L297.256 487.454L285.846 489.918L285.505 488.341L289.916 487.389L289.693 486.357L289.636 486.369C287.703 486.786 286.141 486.102 285.797 484.507C285.457 482.93 286.597 481.663 288.53 481.245ZM289.316 484.886L291.287 484.461C292.282 484.246 292.71 483.682 292.572 483.044C292.434 482.406 291.808 482.05 290.813 482.265L288.842 482.69C287.848 482.905 287.423 483.488 287.561 484.126C287.699 484.764 288.322 485.101 289.316 484.886ZM288.162 479.085L287.895 477.847L289.659 477.466L289.926 478.705L294.149 477.793L294.481 479.332L284.403 481.508L284.071 479.969L288.162 479.085ZM303.857 487.148L303.362 484.859C302.791 482.213 304.251 480.424 306.635 479.909C309.018 479.395 311.086 480.422 311.658 483.068L312.152 485.357C312.719 487.985 311.259 489.773 308.876 490.288C306.492 490.803 304.424 489.776 303.857 487.148ZM316.314 480.707L318.077 488.871L316.312 489.252L312.811 473.037L314.576 472.656L315.974 479.131L318.263 478.636L318.604 480.213L316.314 480.707ZM305.127 484.478L305.621 486.768C305.965 488.363 307.034 489.036 308.535 488.711C310.037 488.387 310.732 487.334 310.388 485.738L309.894 483.449C309.549 481.853 308.477 481.162 306.975 481.486C305.474 481.81 304.782 482.883 305.127 484.478ZM310.927 477.136L301.581 479.154L301.236 477.559L304.99 476.749L304.455 474.271L306.219 473.89L306.754 476.368L310.583 475.541L310.927 477.136ZM319.111 480.162L334.632 476.811L334.976 478.406L319.455 481.757L319.111 480.162ZM335.307 483.304L335.647 484.881L321.703 487.892L320.641 482.974L322.406 482.594L323.127 485.934L335.307 483.304ZM319.527 477.813L318.279 472.033L320.043 471.652L320.959 475.894L333.139 473.264L333.471 474.803L319.527 477.813ZM353.387 464.63L353.732 466.225L348.308 467.396C348.169 467.662 348.03 467.927 347.849 468.183C349.757 468.831 352.335 468.943 354.807 468.566L354.341 470.14C351.815 470.449 348.995 470.214 346.882 469.432C345.341 471.121 343.162 472.494 341.109 473.173L340.013 471.917C342.527 471.099 344.814 469.682 346.093 467.874L339.975 469.195L339.631 467.6L353.387 464.63ZM356.622 478.702L356.962 480.279L343.018 483.29L342.098 479.029L354.091 476.44L353.86 475.37L341.867 477.96L341.531 476.402L355.288 473.432L356.191 477.617L344.199 480.206L344.442 481.332L356.622 478.702ZM340.07 473.909L355.59 470.558L355.927 472.115L340.406 475.466L340.07 473.909ZM356.36 463.988L363.773 462.387L364.49 465.709C365.572 470.72 364.032 475.688 360.07 479.078L358.645 478.03C362.331 474.995 363.711 470.651 362.799 466.428L362.353 464.364L356.704 465.583L356.36 463.988ZM370.018 469.112L365.776 470.028L365.436 468.451L369.677 467.536L368.279 461.061L370.044 460.68L373.544 476.895L371.78 477.276L370.018 469.112ZM389.396 467.58L390.571 473.023L376.814 475.993L375.639 470.55L381.551 469.274L381.207 467.678L374.413 469.145L374.072 467.569L389.593 464.218L389.934 465.794L382.971 467.298L383.315 468.893L389.396 467.58ZM388.47 471.846L387.964 469.5L377.736 471.708L378.242 474.054L388.47 471.846ZM384.39 464.045L378.741 465.265C375.926 465.872 374.287 465.106 373.85 463.08C373.448 461.222 374.593 459.698 377.408 459.09L383.057 457.87C385.891 457.258 387.562 458.174 387.963 460.032C388.4 462.059 387.224 463.433 384.39 464.045ZM378.405 463.707L384.054 462.487C385.818 462.106 386.295 461.316 386.105 460.434C385.914 459.552 385.153 459.028 383.389 459.409L377.74 460.629C376.164 460.969 375.498 461.8 375.689 462.682C375.879 463.565 376.64 464.088 378.405 463.707Z" fill="#121212"/>
<rect x="171.502" y="476.096" width="250.984" height="70.0799" rx="35.04" transform="rotate(-12.1835 171.502 476.096)" stroke="#121212" stroke-width="1.68"/>
<rect x="164.28" y="469.261" width="251.384" height="70.0799" rx="35.04" transform="rotate(-12.1835 164.28 469.261)" fill="white"/>
<path d="M207.505 491.524C207.809 492.931 209.07 493.68 210.497 493.372C211.904 493.069 212.745 491.866 212.441 490.458C212.137 489.051 210.875 488.302 209.468 488.605C208.041 488.913 207.201 490.116 207.505 491.524ZM205.741 491.905C205.246 489.615 206.744 487.544 209.127 487.029C211.492 486.518 213.71 487.788 214.205 490.077C214.699 492.367 213.206 494.457 210.841 494.968C208.458 495.482 206.235 494.194 205.741 491.905ZM218.999 484.898L220.725 492.893L218.961 493.273L217.235 485.279L218.999 484.898ZM222.52 499.478L222.856 501.036L209.269 503.969L208.304 499.503L219.771 497.027L219.471 495.638L208.004 498.114L207.672 496.575L220.903 493.718L221.864 498.166L210.397 500.642L210.697 502.031L222.52 499.478ZM225.312 483.535L227.076 483.154C227.279 484.092 227.384 485.032 227.368 485.959C228.795 487.477 230.935 488.744 233.076 489.381L232.279 490.968C230.477 490.355 228.616 489.284 227.151 488.048C226.777 489.956 225.896 491.698 224.517 493.135L222.906 492.225C225.23 489.975 226.05 486.95 225.312 483.535ZM238.592 484.36L238.932 485.937L236.643 486.431L237.546 490.616L235.782 490.997L233.776 481.707L235.54 481.326L236.302 484.854L238.592 484.36ZM235.193 498.549L230.088 499.651C227.442 500.223 225.559 499.234 225.146 497.32C224.728 495.387 226.036 493.71 228.682 493.139L233.787 492.037C236.433 491.465 238.316 492.453 238.733 494.386C239.147 496.301 237.839 497.978 235.193 498.549ZM229.752 498.093L234.857 496.991C236.283 496.683 237.098 495.82 236.875 494.788C236.648 493.737 235.55 493.286 234.123 493.594L229.018 494.697C227.611 495 226.777 495.868 227.004 496.919C227.227 497.951 228.344 498.397 229.752 498.093ZM256.272 491.975L256.612 493.551L242.668 496.562L241.74 492.264L253.732 489.675L253.497 488.586L241.505 491.176L241.165 489.599L254.921 486.629L255.833 490.852L243.84 493.441L244.092 494.605L256.272 491.975ZM239.695 487.068L255.216 483.717L255.556 485.294L240.035 488.645L239.695 487.068ZM243.029 483.677L250.611 482.04C251.493 481.85 252.117 481.283 251.967 480.588C251.813 479.875 251.011 479.616 250.129 479.807L242.546 481.444C241.664 481.634 241.228 482.161 241.382 482.874C241.532 483.568 242.147 483.868 243.029 483.677ZM242.21 479.886L249.792 478.249C251.744 477.828 253.35 478.443 253.731 480.208C254.112 481.972 252.899 483.176 250.947 483.598L243.365 485.235C241.432 485.652 239.999 485.019 239.618 483.255C239.237 481.491 240.277 480.303 242.21 479.886ZM270.335 473.892L273.78 489.845L272.015 490.226L270.877 484.952L268.587 485.446L268.243 483.851L270.532 483.357L269.734 479.659L267.613 480.117L267.269 478.522L269.39 478.064L268.571 474.273L270.335 473.892ZM260.426 476.307L266.076 475.087L266.894 478.878C267.887 483.476 267.27 487.715 264.53 491.311L262.743 490.676C265.579 487.255 265.993 483.256 265.166 479.428L264.656 477.063L260.771 477.902L260.426 476.307ZM277.611 489.214L275.847 489.595L272.346 473.38L274.11 472.999L277.611 489.214ZM289.244 469.731L291.008 469.35L293.358 480.235L291.594 480.616L289.244 469.731ZM293.525 481.005L294.546 485.734L292.782 486.115L292.101 482.962L280.465 485.475L280.125 483.898L293.525 481.005ZM281.504 474.368L283.475 473.943C285.408 473.525 286.97 474.21 287.31 475.786C287.655 477.381 286.514 478.649 284.581 479.066L284.431 479.099L284.654 480.131L289.89 479L290.23 480.577L278.82 483.041L278.479 481.464L282.89 480.512L282.667 479.48L282.611 479.492C280.678 479.909 279.116 479.225 278.771 477.63C278.431 476.053 279.571 474.786 281.504 474.368ZM282.29 478.009L284.261 477.584C285.256 477.369 285.684 476.805 285.546 476.167C285.408 475.529 284.782 475.173 283.787 475.388L281.816 475.813C280.822 476.028 280.398 476.611 280.535 477.249C280.673 477.887 281.296 478.224 282.29 478.009ZM281.136 472.208L280.869 470.97L282.633 470.589L282.9 471.828L287.123 470.916L287.455 472.455L277.377 474.631L277.045 473.092L281.136 472.208ZM296.831 480.271L296.337 477.982C295.765 475.336 297.225 473.547 299.609 473.033C301.992 472.518 304.06 473.545 304.632 476.191L305.126 478.48C305.693 481.108 304.233 482.896 301.85 483.411C299.466 483.926 297.398 482.899 296.831 480.271ZM309.288 473.83L311.051 481.994L309.287 482.375L305.786 466.16L307.55 465.779L308.948 472.254L311.237 471.759L311.578 473.336L309.288 473.83ZM298.101 477.601L298.595 479.891C298.939 481.486 300.008 482.159 301.509 481.834C303.011 481.51 303.706 480.457 303.362 478.861L302.868 476.572C302.523 474.976 301.451 474.285 299.949 474.609C298.448 474.933 297.756 476.006 298.101 477.601ZM303.901 470.259L294.555 472.277L294.211 470.682L297.964 469.872L297.429 467.394L299.193 467.013L299.728 469.491L303.557 468.664L303.901 470.259ZM312.085 473.285L327.606 469.934L327.95 471.529L312.43 474.88L312.085 473.285ZM328.281 476.427L328.621 478.004L314.677 481.015L313.616 476.098L315.38 475.717L316.101 479.057L328.281 476.427ZM312.501 470.936L311.253 465.156L313.017 464.775L313.933 469.017L326.113 466.387L326.446 467.926L312.501 470.936ZM346.361 457.753L346.706 459.348L341.282 460.519C341.143 460.785 341.004 461.051 340.823 461.306C342.731 461.954 345.309 462.066 347.781 461.689L347.315 463.263C344.789 463.572 341.969 463.337 339.856 462.556C338.315 464.244 336.136 465.617 334.083 466.296L332.987 465.04C335.501 464.222 337.788 462.805 339.067 460.997L332.949 462.318L332.605 460.723L346.361 457.753ZM349.596 471.825L349.937 473.402L335.992 476.413L335.072 472.152L347.065 469.563L346.834 468.493L334.842 471.083L334.505 469.525L348.262 466.555L349.165 470.74L337.173 473.329L337.416 474.455L349.596 471.825ZM333.044 467.032L348.564 463.681L348.901 465.238L333.38 468.589L333.044 467.032ZM349.334 457.111L356.747 455.51L357.464 458.832C358.546 463.843 357.006 468.811 353.044 472.201L351.619 471.153C355.305 468.118 356.685 463.774 355.773 459.551L355.327 457.487L349.678 458.706L349.334 457.111ZM362.992 462.235L358.75 463.151L358.41 461.574L362.651 460.659L361.253 454.184L363.018 453.803L366.519 470.018L364.754 470.399L362.992 462.235ZM382.37 460.703L383.545 466.146L369.788 469.116L368.613 463.673L374.525 462.397L374.181 460.802L367.387 462.268L367.047 460.692L382.567 457.341L382.908 458.917L375.945 460.421L376.289 462.016L382.37 460.703ZM381.445 464.969L380.938 462.623L370.71 464.831L371.216 467.177L381.445 464.969ZM377.364 457.168L371.715 458.388C368.9 458.995 367.261 458.23 366.824 456.203C366.423 454.345 367.567 452.821 370.382 452.213L376.031 450.993C378.865 450.382 380.536 451.297 380.937 453.155C381.374 455.182 380.198 456.556 377.364 457.168ZM371.379 456.83L377.028 455.61C378.792 455.229 379.269 454.439 379.079 453.557C378.888 452.675 378.127 452.151 376.363 452.532L370.714 453.752C369.138 454.092 368.472 454.923 368.663 455.806C368.853 456.688 369.614 457.211 371.379 456.83Z" fill="#121212"/>
<rect x="164.28" y="469.261" width="251.384" height="70.0799" rx="35.04" transform="rotate(-12.1835 164.28 469.261)" stroke="#121212" stroke-width="1.68"/>
<path d="M961.971 755.366L961.132 754.821L961.971 755.366ZM946.782 738.766L946.808 739.766L946.782 738.766ZM993.885 760.825C994.117 761.327 994.712 761.544 995.213 761.312C995.714 761.08 995.932 760.486 995.699 759.984L993.885 760.825ZM915.223 688.599C929.071 688.426 948.367 693.179 960.251 703.869C966.165 709.19 970.216 715.951 970.908 724.307C971.601 732.679 968.935 742.792 961.132 754.821L962.81 755.91C970.77 743.639 973.642 733.087 972.901 724.142C972.159 715.181 967.803 707.973 961.588 702.383C949.216 691.253 929.369 686.422 915.198 686.599L915.223 688.599ZM961.132 754.821C952.257 768.502 942.783 774.256 934.728 775.378C926.669 776.502 919.865 773.024 916.164 767.894C912.467 762.772 911.878 756.052 916.145 750.492C920.454 744.877 929.899 740.201 946.808 739.766L946.756 737.766C929.586 738.208 919.402 742.963 914.559 749.274C909.674 755.639 910.409 763.338 914.542 769.064C918.669 774.784 926.198 778.587 935.004 777.359C943.812 776.132 953.732 769.904 962.81 755.91L961.132 754.821ZM946.808 739.766C955.356 739.546 965.936 742.162 975.026 746.215C979.563 748.238 983.696 750.604 986.995 753.125C990.308 755.657 992.71 758.291 993.885 760.825L995.699 759.984C994.331 757.031 991.644 754.16 988.209 751.536C984.76 748.9 980.485 746.459 975.84 744.388C966.566 740.253 955.685 737.537 946.756 737.766L946.808 739.766Z" fill="black"/>
<path d="M293.576 170.304C293.576 172.104 294.92 173.352 296.744 173.352C298.544 173.352 299.888 172.104 299.888 170.304C299.888 168.504 298.544 167.256 296.744 167.256C294.92 167.256 293.576 168.504 293.576 170.304ZM291.32 170.304C291.32 167.376 293.696 165.24 296.744 165.24C299.768 165.24 302.144 167.376 302.144 170.304C302.144 173.232 299.768 175.392 296.744 175.392C293.696 175.392 291.32 173.232 291.32 170.304ZM309.368 165.24V175.464H307.112V165.24H309.368ZM309.824 183.984V185.976H292.448V180.264H307.112V178.488H292.448V176.52H309.368V182.208H294.704V183.984H309.824ZM317.441 165.24H319.697C319.697 166.44 319.577 167.616 319.313 168.744C320.657 170.976 322.937 173.088 325.385 174.432L323.993 176.16C321.953 174.936 319.961 173.136 318.497 171.24C317.537 173.472 316.001 175.368 313.937 176.76L312.209 175.224C315.641 173.088 317.441 169.608 317.441 165.24ZM333.449 169.752V171.768H330.521V177.12H328.265V165.24H330.521V169.752H333.449ZM325.553 186.192H319.025C315.641 186.192 313.601 184.488 313.601 182.04C313.601 179.568 315.641 177.864 319.025 177.864H325.553C328.937 177.864 330.977 179.568 330.977 182.04C330.977 184.488 328.937 186.192 325.553 186.192ZM319.025 184.2H325.553C327.377 184.2 328.601 183.36 328.601 182.04C328.601 180.696 327.377 179.856 325.553 179.856H319.025C317.225 179.856 315.977 180.696 315.977 182.04C315.977 183.36 317.225 184.2 319.025 184.2ZM353.043 183.72V185.736H335.211V180.24H350.547V178.848H335.211V176.832H352.803V182.232H337.467V183.72H353.043ZM334.083 173.352H353.931V175.368H334.083V173.352ZM339.051 170.088H348.747C349.875 170.088 350.787 169.56 350.787 168.672C350.787 167.76 349.875 167.232 348.747 167.232H339.051C337.923 167.232 337.251 167.76 337.251 168.672C337.251 169.56 337.923 170.088 339.051 170.088ZM339.051 165.24H348.747C351.243 165.24 353.043 166.416 353.043 168.672C353.043 170.928 351.243 172.08 348.747 172.08H339.051C336.579 172.08 334.995 170.928 334.995 168.672C334.995 166.416 336.579 165.24 339.051 165.24ZM374.997 165.336V185.736H372.741V178.992H369.813V176.952H372.741V172.224H370.029V170.184H372.741V165.336H374.997ZM362.253 165.672H369.477V170.52C369.477 176.4 367.605 181.416 363.309 185.088L361.293 183.84C365.661 180.408 367.221 175.632 367.221 170.736V167.712H362.253V165.672ZM379.845 185.976H377.589V165.24H379.845V185.976ZM399.198 165.24H401.454V179.16H399.198V165.24ZM401.454 180.144V186.192H399.198V182.16H384.318V180.144H401.454ZM388.518 168.864H391.038C393.51 168.864 395.238 170.112 395.238 172.128C395.238 174.168 393.51 175.416 391.038 175.416H390.846V176.736H397.542V178.752H382.95V176.736H388.59V175.416H388.518C386.046 175.416 384.318 174.168 384.318 172.128C384.318 170.112 386.046 168.864 388.518 168.864ZM388.518 173.52H391.038C392.31 173.52 392.982 172.944 392.982 172.128C392.982 171.312 392.31 170.712 391.038 170.712H388.518C387.246 170.712 386.574 171.312 386.574 172.128C386.574 172.944 387.246 173.52 388.518 173.52ZM388.638 166.128V164.544H390.894V166.128H396.294V168.096H383.406V166.128H388.638ZM405.735 179.976V177.408C405.735 174.024 407.991 172.104 410.991 172.104C413.967 172.104 416.223 174.024 416.223 177.408V179.976C416.223 183.336 413.967 185.232 410.991 185.232C407.991 185.232 405.735 183.336 405.735 179.976ZM407.487 177.408V179.976C407.487 182.328 408.903 183.672 410.991 183.672C413.055 183.672 414.495 182.328 414.495 179.976V177.408C414.495 175.056 413.055 173.688 410.991 173.688C408.903 173.688 407.487 175.056 407.487 177.408ZM422.487 175.32V185.976H420.735V165.24H422.487V173.736H425.535V175.32H422.487ZM416.895 169.416H405.063V167.832H410.055V164.544H411.807V167.832H416.895V169.416ZM426.169 176.016H446.017V177.6H426.169V176.016ZM445.057 184.152V185.736H427.345V179.568H429.097V184.152H445.057ZM427.345 172.776V165.456H429.097V171.216H445.057V172.776H427.345ZM472.075 165.672V167.256H464.851C464.611 167.592 464.371 167.928 464.083 168.264C466.267 169.848 469.435 170.76 472.771 170.976L472.027 172.44C468.667 172.104 465.331 171.024 462.979 169.32C460.747 171.192 457.603 172.44 454.723 172.728C454.435 172.248 454.195 171.768 453.931 171.312C457.435 171 460.939 169.536 462.835 167.256H454.603V165.672H472.075ZM472.315 184.176V185.736H454.603V180.72H470.347V178.824H454.603V177.264H472.075V182.256H456.355V184.176H472.315ZM453.427 173.808H473.275V175.392H453.427V173.808ZM475.996 165.672H485.308V169.872C485.308 176.328 482.044 182.04 476.236 185.016C475.852 184.584 475.468 184.128 475.084 183.72C480.652 180.936 483.532 175.776 483.532 170.088V167.256H475.996V165.672ZM491.668 175.32H485.86V173.736H491.668V165.24H493.42V185.976H491.668V175.32ZM515.293 178.992V185.736H497.821V178.992H505.573V176.52H496.645V174.96H516.493V176.52H507.325V178.992H515.293ZM513.565 184.176V180.552H499.573V184.176H513.565ZM510.349 172.92H502.789C499.477 172.92 497.605 171.576 497.605 169.104C497.605 166.776 499.477 165.312 502.789 165.312H510.349C513.685 165.312 515.533 166.776 515.533 169.104C515.533 171.576 513.685 172.92 510.349 172.92ZM502.789 171.36H510.349C512.677 171.36 513.733 170.496 513.733 169.104C513.733 167.712 512.677 166.848 510.349 166.848H502.789C500.605 166.848 499.405 167.712 499.405 169.104C499.405 170.496 500.485 171.36 502.789 171.36ZM538.103 183.432V185.016H518.255V183.432H538.103ZM530.783 176.928H525.599C521.687 176.928 518.975 174.552 518.975 171.096C518.975 167.664 521.687 165.312 525.599 165.312H530.783C534.647 165.312 537.359 167.664 537.359 171.096C537.359 174.552 534.647 176.928 530.783 176.928ZM525.599 175.344H530.783C533.711 175.344 535.559 173.544 535.559 171.096C535.559 168.696 533.711 166.872 530.783 166.872H525.599C522.647 166.872 520.775 168.696 520.775 171.096C520.775 173.544 522.647 175.344 525.599 175.344ZM558.752 176.472V178.056H541.04V171.048H556.784V167.256H541.04V165.672H558.512V172.632H542.792V176.472H558.752ZM559.712 183.408V184.992H539.864V183.408H548.936V179.352H550.664V183.408H559.712ZM292.04 216.976V214.408C292.04 211.024 294.296 209.104 297.296 209.104C300.272 209.104 302.528 211.024 302.528 214.408V216.976C302.528 220.336 300.272 222.232 297.296 222.232C294.296 222.232 292.04 220.336 292.04 216.976ZM293.792 214.408V216.976C293.792 219.328 295.208 220.672 297.296 220.672C299.36 220.672 300.8 219.328 300.8 216.976V214.408C300.8 212.056 299.36 210.688 297.296 210.688C295.208 210.688 293.792 212.056 293.792 214.408ZM308.792 212.32V222.976H307.04V202.24H308.792V210.736H311.84V212.32H308.792ZM303.2 206.416H291.368V204.832H296.36V201.544H298.112V204.832H303.2V206.416ZM331.361 212.008V213.592H313.649V207.304H329.393V204.256H313.649V202.672H331.121V208.888H315.401V212.008H331.361ZM332.321 216.28V217.864H323.249V223.192H321.521V217.864H312.473V216.28H332.321ZM352.971 221.224V222.736H335.259V218.104H351.003V216.52H335.259V215.008H352.731V219.592H337.011V221.224H352.971ZM352.971 208.864V210.4H335.259V205.768H351.003V204.208H335.259V202.672H352.731V207.28H337.011V208.864H352.971ZM334.083 211.888H353.931V213.424H334.083V211.888ZM374.877 221.992H362.301V202.672H373.629V204.256H364.053V220.408H374.877V221.992ZM377.973 212.584H370.701V211H377.973V202.24H379.725V222.976H377.973V212.584ZM401.678 215.536H395.366C392.222 215.536 389.726 214.192 389.726 211.48C389.726 208.768 392.222 207.424 395.366 207.424H401.678C404.846 207.424 407.318 208.768 407.318 211.48C407.318 214.192 404.846 215.536 401.678 215.536ZM408.446 220.024V222.064H388.598V220.024H393.11V216.448H395.366V220.024H401.678V216.448H403.934V220.024H408.446ZM395.366 213.52H401.678C403.838 213.52 404.966 212.728 404.966 211.48C404.966 210.232 403.838 209.44 401.678 209.44H395.366C393.23 209.44 392.102 210.232 392.102 211.48C392.102 212.728 393.23 213.52 395.366 213.52ZM407.558 205.84H389.51V203.8H397.238V201.544H399.614V203.8H407.558V205.84ZM429.168 220.744V222.736H411.336V217.384H426.672V216.04H411.336V214.048H414.96V212.368H410.208V210.352H430.056V212.368H425.328V214.048H428.928V219.376H413.592V220.744H429.168ZM417.216 214.048H423.072V212.368H417.216V214.048ZM415.176 207.088H424.872C426 207.088 426.912 206.56 426.912 205.672C426.912 204.76 426 204.232 424.872 204.232H415.176C414.048 204.232 413.376 204.76 413.376 205.672C413.376 206.56 414.048 207.088 415.176 207.088ZM415.176 202.24H424.872C427.368 202.24 429.168 203.416 429.168 205.672C429.168 207.928 427.368 209.08 424.872 209.08H415.176C412.704 209.08 411.12 207.928 411.12 205.672C411.12 203.416 412.704 202.24 415.176 202.24ZM432.729 204.712V202.672H443.745V204.712H439.233C439.185 205.624 439.017 206.488 438.801 207.328C440.169 209.512 442.521 211.48 445.017 212.824L443.553 214.504C441.417 213.28 439.401 211.552 437.961 209.728C436.953 211.888 435.465 213.712 433.593 215.104L431.817 213.664C434.769 211.72 436.689 208.648 436.977 204.712H432.729ZM433.185 218.248V216.208H450.321V223.192H448.065V218.248H433.185ZM448.065 207.184V202.24H450.321V215.032H448.065V209.224H443.337V207.184H448.065ZM473.275 220.432V222.016H453.427V220.432H473.275ZM465.955 213.928H460.771C456.859 213.928 454.146 211.552 454.146 208.096C454.146 204.664 456.859 202.312 460.771 202.312H465.955C469.819 202.312 472.531 204.664 472.531 208.096C472.531 211.552 469.819 213.928 465.955 213.928ZM460.771 212.344H465.955C468.883 212.344 470.731 210.544 470.731 208.096C470.731 205.696 468.883 203.872 465.955 203.872H460.771C457.819 203.872 455.947 205.696 455.947 208.096C455.947 210.544 457.819 212.344 460.771 212.344ZM493.924 213.472V215.056H476.212V208.048H491.956V204.256H476.212V202.672H493.684V209.632H477.964V213.472H493.924ZM494.884 220.408V221.992H475.036V220.408H484.108V216.352H485.836V220.408H494.884ZM520.726 221.152V222.736H503.686V216.448H505.462V221.152H520.726ZM517.006 212.824V214.408H502.294V212.824H506.494V207.64H508.198V212.824H517.006ZM523.27 208.696V210.256H520.222V217.912H518.47V202.24H520.222V208.696H523.27ZM514.03 210.904H512.278V204.256H503.254V202.672H514.03V210.904ZM536.551 220.432V222.016H524.863V211.264H533.191V204.256H524.863V202.672H534.967V212.824H526.615V220.432H536.551ZM542.287 202.24V222.976H540.535V202.24H542.287ZM563.896 202.24V222.976H562.144V212.368H558.76V222.736H557.032V202.336H558.76V210.784H562.144V202.24H563.896ZM554.92 213.616V217.984C554.92 220.672 553.288 222.232 550.696 222.232C548.104 222.232 546.472 220.672 546.472 217.984V213.616C546.472 210.928 548.104 209.344 550.696 209.344C553.288 209.344 554.92 210.928 554.92 213.616ZM553.192 217.984V213.616C553.192 211.936 552.28 210.928 550.696 210.928C549.136 210.928 548.224 211.936 548.224 213.616V217.984C548.224 219.64 549.136 220.672 550.696 220.672C552.28 220.672 553.192 219.64 553.192 217.984ZM555.472 204.832V206.416H546.016V204.832H549.832V201.544H551.584V204.832H555.472ZM585.77 202.672V214.936H568.298V202.672H570.05V206.92H584.042V202.672H585.77ZM570.05 213.352H584.042V208.504H570.05V213.352ZM586.97 220.408V221.992H567.122V220.408H576.194V216.136H577.922V220.408H586.97ZM590.147 222.232L588.515 221.56C591.587 215.944 592.283 209.224 592.283 202.456H594.035C594.035 204.64 593.963 206.848 593.747 209.032C594.683 213.088 596.579 217.528 599.291 220.744L597.851 221.776C595.907 219.4 594.299 216.136 593.219 212.968C592.619 216.28 591.659 219.424 590.147 222.232ZM607.115 222.976H605.363V202.24H607.115V222.976ZM602.267 202.336V222.736H600.515V211.48H596.411V209.896H600.515V202.336H602.267ZM622.797 213.472H617.709C613.845 213.472 611.061 211.264 611.061 207.88C611.061 204.496 613.845 202.312 617.709 202.312H622.797C626.709 202.312 629.445 204.496 629.445 207.88C629.445 211.264 626.709 213.472 622.797 213.472ZM617.709 211.888H622.797C625.797 211.888 627.645 210.232 627.645 207.88C627.645 205.504 625.797 203.872 622.797 203.872H617.709C614.733 203.872 612.861 205.504 612.861 207.88C612.861 210.232 614.733 211.888 617.709 211.888ZM630.189 220.432V222.016H610.341V220.432H614.973V214.816H616.701V220.432H623.805V214.816H625.581V220.432H630.189ZM638.63 202H640.382V216.448H638.63V202ZM640.598 222.52H638.414V220.264H640.598V222.52Z" fill="black"/>
<rect x="-0.572295" y="-1.02075" width="295.764" height="69.0357" rx="34.5178" transform="matrix(0.962586 0.270977 -0.270975 0.962586 702.599 268.624)" fill="black"/>
<path d="M734.86 317.791L738.207 305.903L739.918 306.385L736.572 318.273L734.86 317.791ZM722.706 318.319L724.049 313.549L725.76 314.031L724.848 317.272L736.318 320.501L735.887 322.03L722.706 318.319ZM731.285 306.901C731.11 307.383 730.862 307.844 730.583 308.276C731.157 310.147 732.576 312.157 734.09 313.409L732.665 314.423C731.405 313.243 730.146 311.434 729.415 309.774C727.999 311.242 726.156 312.276 724.388 312.623L723.437 311.117C726.067 310.639 728.608 308.801 729.573 306.42L725.805 305.359L726.24 303.811L729.918 304.846L730.4 303.135L732.111 303.617L731.629 305.328L735.325 306.369L734.889 307.916L731.285 306.901ZM754.066 319.602L752.355 319.121L754.236 312.439L742.602 309.164L743.038 307.616L756.383 311.373L754.066 319.602ZM754.589 321.027L754.153 322.574L747.49 320.698L746.193 325.304L744.482 324.823L745.778 320.216L739.097 318.336L739.532 316.788L754.589 321.027ZM767.175 318.852C766.452 321.419 764.049 322.766 761.3 321.992C758.569 321.224 757.203 318.815 757.926 316.248C758.649 313.681 761.07 312.339 763.801 313.108C766.55 313.882 767.898 316.285 767.175 318.852ZM770.159 323.327L767.93 331.247L766.218 330.765L770.647 315.035L772.358 315.517L770.59 321.798L772.811 322.423L772.38 323.952L770.159 323.327ZM765.463 318.37C765.92 316.75 765.173 315.144 763.371 314.637C761.568 314.13 760.094 315.11 759.638 316.73C759.181 318.35 759.928 319.956 761.73 320.463C763.533 320.97 765.007 319.99 765.463 318.37ZM765.593 328.172L765.157 329.719L754.433 326.701L754.869 325.153L759.111 326.347L760.167 322.597L761.878 323.079L760.823 326.829L765.593 328.172ZM790.196 331.424L788.659 336.886L776.005 333.324L777.543 327.862L790.196 331.424ZM781.931 327.977L781.258 327.787C779.2 327.208 777.991 325.571 778.499 323.769C779.001 321.984 780.887 321.218 782.944 321.798L783.618 321.987C785.675 322.566 786.884 324.204 786.382 325.988C785.875 327.79 783.989 328.556 781.931 327.977ZM778.142 332.294L787.373 334.893L788.059 332.453L778.829 329.855L778.142 332.294ZM794.175 325.804L793.74 327.352L791.518 326.727L790.401 330.695L788.69 330.214L791.324 320.856L793.036 321.337L791.954 325.179L794.175 325.804ZM788.698 321.04L788.278 322.533L778.865 319.883L779.286 318.39L783.036 319.446L783.426 318.062L785.137 318.544L784.748 319.928L788.698 321.04ZM781.668 326.331L782.341 326.521C783.379 326.813 784.404 326.453 784.671 325.506C784.932 324.578 784.256 323.699 783.218 323.407L782.544 323.218C781.506 322.926 780.471 323.322 780.21 324.25C779.943 325.197 780.63 326.039 781.668 326.331ZM805.346 341.78L803.635 341.298L808.063 325.568L809.774 326.05L805.346 341.78ZM800.251 323.722L803.346 324.594L801.957 329.528C801.86 329.873 801.757 330.238 801.642 330.578L803.116 330.994L804.874 324.749L806.586 325.231L802.229 340.706L800.518 340.224L802.681 332.541L801.133 332.105C800.205 334.634 798.872 337.069 796.732 338.805L795.289 337.652C797.949 335.669 799.328 332.305 800.23 329.1L801.199 325.659L799.815 325.27L800.251 323.722ZM796.337 322.62L799.76 323.584L798.514 328.008C797.561 331.394 796.107 334.954 793.216 337.265L791.791 336.117C794.438 334.111 795.885 330.785 796.787 327.581L797.613 324.65L795.901 324.168L796.337 322.62ZM822.209 346.704L816.729 345.161C814.162 344.438 812.971 342.806 813.493 340.949C814.026 339.056 815.894 338.285 818.461 339.007L823.941 340.55C826.508 341.273 827.717 342.91 827.184 344.803C826.662 346.66 824.776 347.426 822.209 346.704ZM817.164 343.613L822.644 345.156C824.192 345.592 825.126 345.206 825.382 344.296C825.649 343.349 825.053 342.533 823.505 342.097L818.025 340.555C816.66 340.17 815.544 340.505 815.278 341.451C815.021 342.362 815.635 343.183 817.164 343.613ZM821.73 336.607L829.595 338.821L829.16 340.368L814.103 336.13L814.539 334.582L820.019 336.125L820.813 333.303L822.525 333.785L821.73 336.607ZM829.027 337.561L827.315 337.079L828.376 333.31L816.743 330.035L817.178 328.488L830.523 332.244L829.027 337.561ZM840.398 342.982L835.956 341.731C833.116 340.932 831.585 338.831 832.236 336.519C832.887 334.206 835.284 333.231 838.124 334.03L842.566 335.281C845.388 336.075 846.924 338.158 846.273 340.47C845.622 342.782 843.22 343.776 840.398 342.982ZM836.391 340.184L840.834 341.434C842.636 341.942 844.06 341.419 844.47 339.963C844.88 338.506 843.938 337.317 842.136 336.81L837.693 335.56C835.891 335.052 834.448 335.57 834.038 337.026C833.628 338.483 834.589 339.677 836.391 340.184ZM845.071 346.695L844.64 348.224L841.054 347.214L839.803 351.657L838.092 351.175L839.342 346.732L834.9 345.482L833.649 349.924L831.938 349.442L833.189 345L829.584 343.985L830.014 342.456L845.071 346.695ZM846.878 348.677L847.504 346.456C848.226 343.889 850.322 343.005 852.634 343.656C854.946 344.307 856.273 346.154 855.551 348.721L854.925 350.942C854.208 353.491 852.112 354.375 849.8 353.724C847.488 353.073 846.161 351.226 846.878 348.677ZM860.693 348.813L858.463 356.733L856.752 356.251L861.18 340.521L862.891 341.002L861.123 347.284L863.344 347.909L862.914 349.438L860.693 348.813ZM849.215 346.938L848.59 349.159C848.154 350.706 848.774 351.785 850.23 352.195C851.687 352.605 852.778 352.008 853.214 350.461L853.839 348.239C854.275 346.692 853.66 345.595 852.204 345.185C850.747 344.775 849.651 345.39 849.215 346.938ZM857.649 343.221L848.583 340.668L849.018 339.121L852.659 340.146L853.336 337.743L855.047 338.225L854.371 340.628L858.085 341.673L857.649 343.221ZM876.57 357.212L874.859 356.731L877.554 347.154L865.921 343.879L866.356 342.332L879.702 346.088L876.57 357.212ZM876.852 359.492L876.416 361.04L861.359 356.801L861.795 355.254L867.275 356.797L869.31 349.569L871.021 350.05L868.987 357.278L876.852 359.492ZM890.039 348.645L891.751 349.127C891.489 350.055 891.129 350.917 890.669 351.711C891.194 353.548 892.44 355.471 894.005 356.894L892.611 357.936C891.408 356.693 890.22 354.983 889.52 353.352C888.327 354.726 886.806 355.732 885.018 356.29L884.036 354.755C887.098 353.928 889.153 351.795 890.039 348.645ZM896.157 359.72L898.596 351.054L900.307 351.535L897.868 360.202L896.157 359.72ZM884.301 358.839L884.731 357.309L897.749 360.974L897.318 362.503L884.301 358.839ZM882.84 363.399L883.271 361.869L886.002 362.638L886.673 360.253L888.385 360.735L887.713 363.12L891.755 364.258L893.227 362.098L894.975 362.59L893.503 364.75L896.616 365.626L896.185 367.155L882.84 363.399ZM913.1 370.266L912.669 371.796L899.142 367.988L900.295 363.891L902.007 364.373L901.284 366.94L913.1 370.266ZM900.306 360.574L915.362 364.812L914.927 366.36L899.87 362.121L900.306 360.574ZM910.841 361.889L905.706 360.443C902.957 359.669 901.766 358.037 902.391 355.816C902.971 353.759 904.884 352.824 907.633 353.598L912.768 355.043C915.499 355.812 916.662 357.613 916.083 359.67C915.457 361.892 913.572 362.657 910.841 361.889ZM906.142 358.896L911.276 360.341C912.988 360.823 913.876 360.248 914.189 359.137C914.502 358.027 914.049 357.054 912.337 356.572L907.203 355.127C905.655 354.692 904.579 355.234 904.267 356.344C903.954 357.455 904.431 358.414 906.142 358.896ZM924.317 362.44C923.932 363.806 924.685 365.039 926.069 365.429C927.434 365.813 928.721 365.154 929.105 363.788C929.489 362.423 928.736 361.189 927.371 360.805C925.987 360.415 924.701 361.075 924.317 362.44ZM922.605 361.958C923.231 359.737 925.489 358.624 927.801 359.275C930.095 359.921 931.442 362.049 930.816 364.27C930.191 366.491 927.927 367.622 925.633 366.976C923.321 366.326 921.98 364.18 922.605 361.958ZM937.378 361.971L935.194 369.727L933.483 369.245L935.666 361.489L937.378 361.971ZM933.721 376.288L933.296 377.799L920.114 374.088L921.334 369.755L932.458 372.886L932.837 371.539L921.713 368.408L922.134 366.915L934.969 370.528L933.754 374.843L922.63 371.711L922.251 373.059L933.721 376.288ZM938.477 372.262L937.437 370.791C940.108 370.029 942.073 368.421 943.12 365.611L939.897 364.704L940.333 363.157L948.69 365.509L948.254 367.057L944.831 366.093C944.636 366.647 944.391 367.168 944.133 367.665C944.707 369.536 945.904 371.425 947.466 372.926L945.997 373.888C944.688 372.537 943.642 370.946 942.96 369.319C941.786 370.698 940.252 371.681 938.477 372.262ZM945.71 381.47L940.23 379.928C937.662 379.205 936.661 377.528 937.137 375.835C937.619 374.123 939.343 373.233 941.911 373.956L947.391 375.499C949.958 376.221 950.964 377.88 950.483 379.591C950.006 381.285 948.277 382.193 945.71 381.47ZM940.655 378.416L946.135 379.959C947.5 380.343 948.419 380.013 948.68 379.084C948.942 378.156 948.331 377.394 946.965 377.01L941.485 375.467C940.12 375.083 939.183 375.408 938.922 376.337C938.66 377.265 939.289 378.032 940.655 378.416ZM952.059 366.104L953.77 366.586L951.136 375.944L949.425 375.462L950.614 371.238L947.027 370.229L947.463 368.681L951.049 369.691L952.059 366.104Z" fill="#121212"/>
<rect x="-0.572295" y="-1.02075" width="295.764" height="69.0357" rx="34.5178" transform="matrix(0.962586 0.270977 -0.270975 0.962586 702.599 268.624)" stroke="#121212" stroke-width="1.65496"/>
<rect x="-0.572295" y="-1.02075" width="302.897" height="69.0357" rx="34.5178" transform="matrix(0.962586 0.270977 -0.270975 0.962586 694.241 258.251)" fill="white"/>
<path d="M726.564 307.427L729.925 295.484L731.645 295.968L728.283 307.911L726.564 307.427ZM714.354 307.958L715.703 303.166L717.422 303.65L716.506 306.905L728.028 310.149L727.595 311.685L714.354 307.958ZM722.971 296.488C722.796 296.971 722.547 297.434 722.267 297.868C722.843 299.748 724.268 301.767 725.789 303.025L724.358 304.043C723.093 302.858 721.828 301.041 721.093 299.374C719.671 300.848 717.82 301.887 716.044 302.235L715.088 300.723C717.73 300.243 720.283 298.395 721.252 296.004L717.466 294.938L717.904 293.383L721.598 294.423L722.082 292.704L723.802 293.188L723.318 294.907L727.03 295.952L726.593 297.507L722.971 296.488ZM745.857 309.246L744.138 308.762L746.027 302.05L734.34 298.76L734.778 297.206L748.184 300.98L745.857 309.246ZM746.382 310.677L745.944 312.232L739.25 310.347L737.948 314.974L736.229 314.49L737.531 309.863L730.819 307.974L731.257 306.419L746.382 310.677ZM759.025 308.492C758.299 311.071 755.885 312.425 753.124 311.647C750.38 310.875 749.008 308.456 749.734 305.877C750.46 303.298 752.893 301.95 755.636 302.722C758.398 303.5 759.751 305.914 759.025 308.492ZM762.023 312.988L759.784 320.944L758.064 320.46L762.513 304.658L764.232 305.142L762.456 311.452L764.687 312.08L764.254 313.616L762.023 312.988ZM757.306 308.008C757.764 306.381 757.014 304.768 755.204 304.258C753.393 303.749 751.912 304.733 751.454 306.361C750.995 307.989 751.745 309.601 753.556 310.111C755.367 310.621 756.848 309.636 757.306 308.008ZM757.436 317.855L756.998 319.41L746.226 316.377L746.663 314.822L750.925 316.022L751.985 312.255L753.705 312.739L752.644 316.506L757.436 317.855ZM782.151 321.122L780.607 326.608L767.896 323.03L769.44 317.543L782.151 321.122ZM773.849 317.659L773.172 317.469C771.106 316.887 769.891 315.242 770.4 313.432C770.905 311.639 772.799 310.87 774.866 311.452L775.543 311.642C777.609 312.224 778.824 313.869 778.32 315.661C777.81 317.472 775.916 318.241 773.849 317.659ZM770.042 321.996L779.315 324.606L780.005 322.156L770.732 319.545L770.042 321.996ZM786.149 315.477L785.711 317.031L783.48 316.403L782.357 320.39L780.638 319.906L783.284 310.505L785.004 310.989L783.917 314.848L786.149 315.477ZM780.647 310.691L780.224 312.19L770.769 309.528L771.191 308.029L774.959 309.089L775.35 307.699L777.069 308.183L776.678 309.573L780.647 310.691ZM773.584 316.006L774.261 316.196C775.303 316.49 776.333 316.128 776.601 315.177C776.863 314.244 776.184 313.362 775.141 313.069L774.465 312.878C773.422 312.585 772.382 312.983 772.12 313.916C771.852 314.867 772.542 315.712 773.584 316.006ZM797.37 331.525L795.651 331.041L800.099 315.239L801.819 315.723L797.37 331.525ZM792.252 313.385L795.361 314.26L793.966 319.217C793.868 319.564 793.765 319.93 793.649 320.272L795.13 320.689L796.896 314.416L798.616 314.9L794.239 330.446L792.52 329.962L794.693 322.244L793.138 321.806C792.206 324.347 790.866 326.792 788.717 328.536L787.267 327.378C789.939 325.387 791.325 322.007 792.231 318.788L793.204 315.331L791.814 314.94L792.252 313.385ZM788.32 312.278L791.758 313.246L790.507 317.69C789.55 321.092 788.089 324.668 785.185 326.989L783.753 325.836C786.413 323.821 787.866 320.48 788.773 317.261L789.601 314.317L787.882 313.833L788.32 312.278ZM814.31 336.471L808.805 334.921C806.226 334.195 805.029 332.556 805.555 330.69C806.09 328.788 807.966 328.014 810.545 328.74L816.05 330.289C818.629 331.015 819.843 332.66 819.308 334.562C818.783 336.428 816.888 337.197 814.31 336.471ZM809.242 333.367L814.747 334.916C816.302 335.354 817.24 334.967 817.497 334.052C817.765 333.101 817.167 332.282 815.612 331.844L810.107 330.294C808.736 329.908 807.615 330.244 807.347 331.195C807.089 332.109 807.706 332.934 809.242 333.367ZM813.829 326.328L821.73 328.553L821.292 330.107L806.167 325.849L806.605 324.295L812.11 325.844L812.908 323.01L814.627 323.494L813.829 326.328ZM821.159 327.286L819.44 326.802L820.505 323.017L808.819 319.727L809.256 318.172L822.662 321.946L821.159 327.286ZM832.582 332.732L828.119 331.476C825.266 330.673 823.729 328.562 824.382 326.24C825.036 323.917 827.444 322.937 830.297 323.74L834.76 324.996C837.594 325.794 839.137 327.887 838.483 330.209C837.829 332.532 835.417 333.53 832.582 332.732ZM828.557 329.922L833.019 331.178C834.83 331.688 836.261 331.163 836.673 329.7C837.085 328.236 836.138 327.042 834.327 326.532L829.865 325.276C828.054 324.766 826.605 325.286 826.193 326.749C825.781 328.213 826.746 329.412 828.557 329.922ZM837.276 336.462L836.843 337.998L833.24 336.984L831.984 341.447L830.265 340.963L831.521 336.5L827.059 335.244L825.802 339.706L824.083 339.222L825.34 334.76L821.718 333.74L822.151 332.204L837.276 336.462ZM839.092 338.453L839.72 336.222C840.446 333.643 842.551 332.756 844.874 333.41C847.196 334.063 848.529 335.919 847.803 338.498L847.175 340.729C846.455 343.29 844.349 344.177 842.027 343.523C839.704 342.87 838.371 341.014 839.092 338.453ZM852.969 338.59L850.729 346.546L849.01 346.062L853.458 330.26L855.177 330.744L853.401 337.054L855.633 337.682L855.2 339.218L852.969 338.59ZM841.439 336.706L840.811 338.937C840.373 340.492 840.996 341.575 842.459 341.987C843.922 342.399 845.019 341.8 845.456 340.245L846.084 338.014C846.522 336.459 845.904 335.358 844.441 334.946C842.978 334.534 841.876 335.152 841.439 336.706ZM849.912 332.972L840.804 330.408L841.241 328.854L844.899 329.884L845.579 327.469L847.298 327.953L846.618 330.368L850.349 331.418L849.912 332.972ZM868.919 347.028L867.199 346.544L869.907 336.924L858.221 333.634L858.658 332.079L872.064 335.853L868.919 347.028ZM869.201 349.318L868.764 350.873L853.639 346.615L854.076 345.06L859.581 346.61L861.625 339.349L863.345 339.833L861.301 347.094L869.201 349.318ZM882.449 338.421L884.168 338.905C883.906 339.838 883.544 340.703 883.082 341.501C883.609 343.347 884.861 345.278 886.433 346.708L885.033 347.754C883.825 346.506 882.63 344.789 881.927 343.15C880.729 344.53 879.201 345.54 877.405 346.101L876.418 344.56C879.494 343.728 881.558 341.585 882.449 338.421ZM888.594 349.547L891.045 340.841L892.764 341.325L890.313 350.031L888.594 349.547ZM876.685 348.661L877.117 347.125L890.194 350.806L889.761 352.342L876.685 348.661ZM875.217 353.242L875.65 351.706L878.393 352.478L879.068 350.082L880.787 350.566L880.112 352.962L884.173 354.105L885.652 351.936L887.407 352.43L885.928 354.599L889.056 355.48L888.623 357.016L875.217 353.242ZM905.615 360.141L905.182 361.677L891.593 357.852L892.752 353.737L894.471 354.221L893.745 356.8L905.615 360.141ZM892.762 350.404L907.887 354.662L907.45 356.217L892.325 351.959L892.762 350.404ZM903.345 351.725L898.188 350.273C895.426 349.496 894.229 347.856 894.858 345.625C895.439 343.558 897.362 342.619 900.123 343.397L905.281 344.849C908.024 345.621 909.193 347.43 908.611 349.497C907.983 351.728 906.089 352.498 903.345 351.725ZM898.625 348.719L903.783 350.171C905.502 350.655 906.395 350.077 906.709 348.961C907.023 347.846 906.568 346.869 904.849 346.385L899.691 344.933C898.136 344.495 897.055 345.04 896.741 346.155C896.427 347.271 896.906 348.235 898.625 348.719ZM916.883 352.279C916.496 353.651 917.253 354.89 918.643 355.282C920.015 355.668 921.306 355.005 921.693 353.633C922.079 352.262 921.322 351.022 919.951 350.636C918.561 350.245 917.269 350.908 916.883 352.279ZM915.163 351.795C915.792 349.564 918.06 348.446 920.383 349.1C922.688 349.749 924.04 351.886 923.412 354.117C922.784 356.349 920.51 357.485 918.205 356.836C915.883 356.182 914.535 354.027 915.163 351.795ZM930.003 351.808L927.81 359.599L926.091 359.115L928.284 351.324L930.003 351.808ZM926.33 366.19L925.902 367.708L912.661 363.98L913.886 359.627L925.061 362.773L925.442 361.42L914.267 358.274L914.69 356.774L927.583 360.404L926.363 364.739L915.189 361.593L914.808 362.946L926.33 366.19ZM931.108 362.146L930.063 360.668C932.746 359.903 934.72 358.288 935.771 355.465L932.534 354.554L932.972 352.999L941.367 355.362L940.929 356.917L937.491 355.949C937.294 356.506 937.049 357.029 936.79 357.528C937.366 359.408 938.569 361.305 940.138 362.813L938.662 363.779C937.346 362.422 936.296 360.824 935.611 359.19C934.432 360.575 932.89 361.562 931.108 362.146ZM938.373 371.396L932.868 369.846C930.289 369.12 929.283 367.436 929.762 365.735C930.246 364.016 931.978 363.121 934.557 363.847L940.062 365.397C942.64 366.123 943.652 367.789 943.168 369.509C942.689 371.21 940.952 372.122 938.373 371.396ZM933.295 368.328L938.8 369.878C940.172 370.264 941.095 369.932 941.357 368.999C941.62 368.066 941.006 367.301 939.634 366.915L934.129 365.365C932.758 364.979 931.817 365.307 931.554 366.239C931.292 367.172 931.924 367.942 933.295 368.328ZM944.751 355.96L946.471 356.444L943.824 365.844L942.105 365.36L943.299 361.117L939.697 360.103L940.134 358.549L943.737 359.563L944.751 355.96Z" fill="#121212"/>
<rect x="-0.572295" y="-1.02075" width="302.897" height="69.0357" rx="34.5178" transform="matrix(0.962586 0.270977 -0.270975 0.962586 694.241 258.251)" stroke="#121212" stroke-width="1.65496"/>
<path d="M190.933 701.904C188.121 691.762 187.912 670.459 209.566 666.39C236.633 661.303 242.952 687.108 235.675 691.935C225.597 698.621 203.392 687.34 216.739 657.235C225.951 636.459 257.671 651.955 255.639 661.343C253.608 670.73 237.688 662.585 239.803 641.854C240.849 631.606 253.698 627.126 260.399 630.494" stroke="black" stroke-width="2" stroke-linecap="round"/>
<g filter="url(#filter0_d_1138_10478)">
<path d="M1044.5 630C1059.3 604.4 1064.83 540.5 1066 505.5L948 492C948.5 496.5 948.5 512.5 944.5 540.5C940.5 568.5 925.833 599.5 919 611.5L1044.5 630Z" fill="#FFEBF5"/>
<path d="M1044.4 630.693C1044.68 630.734 1044.96 630.599 1045.11 630.35C1052.58 617.421 1057.68 594.921 1061.06 571.374C1064.44 547.793 1066.12 523.042 1066.7 505.523C1066.71 505.159 1066.44 504.846 1066.08 504.805L948.08 491.305C947.868 491.28 947.657 491.354 947.506 491.504C947.355 491.655 947.281 491.866 947.304 492.077C947.794 496.488 947.805 512.418 943.807 540.401C939.825 568.276 925.205 599.188 918.392 611.154C918.277 611.354 918.269 611.599 918.371 611.807C918.472 612.014 918.669 612.159 918.898 612.193L1044.4 630.693Z" stroke="black" stroke-width="1.4" stroke-linejoin="round"/>
</g>
<g filter="url(#filter1_d_1138_10478)">
<circle cx="970" cy="516" r="12" fill="#F19ABE"/>
<circle cx="970" cy="516" r="12.7" stroke="black" stroke-width="1.4" stroke-linejoin="round"/>
</g>
<g filter="url(#filter2_d_1138_10478)">
<path d="M264.38 579.43C271.997 576.677 276.342 586.134 277.563 591.207C278.127 588.771 287.355 575.511 293.606 586.196C298.606 594.745 282.561 606.563 273.913 611.404C262.452 601.052 254.858 582.87 264.38 579.43Z" fill="#F65A4E"/>
<path d="M273.242 612.146C273.561 612.434 274.027 612.486 274.401 612.277C278.775 609.829 285.038 605.608 289.597 600.885C291.873 598.527 293.781 595.986 294.785 593.426C295.8 590.839 295.914 588.162 294.469 585.691C292.807 582.851 290.826 581.41 288.666 581.137C286.554 580.87 284.541 581.759 282.866 582.971C281.177 584.192 279.704 585.829 278.622 587.302C278.319 587.715 278.043 588.119 277.799 588.503C277.014 586.274 275.803 583.76 274.141 581.747C272.975 580.335 271.548 579.122 269.842 578.462C268.113 577.794 266.164 577.721 264.04 578.489C261.287 579.484 259.764 581.581 259.258 584.234C258.765 586.824 259.233 589.932 260.332 593.148C262.533 599.594 267.399 606.868 273.242 612.146Z" stroke="black" stroke-width="2" stroke-linecap="round" stroke-linejoin="round"/>
</g>
<g filter="url(#filter3_d_1138_10478)">
<path d="M1018.52 786.549C1024.04 780.622 1032.22 787.052 1035.63 791.008C1035.02 788.583 1037.17 772.573 1047.61 779.226C1055.96 784.548 1047.08 802.389 1041.6 810.644C1026.68 806.666 1011.62 793.957 1018.52 786.549Z" fill="#FFA8DB"/>
<path d="M1041.34 811.611C1041.76 811.721 1042.19 811.555 1042.43 811.198C1045.21 807.023 1048.85 800.408 1050.75 794.125C1051.7 790.987 1052.24 787.856 1051.96 785.12C1051.68 782.355 1050.56 779.921 1048.15 778.383C1045.37 776.615 1042.95 776.236 1040.91 776.98C1038.91 777.707 1037.52 779.417 1036.58 781.26C1035.64 783.117 1035.08 785.246 1034.79 787.05C1034.7 787.556 1034.64 788.042 1034.6 788.495C1032.88 786.87 1030.66 785.186 1028.26 784.154C1026.58 783.43 1024.76 783.002 1022.94 783.194C1021.09 783.389 1019.33 784.214 1017.79 785.867C1015.79 788.009 1015.4 790.571 1016.16 793.162C1016.9 795.691 1018.74 798.242 1021.18 800.602C1026.08 805.333 1033.73 809.582 1041.34 811.611Z" stroke="black" stroke-width="2" stroke-linecap="round" stroke-linejoin="round"/>
</g>
<g filter="url(#filter4_d_1138_10478)">
<path d="M216.94 152C203.691 152 199.152 167.543 198.539 175.314C195.228 173.834 180.723 172.724 175.722 184.936C169.539 200.034 181.487 206.523 188.234 207.88C184.431 211.95 180.507 226.013 190.81 232.674C203.438 240.838 213.874 230.7 218.413 223.422C222.216 230.453 232.692 242.147 244.175 232.674C255.657 223.2 248.959 210.223 244.175 204.919C249.45 203.562 260 197.666 260 184.936C260 172.205 243.316 170.01 234.974 170.503C234.483 164.335 230.19 152 216.94 152Z" fill="#4DD9FC"/>
<path d="M216.94 152C203.691 152 199.152 167.543 198.539 175.314C195.228 173.834 180.723 172.724 175.722 184.936C169.539 200.034 181.487 206.523 188.234 207.88C184.431 211.95 180.507 226.013 190.81 232.674C203.438 240.838 213.874 230.7 218.413 223.422C222.216 230.453 232.692 242.147 244.175 232.674C255.657 223.2 248.959 210.223 244.175 204.919C249.45 203.562 260 197.666 260 184.936C260 172.205 243.316 170.01 234.974 170.503C234.483 164.335 230.19 152 216.94 152Z" stroke="black" stroke-width="2" stroke-linecap="round" stroke-linejoin="round"/>
</g>
<path d="M233.492 179.371L233.379 178.377L232.385 178.491L224.603 179.379L223.609 179.493L223.723 180.486L227.109 210.141L227.222 211.134L228.216 211.021L235.998 210.132L236.991 210.019L236.878 209.025L233.492 179.371Z" fill="white" stroke="#121212" stroke-width="2"/>
<path d="M203.263 215.387L203.555 216.343L204.511 216.052L213.638 213.27C217.253 212.169 219.896 210.35 221.416 208.034C222.949 205.699 223.274 202.959 222.421 200.197C221.867 198.344 221.005 196.692 219.511 195.652C218.724 195.104 217.812 194.761 216.766 194.622C218.599 192.853 219.444 190.377 218.611 187.694C216.953 182.182 210.755 179.993 204.192 181.994L194.987 184.799L194.03 185.091L194.322 186.047L196.088 191.844L196.38 192.801L197.337 192.509L206.542 189.704C207.357 189.455 208.049 189.514 208.551 189.739C209.039 189.958 209.41 190.36 209.583 190.952L209.586 190.963L209.59 190.973C209.77 191.541 209.671 192.111 209.294 192.639C208.904 193.184 208.197 193.702 207.166 194.016L198.592 196.629L197.636 196.921L197.927 197.878L199.514 203.083L199.805 204.039L200.762 203.748L209.332 201.136C210.502 200.79 211.488 200.807 212.191 201.04C212.872 201.265 213.285 201.685 213.454 202.239C213.644 202.862 213.544 203.449 213.201 203.96C212.849 204.487 212.203 204.98 211.243 205.272L202.077 208.065L201.121 208.357L201.412 209.314L203.263 215.387Z" fill="white" stroke="#121212" stroke-width="2"/>
<circle cx="697.004" cy="274.393" r="18.43" transform="rotate(-12.9631 697.004 274.393)" fill="white" stroke="#121212" stroke-width="1.81864"/>
<circle cx="703.65" cy="272.863" r="9.49326" transform="rotate(-12.9631 703.65 272.863)" fill="#121212" stroke="#121212" stroke-width="1.81864"/>
<circle cx="733.445" cy="266.005" r="18.43" transform="rotate(-12.9631 733.445 266.005)" fill="white" stroke="#121212" stroke-width="1.81864"/>
<circle cx="740.092" cy="264.475" r="9.49326" transform="rotate(-12.9631 740.092 264.475)" fill="#121212" stroke="#121212" stroke-width="1.81864"/>
<rect x="648.148" y="907" width="125.283" height="35.5279" rx="9.45389" transform="rotate(13.2594 648.148 907)" fill="#1B1B1B"/>
<path d="M674.634 922.615L660.799 919.355L660.178 921.988L670.659 924.457C670.284 926.002 669.797 927.74 668.863 929.88L656.971 927.078L656.341 929.753L663.342 931.403L661.589 938.843L664.975 939.64L666.728 932.2L673.98 933.909L674.61 931.234L672.228 930.673C673.326 928.119 673.786 926.165 674.22 924.37L674.634 922.615ZM693.116 935.551L685.968 933.867L686.278 932.55L691.587 933.801L692.212 931.147L681.825 928.699L682.259 926.86L692.457 929.263L693.068 926.672L679.546 923.485L677.877 930.57L682.893 931.752L682.582 933.069L675.477 931.394L674.856 934.028L692.495 938.184L693.116 935.551ZM675.974 938.085L686.277 940.513L685.351 944.442L688.653 945.22L690.195 938.679L676.589 935.473L675.974 938.085ZM709.075 930.73L701.364 928.913L700.738 931.567L705.127 932.602C705.036 932.801 704.937 932.987 704.838 933.173L699.799 932.184L699.564 934.864L702.657 935.218C701.639 935.75 700.308 936.109 698.589 936.289L699.478 938.881C705.094 938.263 707.901 935.715 709.075 930.73ZM699.523 947.583L713.567 950.892L714.173 948.322L703.473 945.8L703.625 945.152L713.761 947.541L715.066 942.003L701.587 938.826L700.986 941.376L711.143 943.769L711 944.375L700.843 941.982L699.523 947.583ZM707.763 939.576L710.898 940.315L711.691 936.95L712.84 937.221L712.023 940.69L715.199 941.438L717.509 931.637L714.332 930.888L713.466 934.566L712.316 934.296L713.109 930.931L709.974 930.192L707.763 939.576ZM735.566 935.892L732.222 935.104L728.868 949.336L732.212 950.124L735.566 935.892ZM719.387 936.116L725.114 937.466L724.769 938.929L719.063 937.584L717.497 944.23L719.274 944.649C723.605 945.691 726.073 946.173 728.779 946.249L729.029 943.506C726.744 943.464 724.747 943.093 721.43 942.333L721.794 940.787L727.5 942.131L729.036 935.61L720.008 933.483L719.387 936.116ZM717.897 951.802L731.565 955.023L732.195 952.348L721.871 949.915L722.659 946.571L719.315 945.783L717.897 951.802ZM747.062 940.277L738.284 938.209L735.182 951.375L736.812 951.759C740.276 952.598 742.616 953.061 745.263 953.155L745.559 950.401C743.492 950.278 741.631 949.983 739.21 949.446L741.035 941.703L746.427 942.973L747.062 940.277ZM744.464 947.651L748.79 948.67L746.387 958.869L749.731 959.657L754.301 940.262L750.957 939.474L749.43 945.953L745.104 944.934L744.464 947.651Z" fill="white"/>
<defs>
<filter id="filter0_d_1138_10478" x="917.6" y="490.6" width="151.8" height="142.8" filterUnits="userSpaceOnUse" color-interpolation-filters="sRGB">
<feFlood flood-opacity="0" result="BackgroundImageFix"/>
<feColorMatrix in="SourceAlpha" type="matrix" values="0 0 0 0 0 0 0 0 0 0 0 0 0 0 0 0 0 0 127 0" result="hardAlpha"/>
<feOffset dx="2" dy="2"/>
<feColorMatrix type="matrix" values="0 0 0 0 0 0 0 0 0 0 0 0 0 0 0 0 0 0 1 0"/>
<feBlend mode="normal" in2="BackgroundImageFix" result="effect1_dropShadow_1138_10478"/>
<feBlend mode="normal" in="SourceGraphic" in2="effect1_dropShadow_1138_10478" result="shape"/>
</filter>
<filter id="filter1_d_1138_10478" x="956.6" y="502.6" width="27.8909" height="27.891" filterUnits="userSpaceOnUse" color-interpolation-filters="sRGB">
<feFlood flood-opacity="0" result="BackgroundImageFix"/>
<feColorMatrix in="SourceAlpha" type="matrix" values="0 0 0 0 0 0 0 0 0 0 0 0 0 0 0 0 0 0 127 0" result="hardAlpha"/>
<feOffset dx="1.09091" dy="1.09091"/>
<feColorMatrix type="matrix" values="0 0 0 0 0 0 0 0 0 0 0 0 0 0 0 0 0 0 1 0"/>
<feBlend mode="normal" in2="BackgroundImageFix" result="effect1_dropShadow_1138_10478"/>
<feBlend mode="normal" in="SourceGraphic" in2="effect1_dropShadow_1138_10478" result="shape"/>
</filter>
<filter id="filter2_d_1138_10478" x="258.062" y="576.937" width="39.4888" height="37.4673" filterUnits="userSpaceOnUse" color-interpolation-filters="sRGB">
<feFlood flood-opacity="0" result="BackgroundImageFix"/>
<feColorMatrix in="SourceAlpha" type="matrix" values="0 0 0 0 0 0 0 0 0 0 0 0 0 0 0 0 0 0 127 0" result="hardAlpha"/>
<feOffset dx="1" dy="1"/>
<feColorMatrix type="matrix" values="0 0 0 0 0 0 0 0 0 0 0 0 0 0 0 0 0 0 1 0"/>
<feBlend mode="normal" in2="BackgroundImageFix" result="effect1_dropShadow_1138_10478"/>
<feBlend mode="normal" in="SourceGraphic" in2="effect1_dropShadow_1138_10478" result="shape"/>
</filter>
<filter id="filter3_d_1138_10478" x="1014.8" y="775.619" width="39.2369" height="38.0258" filterUnits="userSpaceOnUse" color-interpolation-filters="sRGB">
<feFlood flood-opacity="0" result="BackgroundImageFix"/>
<feColorMatrix in="SourceAlpha" type="matrix" values="0 0 0 0 0 0 0 0 0 0 0 0 0 0 0 0 0 0 127 0" result="hardAlpha"/>
<feOffset dx="1" dy="1"/>
<feColorMatrix type="matrix" values="0 0 0 0 0 0 0 0 0 0 0 0 0 0 0 0 0 0 1 0"/>
<feBlend mode="normal" in2="BackgroundImageFix" result="effect1_dropShadow_1138_10478"/>
<feBlend mode="normal" in="SourceGraphic" in2="effect1_dropShadow_1138_10478" result="shape"/>
</filter>
<filter id="filter4_d_1138_10478" x="173" y="151" width="88.9996" height="87.2268" filterUnits="userSpaceOnUse" color-interpolation-filters="sRGB">
<feFlood flood-opacity="0" result="BackgroundImageFix"/>
<feColorMatrix in="SourceAlpha" type="matrix" values="0 0 0 0 0 0 0 0 0 0 0 0 0 0 0 0 0 0 127 0" result="hardAlpha"/>
<feOffset dx="1" dy="1"/>
<feColorMatrix type="matrix" values="0 0 0 0 0 0 0 0 0 0 0 0 0 0 0 0 0 0 1 0"/>
<feBlend mode="normal" in2="BackgroundImageFix" result="effect1_dropShadow_1138_10478"/>
<feBlend mode="normal" in="SourceGraphic" in2="effect1_dropShadow_1138_10478" result="shape"/>
</filter>
</defs>
</svg>
