<svg width="36" height="36" viewBox="0 0 36 36" fill="none" xmlns="http://www.w3.org/2000/svg">
<path d="M18.0003 2.99414C24.0751 2.99414 29.0353 7.78627 29.244 13.8677L29.2503 14.2441V20.3897L31.3203 25.1237C31.4239 25.3605 31.4773 25.6163 31.4773 25.8749C31.4773 26.9103 30.6379 27.7499 29.6023 27.7499L22.5003 27.7521C22.5003 30.2373 20.4856 32.2521 18.0003 32.2521C15.6037 32.2521 13.6448 30.3786 13.5079 28.0164L13.4996 27.7487L6.4126 27.7499C6.15559 27.7499 5.90132 27.6969 5.66558 27.5946C4.71578 27.182 4.28026 26.0777 4.69282 25.1279L6.75029 20.391V14.244C6.75119 8.01181 11.7784 2.99414 18.0003 2.99414ZM20.2497 27.7487L15.7503 27.7521C15.7503 28.9947 16.7577 30.0021 18.0003 30.0021C19.1698 30.0021 20.131 29.1098 20.2399 27.9687L20.2497 27.7487ZM18.0003 5.24414C13.0201 5.24414 9.00101 9.25553 9.00029 14.2441V20.8586L6.98432 25.4999H29.029L27.0003 20.8601L27.0004 14.2634L26.9949 13.9256C26.8282 9.07541 22.8627 5.24414 18.0003 5.24414Z" fill="#AFB4BF"/>
</svg>
