<svg width="32" height="33" viewBox="0 0 32 33" fill="none" xmlns="http://www.w3.org/2000/svg">
<path d="M23.3328 16.4988C27.3828 16.4988 30.6662 19.782 30.6662 23.8321C30.6662 27.8821 27.3828 31.1655 23.3328 31.1655C19.2827 31.1655 15.9995 27.8821 15.9995 23.8321C15.9995 19.782 19.2827 16.4988 23.3328 16.4988ZM15.9995 3.16406C23.3644 3.16406 29.3348 9.13452 29.3348 16.4995C29.3348 16.8504 29.3213 17.1983 29.2947 17.5424C28.7108 16.9883 28.0497 16.5149 27.3291 16.1399C27.1397 10.0462 22.1396 5.16406 15.9995 5.16406C9.7391 5.16406 4.66406 10.2391 4.66406 16.4995C4.66406 22.6401 9.54693 27.6404 15.6418 27.8293C16.016 28.5496 16.4892 29.2105 17.0428 29.7943C16.6991 29.8213 16.3508 29.8348 15.9995 29.8348C8.63453 29.8348 2.66406 23.8644 2.66406 16.4995C2.66406 9.13452 8.63453 3.16406 15.9995 3.16406ZM23.3328 19.1644L23.213 19.1752C22.9409 19.2245 22.7263 19.4391 22.6768 19.7112L22.6662 19.8311L22.6656 23.1644L19.3296 23.1655L19.2098 23.1761C18.9376 23.2256 18.7231 23.4401 18.6738 23.7123L18.663 23.8321L18.6738 23.952C18.7231 24.224 18.9376 24.4387 19.2098 24.488L19.3296 24.4988L22.667 24.4977L22.6677 27.8368L22.6783 27.9565C22.7278 28.2287 22.9423 28.4433 23.2144 28.4927L23.3343 28.5035L23.4541 28.4927C23.7262 28.4433 23.9408 28.2287 23.9902 27.9565L24.001 27.8368L24.0003 24.4977L27.3389 24.4988L27.4587 24.488C27.7309 24.4387 27.9454 24.224 27.9949 23.952L28.0055 23.8321L27.9949 23.7123C27.9454 23.4401 27.7309 23.2256 27.4587 23.1761L27.3389 23.1655L23.999 23.1644L23.9995 19.8311L23.9887 19.7112C23.9394 19.4391 23.7247 19.2245 23.4526 19.1752L23.3328 19.1644ZM11.2818 20.2105C12.1636 21.3297 13.4028 22.0953 14.7884 22.3792C14.7078 22.8505 14.6662 23.3364 14.6662 23.8321C14.6662 24.02 14.672 24.2064 14.6839 24.3912C12.717 24.0676 10.9478 23.0184 9.71082 21.4483C9.36902 21.0145 9.44361 20.3857 9.87742 20.044C10.3112 19.7021 10.94 19.7768 11.2818 20.2105ZM12.0001 12.167C12.92 12.167 13.6658 12.9127 13.6658 13.8327C13.6658 14.7527 12.92 15.4984 12.0001 15.4984C11.0801 15.4984 10.3343 14.7527 10.3343 13.8327C10.3343 12.9127 11.0801 12.167 12.0001 12.167ZM20 12.167C20.92 12.167 21.6658 12.9127 21.6658 13.8327C21.6658 14.7527 20.92 15.4984 20 15.4984C19.08 15.4984 18.3343 14.7527 18.3343 13.8327C18.3343 12.9127 19.08 12.167 20 12.167Z" fill="#AFB4BF"/>
</svg>
