<svg width="489" height="726" viewBox="0 0 489 726" fill="none" xmlns="http://www.w3.org/2000/svg">
<path d="M353.595 258.763C355.785 270.814 369.356 301.807 376.475 317.125C376.906 318.052 377.133 319.053 377.124 320.075C377.012 334.034 375.4 364.295 369.599 385.47C363.743 406.849 228.734 432.218 156.337 443.136C152.85 443.661 149.545 441.484 148.616 438.082L135.597 390.438C134.79 387.485 136.003 384.351 138.588 382.71L242.574 316.693C245.295 314.966 246.492 311.59 245.339 308.581C234.957 281.489 218.168 260.85 212.755 256.18C211.597 255.182 210.133 256.796 209.397 255.457C205.213 247.844 199.881 190.208 198.092 173.942L187.901 77.0704C184.32 43.7497 179.616 7.50015 206.73 1.76248C233.843 -3.97519 245.015 24.0756 247.212 38.8183L284.689 313.749C289.396 270.717 299.744 121.537 302.757 89.0239C306.522 48.3821 316.878 11.3263 344.18 18.4984C366.022 24.2361 370.227 54.3589 369.599 68.703C363.323 126.877 351.335 246.332 353.595 258.763Z" fill="#FFF4EA" stroke="#121212" stroke-width="2"/>
<path d="M37.7801 240.589C38.3193 240.469 38.6593 239.935 38.5395 239.396C38.4198 238.857 37.8857 238.517 37.3465 238.637L37.7801 240.589ZM27.5746 284.307C24.234 278.017 20.8002 268.296 21.234 259.542C21.45 255.183 22.6212 251.121 25.1794 247.828C27.7296 244.545 31.73 241.933 37.7801 240.589L37.3465 238.637C30.925 240.063 26.4843 242.888 23.6 246.601C20.7236 250.304 19.4666 254.797 19.2364 259.443C18.7778 268.698 22.3798 278.789 25.8083 285.245L27.5746 284.307Z" fill="black"/>
<path d="M175.207 210.068C175.746 209.948 176.086 209.414 175.966 208.875C175.847 208.335 175.312 207.995 174.773 208.115L175.207 210.068ZM165.001 253.786C161.661 247.495 158.227 237.775 158.661 229.02C158.877 224.661 160.048 220.6 162.606 217.306C165.156 214.023 169.157 211.411 175.207 210.068L174.773 208.115C168.352 209.541 163.911 212.366 161.027 216.079C158.15 219.782 156.893 224.275 156.663 228.921C156.205 238.177 159.807 248.268 163.235 254.724L165.001 253.786Z" fill="black"/>
<path d="M221.015 199.892C221.554 199.773 221.894 199.238 221.774 198.699C221.654 198.16 221.12 197.82 220.581 197.94L221.015 199.892ZM210.809 243.61C207.468 237.32 204.035 227.6 204.468 218.845C204.684 214.486 205.856 210.424 208.414 207.131C210.964 203.848 214.964 201.236 221.015 199.892L220.581 197.94C214.159 199.366 209.719 202.191 206.834 205.904C203.958 209.607 202.701 214.1 202.471 218.746C202.012 228.002 205.614 238.093 209.043 244.549L210.809 243.61Z" fill="black"/>
<path d="M266.822 189.718C267.361 189.598 267.701 189.064 267.582 188.525C267.462 187.986 266.928 187.646 266.389 187.766L266.822 189.718ZM256.617 233.436C253.276 227.146 249.842 217.425 250.276 208.671C250.492 204.312 251.663 200.25 254.222 196.957C256.772 193.674 260.772 191.062 266.822 189.718L266.389 187.766C259.967 189.192 255.527 192.017 252.642 195.73C249.766 199.433 248.509 203.926 248.279 208.572C247.82 217.827 251.422 227.918 254.85 234.374L256.617 233.436Z" fill="black"/>
<path d="M312.628 179.544C313.167 179.424 313.507 178.89 313.388 178.351C313.268 177.811 312.734 177.471 312.195 177.591L312.628 179.544ZM302.423 223.262C299.082 216.971 295.648 207.251 296.082 198.496C296.298 194.137 297.469 190.076 300.027 186.782C302.578 183.499 306.578 180.887 312.628 179.544L312.195 177.591C305.773 179.017 301.332 181.842 298.448 185.555C295.572 189.258 294.315 193.751 294.084 198.397C293.626 207.653 297.228 217.744 300.656 224.2L302.423 223.262Z" fill="black"/>
<path d="M358.438 169.371C358.977 169.251 359.317 168.717 359.197 168.178C359.077 167.639 358.543 167.299 358.004 167.419L358.438 169.371ZM348.232 213.089C344.892 206.799 341.458 197.078 341.892 188.324C342.107 183.965 343.279 179.903 345.837 176.61C348.387 173.327 352.388 170.715 358.438 169.371L358.004 167.419C351.582 168.845 347.142 171.67 344.258 175.383C341.381 179.086 340.124 183.579 339.894 188.225C339.435 197.48 343.037 207.572 346.466 214.027L348.232 213.089Z" fill="black"/>
<rect x="14.4898" y="274.532" width="405.551" height="251.42" rx="21.6163" transform="rotate(-12.5222 14.4898 274.532)" fill="#EBE7D0" stroke="black" stroke-width="2"/>
<mask id="path-9-outside-1_1138_10480" maskUnits="userSpaceOnUse" x="13.2969" y="185.311" width="412.388" height="151.916" fill="black">
<rect fill="white" x="13.2969" y="185.311" width="412.388" height="151.916"/>
<path fill-rule="evenodd" clip-rule="evenodd" d="M422.681 246.534L28.7293 334.032L20.153 295.417C17.6843 284.302 24.6937 273.29 35.8089 270.821L389.509 192.264C400.624 189.795 411.636 196.805 414.105 207.92L422.681 246.534Z"/>
</mask>
<path fill-rule="evenodd" clip-rule="evenodd" d="M422.681 246.534L28.7293 334.032L20.153 295.417C17.6843 284.302 24.6937 273.29 35.8089 270.821L389.509 192.264C400.624 189.795 411.636 196.805 414.105 207.92L422.681 246.534Z" fill="#4AC2E0"/>
<path d="M422.681 246.534L423.115 248.487L425.067 248.053L424.633 246.101L422.681 246.534ZM28.7293 334.032L26.7769 334.465L27.2105 336.418L29.1629 335.984L28.7293 334.032ZM389.509 192.264L389.942 194.216L389.509 192.264ZM422.247 244.582L28.2956 332.079L29.1629 335.984L423.115 248.487L422.247 244.582ZM30.6817 333.598L22.1054 294.984L18.2006 295.851L26.7769 334.465L30.6817 333.598ZM22.1054 294.984C19.8762 284.947 26.2056 275.003 36.2425 272.774L35.3753 268.869C23.1817 271.577 15.4924 283.657 18.2006 295.851L22.1054 294.984ZM36.2425 272.774L389.942 194.216L389.075 190.312L35.3753 268.869L36.2425 272.774ZM389.942 194.216C399.979 191.987 409.923 198.317 412.152 208.354L416.057 207.486C413.349 195.293 401.269 187.603 389.075 190.312L389.942 194.216ZM412.152 208.354L420.729 246.968L424.633 246.101L416.057 207.486L412.152 208.354Z" fill="black" mask="url(#path-9-outside-1_1138_10480)"/>
<rect x="3.01547" y="266.143" width="405.551" height="251.42" rx="21.6163" transform="rotate(-12.5222 3.01547 266.143)" fill="#F9F6E3" stroke="black" stroke-width="2"/>
<mask id="path-12-outside-2_1138_10480" maskUnits="userSpaceOnUse" x="1.82256" y="176.922" width="412.388" height="151.916" fill="black">
<rect fill="white" x="1.82256" y="176.922" width="412.388" height="151.916"/>
<path fill-rule="evenodd" clip-rule="evenodd" d="M411.207 238.146L17.2549 325.643L8.67862 287.029C6.20991 275.914 13.2193 264.902 24.3345 262.433L378.034 183.875C389.15 181.407 400.162 188.416 402.63 199.531L411.207 238.146Z"/>
</mask>
<path fill-rule="evenodd" clip-rule="evenodd" d="M411.207 238.146L17.2549 325.643L8.67862 287.029C6.20991 275.914 13.2193 264.902 24.3345 262.433L378.034 183.875C389.15 181.407 400.162 188.416 402.63 199.531L411.207 238.146Z" fill="#4DD9FC"/>
<path d="M411.207 238.146L411.64 240.098L413.593 239.665L413.159 237.712L411.207 238.146ZM17.2549 325.643L15.3025 326.077L15.7362 328.029L17.6886 327.596L17.2549 325.643ZM8.67862 287.029L10.631 286.595L8.67862 287.029ZM402.63 199.531L400.678 199.965L402.63 199.531ZM410.773 236.193L16.8213 323.691L17.6886 327.596L411.64 240.098L410.773 236.193ZM19.2074 325.209L10.631 286.595L6.7262 287.462L15.3025 326.077L19.2074 325.209ZM10.631 286.595C8.40182 276.558 14.7312 266.614 24.7682 264.385L23.9009 260.48C11.7074 263.189 4.01799 275.269 6.7262 287.462L10.631 286.595ZM24.7682 264.385L378.468 185.828L377.601 181.923L23.9009 260.48L24.7682 264.385ZM378.468 185.828C388.505 183.599 398.449 189.928 400.678 199.965L404.583 199.098C401.875 186.904 389.794 179.215 377.601 181.923L378.468 185.828ZM400.678 199.965L409.254 238.579L413.159 237.712L404.583 199.098L400.678 199.965Z" fill="black" mask="url(#path-12-outside-2_1138_10480)"/>
<path d="M49.7713 294.593C55.9069 293.23 59.685 287.004 58.2938 280.74C56.9027 274.476 50.8439 270.434 44.7083 271.797C38.5727 273.16 34.7946 279.386 36.1857 285.65C37.5769 291.914 43.6357 295.956 49.7713 294.593Z" fill="white" stroke="black" stroke-width="2"/>
<path d="M46.5841 282.441C46.1676 282.804 46.1241 283.435 46.4868 283.852C46.8496 284.268 47.4812 284.312 47.8977 283.949L46.5841 282.441ZM47.8977 283.949C51.6595 280.673 54.6219 275.846 56.5372 270.593C58.4541 265.334 59.3502 259.571 58.9113 254.369C58.4734 249.179 56.6923 244.429 53.1259 241.373C49.5266 238.289 44.3009 237.093 37.3446 238.638L37.7782 240.59C44.3041 239.141 48.8301 240.326 51.8246 242.892C54.8518 245.486 56.5063 249.652 56.9184 254.538C57.3296 259.411 56.4901 264.882 54.6582 269.908C52.8246 274.937 50.025 279.444 46.5841 282.441L47.8977 283.949Z" fill="black"/>
<path d="M95.5811 284.418C101.717 283.055 105.495 276.829 104.104 270.565C102.712 264.301 96.6537 260.259 90.5181 261.622C84.3825 262.985 80.6044 269.211 81.9956 275.475C83.3867 281.739 89.4455 285.781 95.5811 284.418Z" fill="white" stroke="black" stroke-width="2"/>
<path d="M141.39 274.244C147.525 272.881 151.304 266.655 149.912 260.391C148.521 254.127 142.462 250.085 136.327 251.448C130.191 252.811 126.413 259.037 127.804 265.301C129.196 271.565 135.254 275.607 141.39 274.244Z" fill="white" stroke="black" stroke-width="2"/>
<path d="M187.197 264.07C193.333 262.707 197.111 256.481 195.72 250.217C194.329 243.953 188.27 239.912 182.134 241.274C175.999 242.637 172.221 248.864 173.612 255.127C175.003 261.391 181.062 265.433 187.197 264.07Z" fill="white" stroke="black" stroke-width="2"/>
<path d="M184.01 251.918C183.594 252.281 183.55 252.913 183.913 253.329C184.276 253.746 184.907 253.789 185.324 253.426L184.01 251.918ZM185.324 253.426C189.086 250.15 192.048 245.324 193.963 240.07C195.88 234.811 196.776 229.049 196.337 223.847C195.899 218.656 194.118 213.906 190.552 210.85C186.953 207.766 181.727 206.57 174.771 208.115L175.204 210.067C181.73 208.618 186.256 209.803 189.251 212.369C192.278 214.963 193.932 219.13 194.344 224.015C194.756 228.888 193.916 234.36 192.084 239.385C190.251 244.414 187.451 248.921 184.01 251.918L185.324 253.426Z" fill="black"/>
<path d="M233.006 253.896C239.141 252.533 242.92 246.307 241.528 240.043C240.137 233.779 234.078 229.737 227.943 231.1C221.807 232.463 218.029 238.689 219.42 244.953C220.811 251.217 226.87 255.259 233.006 253.896Z" fill="white" stroke="black" stroke-width="2"/>
<path d="M229.819 241.744C229.402 242.107 229.359 242.738 229.721 243.155C230.084 243.571 230.716 243.615 231.132 243.252L229.819 241.744ZM231.132 243.252C234.894 239.976 237.857 235.149 239.772 229.896C241.689 224.637 242.585 218.874 242.146 213.672C241.708 208.482 239.927 203.732 236.36 200.676C232.761 197.592 227.536 196.396 220.579 197.941L221.013 199.893C227.539 198.444 232.065 199.629 235.059 202.195C238.086 204.789 239.741 208.955 240.153 213.841C240.564 218.714 239.725 224.185 237.893 229.211C236.059 234.24 233.26 238.747 229.819 241.744L231.132 243.252Z" fill="black"/>
<path d="M278.815 243.721C284.95 242.358 288.728 236.132 287.337 229.868C285.946 223.604 279.887 219.563 273.752 220.925C267.616 222.288 263.838 228.515 265.229 234.778C266.62 241.042 272.679 245.084 278.815 243.721Z" fill="white" stroke="black" stroke-width="2"/>
<path d="M275.627 231.569C275.211 231.932 275.167 232.564 275.53 232.98C275.893 233.397 276.525 233.44 276.941 233.077L275.627 231.569ZM276.941 233.077C280.703 229.801 283.665 224.975 285.581 219.721C287.497 214.463 288.394 208.7 287.955 203.498C287.517 198.307 285.736 193.557 282.169 190.501C278.57 187.417 273.344 186.221 266.388 187.766L266.822 189.718C273.347 188.269 277.873 189.454 280.868 192.02C283.895 194.614 285.55 198.781 285.962 203.666C286.373 208.539 285.533 214.011 283.702 219.036C281.868 224.066 279.068 228.572 275.627 231.569L276.941 233.077Z" fill="black"/>
<path d="M324.621 233.547C330.757 232.184 334.535 225.958 333.144 219.694C331.753 213.43 325.694 209.389 319.558 210.751C313.423 212.114 309.645 218.341 311.036 224.604C312.427 230.868 318.486 234.91 324.621 233.547Z" fill="white" stroke="black" stroke-width="2"/>
<path d="M321.434 221.395C321.018 221.758 320.974 222.39 321.337 222.806C321.7 223.222 322.331 223.266 322.748 222.903L321.434 221.395ZM322.748 222.903C326.51 219.627 329.472 214.801 331.387 209.547C333.304 204.288 334.2 198.526 333.761 193.324C333.324 188.133 331.542 183.383 327.976 180.327C324.377 177.243 319.151 176.047 312.195 177.592L312.628 179.544C319.154 178.095 323.68 179.28 326.675 181.846C329.702 184.44 331.356 188.607 331.769 193.492C332.18 198.365 331.34 203.836 329.508 208.862C327.675 213.891 324.875 218.398 321.434 221.395L322.748 222.903Z" fill="black"/>
<path d="M370.432 223.373C376.567 222.01 380.346 215.784 378.954 209.52C377.563 203.256 371.504 199.215 365.369 200.577C359.233 201.94 355.455 208.167 356.846 214.43C358.238 220.694 364.296 224.736 370.432 223.373Z" fill="white" stroke="black" stroke-width="2"/>
<path d="M367.245 211.221C366.828 211.584 366.785 212.216 367.147 212.632C367.51 213.049 368.142 213.092 368.558 212.729L367.245 211.221ZM368.558 212.729C372.32 209.453 375.283 204.627 377.198 199.373C379.115 194.114 380.011 188.352 379.572 183.15C379.134 177.959 377.353 173.209 373.786 170.153C370.187 167.069 364.962 165.873 358.005 167.418L358.439 169.37C364.965 167.921 369.491 169.106 372.485 171.672C375.512 174.266 377.167 178.433 377.579 183.318C377.99 188.191 377.151 193.662 375.319 198.688C373.485 203.717 370.686 208.224 367.245 211.221L368.558 212.729Z" fill="black"/>
<path d="M118.494 236.084C118.469 238.007 118.49 239.656 118.523 240.93C117.98 240.23 117.399 239.441 116.766 238.581C116.427 238.12 116.072 237.639 115.701 237.14C113.849 234.653 111.638 231.84 108.906 229.354C103.394 224.339 95.7664 220.669 84.7089 223.389C74.9631 225.786 68.423 234.405 67.1369 246.558C65.852 258.7 69.7731 274.447 80.922 291.527C87.7911 302.05 100.086 308.925 110.699 308.123C116.05 307.718 120.969 305.355 124.463 300.542C127.555 296.284 129.475 290.188 129.689 282.004L132.734 286.275C132.752 286.299 132.77 286.322 132.789 286.344C135.949 290.037 141.668 294.921 148.619 297.616C155.602 300.322 163.89 300.833 171.999 295.622C176.943 292.445 180.079 287.402 182.018 281.697C183.956 275.993 184.723 269.553 184.88 263.456C185.194 251.263 183.072 240.249 182.783 238.811C182.763 238.712 182.747 238.623 182.729 238.52L181.743 238.687L182.729 238.52C182.438 236.799 179.853 222.284 173.409 209.186C170.188 202.64 165.961 196.36 160.497 192.229C154.991 188.066 148.249 186.105 140.155 188.21C133.784 189.867 129.279 194.293 126.114 199.856C122.955 205.408 121.088 212.16 119.991 218.645C118.892 225.14 118.556 231.427 118.494 236.084Z" fill="#FFF4EA" stroke="#121212" stroke-width="2" stroke-linejoin="round"/>
<path d="M129.776 282.036C128.05 270.581 123.657 249.554 117.537 239.669" stroke="black" stroke-width="2" stroke-linecap="round" stroke-linejoin="round"/>
<path d="M76.9367 372.381L76.0571 372.856L76.5327 373.736L106.222 428.648L106.698 429.527L107.577 429.052L128.435 417.775C136.997 413.145 142.638 406.686 144.908 399.102C147.177 391.517 146.03 382.954 141.298 374.201C136.556 365.43 130.018 359.779 122.41 357.54C114.804 355.302 106.278 356.517 97.6424 361.186L76.9367 372.381ZM115.273 406.739L99.8213 378.16L104.478 375.642C108.804 373.303 112.401 372.492 115.598 373.469C118.803 374.45 121.89 377.316 124.977 383.026C128.053 388.715 128.765 392.873 127.873 396.077C126.987 399.266 124.434 401.785 120.309 404.016L115.273 406.739Z" fill="#FBDF96" stroke="#121212" stroke-width="2"/>
<path d="M263.683 317.527L262.689 317.422L262.583 318.416L256.018 380.494L255.913 381.488L256.907 381.594L280.487 384.087C290.167 385.111 298.472 382.974 304.632 378.002C310.793 373.03 314.69 365.319 315.736 355.424C316.785 345.508 314.588 337.151 309.58 331.002C304.572 324.854 296.853 321.035 287.091 320.003L263.683 317.527ZM275.872 367.542L279.289 335.234L284.554 335.791C289.444 336.308 292.87 337.673 294.953 340.287C297.042 342.908 297.967 347.018 297.285 353.472C296.605 359.904 294.84 363.736 292.293 365.875C289.759 368.004 286.229 368.638 281.566 368.145L275.872 367.542Z" fill="#FBDF96" stroke="#121212" stroke-width="2"/>
<path d="M382.279 302.324L382.165 301.331L381.172 301.444L364.896 303.302L363.902 303.416L364.016 304.409L371.097 366.43L371.211 367.424L372.204 367.311L388.48 365.452L389.474 365.339L389.361 364.345L382.279 302.324Z" fill="#4DD9FC" stroke="#121212" stroke-width="2"/>
<path d="M321.186 377.208L321.478 378.165L322.435 377.873L341.522 372.056C348.914 369.803 354.194 366.123 357.196 361.55C360.211 356.959 360.862 351.567 359.166 346.075C358.039 342.304 356.334 339.121 353.501 337.149C351.395 335.683 348.767 334.955 345.501 335.049C350.535 331.574 353.084 325.991 351.198 319.928C347.973 309.201 335.81 304.645 322.403 308.731L303.151 314.598L302.194 314.889L302.486 315.846L306.181 327.97L306.472 328.926L307.429 328.635L326.681 322.768C328.593 322.185 330.318 322.293 331.647 322.889C332.964 323.48 333.957 324.574 334.408 326.116L334.411 326.127L334.414 326.137C334.903 327.681 334.614 329.226 333.643 330.585C332.66 331.96 330.956 333.165 328.624 333.876L310.691 339.341L309.735 339.632L310.026 340.589L313.344 351.476L313.636 352.432L314.592 352.141L332.521 346.677C335.125 345.905 337.425 345.91 339.158 346.484C340.869 347.052 342.029 348.167 342.5 349.711C342.995 351.335 342.728 352.901 341.835 354.236C340.931 355.586 339.347 356.747 337.15 357.416L317.981 363.259L317.024 363.55L317.316 364.507L321.186 377.208Z" fill="#4DD9FC" stroke="#121212" stroke-width="2"/>
<circle cx="80.2737" cy="361.483" r="17.0072" transform="rotate(-13.2859 80.2737 361.483)" fill="white" stroke="#121212" stroke-width="2"/>
<circle cx="113.314" cy="353.682" r="17.0072" transform="rotate(-13.2859 113.314 353.682)" fill="white" stroke="#121212" stroke-width="2"/>
<circle cx="78.7682" cy="369.124" r="8.84247" transform="rotate(-13.2859 78.7682 369.124)" fill="#121212" stroke="#121212" stroke-width="2"/>
<circle cx="111.807" cy="361.324" r="8.84247" transform="rotate(-13.2859 111.807 361.324)" fill="#121212" stroke="#121212" stroke-width="2"/>
<path d="M155.712 404.59L156.454 404.586L156.666 403.875L160.101 392.325L179.528 392.229L183.119 403.748L183.339 404.454L184.078 404.45L201.754 404.363L203.139 404.356L202.696 403.044L181.696 340.723L181.465 340.038L180.743 340.042L158.412 340.152L157.691 340.155L157.467 340.841L136.996 403.366L136.564 404.684L137.951 404.677L155.712 404.59ZM175.05 377.835L164.432 377.887L169.638 360.486L175.05 377.835Z" fill="#FBDF96" stroke="#121212" stroke-width="2"/>
<path d="M186.657 365.881L185.071 366.426L186.305 367.562L221.605 400.044L228.03 418.72L228.355 419.666L229.301 419.341L244.71 414.04L245.656 413.714L245.331 412.769L238.906 394.093L246.753 346.768L247.028 345.113L245.441 345.659L228.075 351.633L227.485 351.836L227.408 352.455L224.068 379.208L205.057 360.146L204.615 359.703L204.023 359.907L186.657 365.881Z" fill="#FBDF96" stroke="#121212" stroke-width="2"/>
<path d="M103.196 452.904L101.329 453.263L100.973 451.413L102.84 451.053L103.196 452.904ZM104.635 460.372L102.768 460.731L102.408 458.864L104.275 458.505L104.635 460.372ZM116.715 458.662L116.985 460.066L111.285 461.164L108.713 447.814L114.017 446.793L114.287 448.197L110.537 448.919L112.567 459.461L116.715 458.662ZM117.442 445.893L120.147 459.937L118.594 460.236L117.28 453.412L113.942 454.055L113.675 452.667L117.012 452.024L115.889 446.192L117.442 445.893ZM123.517 459.459L121.964 459.758L119.214 445.483L120.767 445.184L123.517 459.459ZM135.643 442.318L138.393 456.593L136.84 456.892L134.09 442.617L135.643 442.318ZM125.818 449.043L126.715 453.702C127.132 455.867 128.087 456.642 129.574 456.356C131.045 456.073 131.643 454.998 131.226 452.833L130.328 448.174C129.908 445.993 128.953 445.218 127.483 445.501C125.996 445.787 125.398 446.862 125.818 449.043ZM125.162 454.001L124.265 449.342C123.679 446.302 124.949 444.532 127.212 444.096C129.459 443.664 131.296 444.835 131.881 447.875L132.779 452.534C133.358 455.541 132.088 457.311 129.841 457.744C127.578 458.18 125.742 457.009 125.162 454.001ZM146.467 452.93L146.738 454.335L141.038 455.433L138.466 442.083L143.77 441.061L144.04 442.465L140.29 443.188L142.32 453.729L146.467 452.93ZM147.195 440.161L149.9 454.205L148.347 454.504L147.033 447.681L143.695 448.324L143.428 446.936L146.765 446.293L145.642 440.461L147.195 440.161ZM153.27 453.728L151.716 454.027L148.967 439.752L150.52 439.452L153.27 453.728ZM165.396 436.587L168.146 450.862L166.593 451.161L163.843 436.886L165.396 436.587ZM155.571 443.311L156.468 447.971C156.885 450.135 157.84 450.911 159.327 450.624C160.797 450.341 161.396 449.266 160.979 447.102L160.081 442.443C159.661 440.262 158.706 439.486 157.236 439.769C155.749 440.056 155.151 441.131 155.571 443.311ZM154.915 448.27L154.018 443.611C153.432 440.571 154.702 438.801 156.965 438.365C159.212 437.932 161.049 439.103 161.634 442.143L162.532 446.803C163.111 449.81 161.841 451.579 159.594 452.012C157.331 452.448 155.494 451.277 154.915 448.27Z" fill="#121212"/>
<path d="M358.971 539.535L354.054 702.676L159.063 702.676L159.063 542.295C136.1 538.345 129.212 519.935 127.893 506.112L358.971 456.05C350.393 448.48 323.785 398.311 333.117 381.438C346.958 356.415 383.157 383.501 399.984 398.311C416.811 413.122 424.934 426.075 424.934 453.388C424.934 466.867 389.041 507.83 358.971 539.535Z" fill="#FFF4EA" stroke="#121212" stroke-width="2" stroke-linejoin="round"/>
<path fill-rule="evenodd" clip-rule="evenodd" d="M151.932 549.272C160.446 549.272 203.903 549.272 237.805 549.272L237.805 549.272L258.734 549.272L279.719 549.272L279.719 549.272C313.621 549.272 357.078 549.272 365.591 549.272C379.929 549.272 400.392 552.128 397.323 574.02C395.774 585.076 388.528 588.255 376.531 589.088C376.754 590.094 376.871 591.14 376.871 592.213L376.871 684.322C376.871 692.268 370.43 698.708 362.485 698.708L154.024 698.708C146.079 698.708 139.638 692.268 139.638 684.322L139.638 592.213C139.638 591.113 139.762 590.041 139.996 589.012C128.594 588.07 121.706 584.766 120.2 574.02C117.132 552.128 137.595 549.272 151.932 549.272Z" fill="#E2CCFB"/>
<path d="M237.805 549.272L237.805 550.272L239.151 550.272L238.762 548.984L237.805 549.272ZM151.932 549.272L151.932 548.272L151.932 549.272ZM237.805 549.272L237.805 548.272L236.459 548.272L236.847 549.561L237.805 549.272ZM258.734 549.272L258.734 550.272L258.734 549.272ZM279.719 549.272L280.677 549.56L281.064 548.272L279.719 548.272L279.719 549.272ZM279.719 549.272L278.761 548.984L278.374 550.272L279.719 550.272L279.719 549.272ZM365.591 549.272L365.591 548.272L365.591 549.272ZM397.323 574.02L396.333 573.881V573.881L397.323 574.02ZM376.531 589.088L376.462 588.09L375.303 588.17L375.555 589.304L376.531 589.088ZM376.871 592.213L375.871 592.213L376.871 592.213ZM376.871 684.322L377.871 684.322L376.871 684.322ZM362.485 698.708L362.485 699.708L362.485 698.708ZM154.024 698.708L154.024 697.708L154.024 698.708ZM139.638 684.322L140.638 684.322L139.638 684.322ZM139.638 592.213L138.638 592.213L139.638 592.213ZM139.996 589.012L140.971 589.234L141.226 588.11L140.078 588.015L139.996 589.012ZM120.2 574.02L119.21 574.158L120.2 574.02ZM237.805 548.272C203.903 548.272 160.446 548.272 151.932 548.272L151.932 550.272C160.446 550.272 203.903 550.272 237.805 550.272L237.805 548.272ZM236.847 549.561L236.847 549.561L238.762 548.984L238.762 548.984L236.847 549.561ZM258.734 548.272L237.805 548.272L237.805 550.272L258.734 550.272L258.734 548.272ZM279.719 548.272L258.734 548.272L258.734 550.272L279.719 550.272L279.719 548.272ZM280.677 549.56L280.677 549.56L278.761 548.984L278.761 548.984L280.677 549.56ZM365.591 548.272C357.078 548.272 313.621 548.272 279.719 548.272L279.719 550.272C313.621 550.272 357.078 550.272 365.591 550.272L365.591 548.272ZM398.314 574.158C399.103 568.529 398.39 564.029 396.566 560.462C394.742 556.894 391.854 554.351 388.452 552.552C381.696 548.979 372.782 548.272 365.591 548.272L365.591 550.272C372.739 550.272 381.224 550.992 387.517 554.32C390.64 555.972 393.188 558.247 394.786 561.372C396.383 564.497 397.078 568.564 396.333 573.881L398.314 574.158ZM376.6 590.085C382.638 589.666 387.663 588.651 391.39 586.226C395.185 583.756 397.507 579.913 398.314 574.158L396.333 573.881C395.59 579.183 393.515 582.457 390.299 584.549C387.017 586.686 382.421 587.676 376.462 588.09L376.6 590.085ZM375.555 589.304C375.762 590.24 375.871 591.213 375.871 592.213L377.871 592.213C377.871 591.067 377.746 589.948 377.507 588.871L375.555 589.304ZM375.871 592.213L375.871 684.322L377.871 684.322L377.871 592.213L375.871 592.213ZM375.871 684.322C375.871 691.715 369.878 697.708 362.485 697.708L362.485 699.708C370.983 699.708 377.871 692.82 377.871 684.322L375.871 684.322ZM362.485 697.708L154.024 697.708L154.024 699.708L362.485 699.708L362.485 697.708ZM154.024 697.708C146.631 697.708 140.638 691.715 140.638 684.322L138.638 684.322C138.638 692.82 145.527 699.708 154.024 699.708L154.024 697.708ZM140.638 684.322L140.638 592.213L138.638 592.213L138.638 684.322L140.638 684.322ZM140.638 592.213C140.638 591.188 140.753 590.191 140.971 589.234L139.021 588.79C138.77 589.892 138.638 591.038 138.638 592.213L140.638 592.213ZM119.21 574.158C119.993 579.748 122.208 583.54 125.822 586.017C129.377 588.455 134.165 589.534 139.913 590.009L140.078 588.015C134.425 587.548 130.068 586.504 126.953 584.368C123.896 582.272 121.913 579.038 121.191 573.881L119.21 574.158ZM151.932 548.272C144.742 548.272 135.827 548.979 129.072 552.552C125.67 554.351 122.782 556.894 120.957 560.462C119.133 564.029 118.421 568.529 119.21 574.158L121.191 573.881C120.445 568.564 121.14 564.497 122.738 561.372C124.336 558.247 126.884 555.972 130.007 554.32C136.299 550.992 144.785 550.272 151.932 550.272L151.932 548.272Z" fill="black"/>
</svg>
