<svg width="89" height="88" viewBox="0 0 89 88" fill="none" xmlns="http://www.w3.org/2000/svg">
<g filter="url(#filter0_d_1138_10614)">
<path d="M43.9404 1C30.6913 1 26.1523 16.5427 25.5389 24.314C22.228 22.8337 7.72266 21.7236 2.72172 33.9356C-3.46125 49.0342 8.48706 55.5227 15.2341 56.8796C11.4311 60.9503 7.50666 75.0127 17.8103 81.6738C30.4382 89.8376 40.8735 79.7001 45.4126 72.4222C49.2155 79.4534 59.6921 91.1474 71.1747 81.6738C82.6572 72.2002 75.9591 59.2233 71.1747 53.9191C76.4498 52.5622 87 46.6658 87 33.9356C87 21.2055 70.316 19.0098 61.9739 19.5032C61.4832 13.3354 57.1895 1 43.9404 1Z" fill="#4DD9FC"/>
<path d="M43.9404 1C30.6913 1 26.1523 16.5427 25.5389 24.314C22.228 22.8337 7.72266 21.7236 2.72172 33.9356C-3.46125 49.0342 8.48706 55.5227 15.2341 56.8796C11.4311 60.9503 7.50666 75.0127 17.8103 81.6738C30.4382 89.8376 40.8735 79.7001 45.4126 72.4222C49.2155 79.4534 59.6921 91.1474 71.1747 81.6738C82.6572 72.2002 75.9591 59.2233 71.1747 53.9191C76.4498 52.5622 87 46.6658 87 33.9356C87 21.2055 70.316 19.0098 61.9739 19.5032C61.4832 13.3354 57.1895 1 43.9404 1Z" stroke="black" stroke-width="2" stroke-linecap="round" stroke-linejoin="round"/>
</g>
<path d="M60.492 28.3708L60.3785 27.3772L59.385 27.4907L51.6027 28.3793L50.6092 28.4927L50.7226 29.4862L54.1087 59.1407L54.2221 60.1342L55.2157 60.0208L62.9979 59.1322L63.9915 59.0188L63.878 58.0252L60.492 28.3708Z" fill="white" stroke="#121212" stroke-width="2"/>
<path d="M30.2632 64.3865L30.5547 65.3431L31.5113 65.0516L40.6375 62.2703C44.2527 61.1685 46.8955 59.35 48.4161 57.0344C49.9493 54.6995 50.2735 51.9589 49.4211 49.1968C48.8673 47.3441 48.0048 45.6919 46.5111 44.6522C45.7239 44.1043 44.8117 43.7608 43.7658 43.6219C45.599 41.8529 46.4444 39.3765 45.6109 36.6943C43.9525 31.1817 37.7552 28.9935 31.1919 30.9937L21.9868 33.7991L21.0302 34.0906L21.3218 35.0471L23.0884 40.844L23.3799 41.8006L24.3365 41.5091L33.5416 38.7037C34.3565 38.4554 35.0488 38.5139 35.5505 38.7389C36.0393 38.9581 36.41 39.3601 36.583 39.9518L36.5861 39.9626L36.5895 39.9732C36.7695 40.5414 36.6711 41.1107 36.2939 41.6386C35.9044 42.1837 35.1965 42.7024 34.1664 43.0164L25.5922 45.6295L24.6357 45.921L24.9272 46.8775L26.5136 52.0829L26.8051 53.0395L27.7617 52.748L36.3321 50.136C37.5016 49.7898 38.4882 49.8066 39.1909 50.0396C39.8721 50.2655 40.2851 50.6855 40.4538 51.2392C40.6438 51.8624 40.5436 52.4494 40.2015 52.9603C39.849 53.4867 39.2026 53.9798 38.2431 54.2722L29.0775 57.0655L28.1209 57.357L28.4124 58.3136L30.2632 64.3865Z" fill="white" stroke="#121212" stroke-width="2"/>
<defs>
<filter id="filter0_d_1138_10614" x="0.000366211" y="0" width="88.9996" height="87.2268" filterUnits="userSpaceOnUse" color-interpolation-filters="sRGB">
<feFlood flood-opacity="0" result="BackgroundImageFix"/>
<feColorMatrix in="SourceAlpha" type="matrix" values="0 0 0 0 0 0 0 0 0 0 0 0 0 0 0 0 0 0 127 0" result="hardAlpha"/>
<feOffset dx="1" dy="1"/>
<feColorMatrix type="matrix" values="0 0 0 0 0 0 0 0 0 0 0 0 0 0 0 0 0 0 1 0"/>
<feBlend mode="normal" in2="BackgroundImageFix" result="effect1_dropShadow_1138_10614"/>
<feBlend mode="normal" in="SourceGraphic" in2="effect1_dropShadow_1138_10614" result="shape"/>
</filter>
</defs>
</svg>
