<svg width="22" height="22" viewBox="0 0 16 17" fill="none" xmlns="http://www.w3.org/2000/svg">
<path d="M11.6669 8.50053C13.6919 8.50053 15.3336 10.1421 15.3336 12.1672C15.3336 14.1922 13.6919 15.8339 11.6669 15.8339C9.64186 15.8339 8.00026 14.1922 8.00026 12.1672C8.00026 10.1421 9.64186 8.50053 11.6669 8.50053ZM8.01506 9.83339C7.81726 10.1423 7.6576 10.4779 7.54266 10.8336L2.83518 10.8338C2.55946 10.8338 2.33594 11.0573 2.33594 11.3331V11.7181C2.33594 12.0753 2.46334 12.4207 2.69524 12.6922C3.53078 13.6707 4.84137 14.1679 6.66693 14.1679C7.06453 14.1679 7.4378 14.1443 7.78706 14.0973C7.95053 14.4272 8.15553 14.7329 8.39473 15.0082C7.8644 15.115 7.2878 15.1679 6.66693 15.1679C4.56966 15.1679 2.97899 14.5645 1.93479 13.3416C1.54828 12.889 1.33594 12.3133 1.33594 11.7181V11.3331C1.33594 10.505 2.00717 9.83379 2.83518 9.83379L8.01506 9.83339ZM11.6669 9.83379L11.607 9.83919C11.4709 9.86386 11.3637 9.97119 11.3389 10.1073L11.3336 10.1671L11.3329 11.8339H9.66953L9.6096 11.8392C9.47353 11.8639 9.36626 11.9712 9.34153 12.1073L9.3362 12.1672L9.34153 12.2271C9.36626 12.3631 9.47353 12.4705 9.6096 12.4951L9.66953 12.5005H11.3329L11.3336 14.1671L11.3389 14.2271C11.3637 14.3631 11.4709 14.4704 11.607 14.4951L11.6669 14.5005L11.7268 14.4951C11.8629 14.4704 11.9702 14.3631 11.9949 14.2271L12.0003 14.1671L11.9996 12.5005H13.6695L13.7294 12.4951C13.8655 12.4705 13.9728 12.3631 13.9975 12.2271L14.0029 12.1672L13.9975 12.1073C13.9728 11.9712 13.8655 11.8639 13.7294 11.8392L13.6695 11.8339H11.9996L12.0003 10.1671L11.9949 10.1073C11.9702 9.97119 11.8629 9.86386 11.7268 9.83919L11.6669 9.83379ZM6.66693 1.83691C8.50786 1.83691 10.0003 3.3293 10.0003 5.17025C10.0003 7.0112 8.50786 8.50359 6.66693 8.50359C4.82596 8.50359 3.33357 7.0112 3.33357 5.17025C3.33357 3.3293 4.82596 1.83691 6.66693 1.83691ZM6.66693 2.83691C5.37824 2.83691 4.33357 3.88159 4.33357 5.17025C4.33357 6.45891 5.37824 7.50359 6.66693 7.50359C7.9556 7.50359 9.00026 6.45891 9.00026 5.17025C9.00026 3.88159 7.9556 2.83691 6.66693 2.83691Z" fill="#DF5445"/>
</svg>
