<svg width="20" height="20" viewBox="0 0 20 20" fill="none" xmlns="http://www.w3.org/2000/svg">
<path d="M14.5837 10.0004C17.1149 10.0004 19.167 12.0524 19.167 14.5837C19.167 17.115 17.1149 19.1671 14.5837 19.1671C12.0523 19.1671 10.0003 17.115 10.0003 14.5837C10.0003 12.0524 12.0523 10.0004 14.5837 10.0004ZM10.0188 11.6665C9.77158 12.0526 9.572 12.4721 9.42833 12.9167L3.54398 12.917C3.19932 12.917 2.91992 13.1964 2.91992 13.5411V14.0224C2.91992 14.4688 3.07918 14.9006 3.36906 15.24C4.41348 16.4631 6.05171 17.0846 8.33366 17.0846C8.83066 17.0846 9.29725 17.0551 9.73383 16.9963C9.93816 17.4087 10.1944 17.7909 10.4934 18.135C9.8305 18.2685 9.10975 18.3346 8.33366 18.3346C5.71208 18.3346 3.72374 17.5803 2.41849 16.0517C1.93535 15.486 1.66992 14.7664 1.66992 14.0224V13.5411C1.66992 12.506 2.50896 11.667 3.54398 11.667L10.0188 11.6665ZM14.5837 11.667L14.5087 11.6737C14.3387 11.7046 14.2046 11.8387 14.1737 12.0088L14.167 12.0837L14.1662 14.1671H12.0869L12.012 14.1737C11.8419 14.2047 11.7078 14.3387 11.6769 14.5088L11.6702 14.5837L11.6769 14.6586C11.7078 14.8287 11.8419 14.9628 12.012 14.9937L12.0869 15.0004H14.1662L14.167 17.0837L14.1737 17.1586C14.2046 17.3287 14.3387 17.4627 14.5087 17.4937L14.5837 17.5003L14.6585 17.4937C14.8286 17.4627 14.9627 17.3287 14.9936 17.1586L15.0003 17.0837L14.9995 15.0004H17.0869L17.1617 14.9937C17.3318 14.9628 17.466 14.8287 17.4968 14.6586L17.5036 14.5837L17.4968 14.5088C17.466 14.3387 17.3318 14.2047 17.1617 14.1737L17.0869 14.1671H14.9995L15.0003 12.0837L14.9936 12.0088C14.9627 11.8387 14.8286 11.7046 14.6585 11.6737L14.5837 11.667ZM8.33366 1.6709C10.6348 1.6709 12.5003 3.53638 12.5003 5.83757C12.5003 8.13876 10.6348 10.0042 8.33366 10.0042C6.03245 10.0042 4.16696 8.13876 4.16696 5.83757C4.16696 3.53638 6.03245 1.6709 8.33366 1.6709ZM8.33366 2.9209C6.7228 2.9209 5.41696 4.22674 5.41696 5.83757C5.41696 7.4484 6.7228 8.75425 8.33366 8.75425C9.9445 8.75425 11.2503 7.4484 11.2503 5.83757C11.2503 4.22674 9.9445 2.9209 8.33366 2.9209Z" fill="#494D55"/>
</svg>
