<svg width="24" height="24" viewBox="0 0 24 24" fill="none" xmlns="http://www.w3.org/2000/svg">
<path d="M12.0008 1.99609C16.0507 1.99609 19.3575 5.19084 19.4966 9.24515L19.5008 9.49609V13.5931L20.8808 16.7491C20.9499 16.907 20.9855 17.0775 20.9855 17.2499C20.9855 17.9402 20.4259 18.4999 19.7355 18.4999L15.0008 18.5014C15.0008 20.1582 13.6577 21.5014 12.0008 21.5014C10.4031 21.5014 9.09719 20.2524 9.00594 18.6776L9.00039 18.4991L4.27571 18.4999C4.10437 18.4999 3.93486 18.4646 3.7777 18.3964C3.1445 18.1213 2.85415 17.3851 3.12919 16.7519L4.50084 13.594V9.49599C4.50144 5.3412 7.85294 1.99609 12.0008 1.99609ZM13.5004 18.4991L10.5008 18.5014C10.5008 19.3298 11.1724 20.0014 12.0008 20.0014C12.7805 20.0014 13.4213 19.4065 13.4939 18.6458L13.5004 18.4991ZM12.0008 3.49609C8.68069 3.49609 6.00132 6.17035 6.00084 9.49609V13.9057L4.65686 16.9999H19.3533L18.0008 13.9067L18.0009 9.50895L17.9972 9.28375C17.8861 6.05027 15.2424 3.49609 12.0008 3.49609Z" fill="#494D55"/>
</svg>
