<svg width="16" height="16" viewBox="0 0 16 16" fill="none" xmlns="http://www.w3.org/2000/svg">
<g filter="url(#filter0_d_1536_13666)">
<path d="M8.11644 1C5.92069 1 5.16845 3.57586 5.06679 4.86379C4.51807 4.61847 2.11413 4.43448 1.28534 6.45837C0.260645 8.96063 2.24082 10.0359 3.35898 10.2608C2.72872 10.9355 2.07834 13.266 3.78594 14.3699C5.87875 15.7229 7.60817 14.0428 8.36041 12.8367C8.99068 14.002 10.7269 15.94 12.6299 14.3699C14.5329 12.7999 13.4228 10.6492 12.6299 9.77019C13.5042 9.54531 15.2526 8.56812 15.2526 6.45837C15.2526 4.34862 12.4876 3.98473 11.1051 4.0665C11.0238 3.04433 10.3122 1 8.11644 1Z" fill="#4DD9FC"/>
<path d="M8.11644 1C5.92069 1 5.16845 3.57586 5.06679 4.86379C4.51807 4.61847 2.11413 4.43448 1.28534 6.45837C0.260645 8.96063 2.24082 10.0359 3.35898 10.2608C2.72872 10.9355 2.07834 13.266 3.78594 14.3699C5.87875 15.7229 7.60817 14.0428 8.36041 12.8367C8.99068 14.002 10.7269 15.94 12.6299 14.3699C14.5329 12.7999 13.4228 10.6492 12.6299 9.77019C13.5042 9.54531 15.2526 8.56812 15.2526 6.45837C15.2526 4.34862 12.4876 3.98473 11.1051 4.0665C11.0238 3.04433 10.3122 1 8.11644 1Z" stroke="black" stroke-width="0.331457" stroke-linecap="round" stroke-linejoin="round"/>
</g>
<path d="M10.8587 5.53608L10.8399 5.37142L10.6752 5.39022L9.3855 5.53749L9.22084 5.55629L9.23964 5.72095L9.8008 10.6355L9.8196 10.8002L9.98426 10.7814L11.274 10.6341L11.4387 10.6153L11.4199 10.4507L10.8587 5.53608Z" fill="white" stroke="#121212" stroke-width="0.331457"/>
<path d="M9.02397 8.98756C8.93218 8.68051 8.78925 8.40668 8.5417 8.23439C8.41124 8.14359 8.26006 8.08665 8.08672 8.06363L8.39274 6.91633C8.39266 6.91606 8.39258 6.91578 8.39249 6.91551C8.11765 6.00193 7.09058 5.63929 6.00287 5.97078L4.47732 6.43571L4.31879 6.48402L4.36711 6.64255L4.65989 7.60326L4.7082 7.76179L4.86673 7.71348L6.39228 7.24855C6.52734 7.20739 6.64207 7.21709 6.72522 7.25438C6.80622 7.2907 6.86765 7.35733 6.89632 7.4554L6.89628 7.45541L6.8974 7.45894C6.92724 7.55311 6.91093 7.64746 6.84841 7.73495C6.78385 7.82528 6.66655 7.91125 6.49582 7.96328L5.07484 8.39634L4.91631 8.44465L4.96463 8.60318L5.22754 9.46586L5.27585 9.62439L5.43438 9.57608L6.85475 9.14321C7.04856 9.08583 7.21207 9.08861 7.32853 9.12723C7.44142 9.16466 7.50986 9.23426 7.53783 9.32603C7.56931 9.42931 7.55271 9.5266 7.49601 9.61127C7.43759 9.69851 7.33047 9.78022 7.17146 9.82868L5.65245 10.2916L5.49392 10.3399L5.54223 10.4985L5.84896 11.5049L5.89727 11.6634L6.0558 11.6151L7.56828 11.1542C8.16741 10.9716 8.6054 10.6702 8.85741 10.2865C9.1115 9.89951 9.16523 9.44532 9.02397 8.98756ZM9.02397 8.98756C9.02405 8.98781 9.02412 8.98805 9.02419 8.9883L8.86539 9.03572L9.02373 8.98678C9.02381 8.98704 9.02389 8.9873 9.02397 8.98756Z" fill="white" stroke="#121212" stroke-width="0.331457"/>
<defs>
<filter id="filter0_d_1536_13666" x="0.834229" y="0.834229" width="14.75" height="14.456" filterUnits="userSpaceOnUse" color-interpolation-filters="sRGB">
<feFlood flood-opacity="0" result="BackgroundImageFix"/>
<feColorMatrix in="SourceAlpha" type="matrix" values="0 0 0 0 0 0 0 0 0 0 0 0 0 0 0 0 0 0 127 0" result="hardAlpha"/>
<feOffset dx="0.165728" dy="0.165728"/>
<feColorMatrix type="matrix" values="0 0 0 0 0 0 0 0 0 0 0 0 0 0 0 0 0 0 1 0"/>
<feBlend mode="normal" in2="BackgroundImageFix" result="effect1_dropShadow_1536_13666"/>
<feBlend mode="normal" in="SourceGraphic" in2="effect1_dropShadow_1536_13666" result="shape"/>
</filter>
</defs>
</svg>
