<svg width="106" height="22" viewBox="0 0 106 22" fill="none" xmlns="http://www.w3.org/2000/svg">
<path d="M25.175 21.3632L26.4098 17.2856H33.3733L34.6224 21.3632H40.5091L33.6174 0.573242H26.1801L19.2596 21.3632H25.175ZM27.6733 13.1506L29.7982 6.17276H29.9705L32.1098 13.1506H27.6733Z" fill="#121212"/>
<path d="M37.3923 0.573242L45.0306 14.7013V21.3632H50.4579V14.7013L58.0962 0.573242H51.9798L47.816 9.07302H47.6438L43.5087 0.573242H37.3923Z" fill="#121212"/>
<path d="M8.89529 21.3632C15.2414 21.3632 19.2329 17.4579 19.2329 10.9682C19.2329 4.46419 15.2414 0.573242 8.83786 0.573242H0.998535V21.3632H8.89529ZM6.45447 16.7113V5.22515H8.5507C11.8961 5.22515 13.7195 6.57477 13.7195 10.9682C13.7195 15.3473 11.8961 16.7113 8.69428 16.7113H6.45447Z" fill="#121212"/>
<path d="M68.5354 21.3632C74.8815 21.3632 78.873 17.4579 78.873 10.9682C78.873 4.46419 74.8815 0.573242 68.478 0.573242H60.6387V21.3632H68.5354ZM66.0946 16.7113V5.22515H68.1908C71.5362 5.22515 73.3596 6.57477 73.3596 10.9682C73.3596 15.3473 71.5362 16.7113 68.3344 16.7113H66.0946Z" fill="#121212"/>
<path d="M105.083 0.573242H99.6276V21.3632H105.083V0.573242Z" fill="#0EAFE1"/>
<path d="M96.0356 15.4509C96.0499 19.0978 93.2645 21.6822 88.225 21.6822H81.5795V17.26H88.2537C89.9048 17.26 91.0391 16.3268 91.0391 14.9915C91.0391 13.6705 89.7325 12.7373 87.823 12.7229H81.5795V8.93251H87.823C89.5603 8.93251 90.7663 7.99927 90.7519 6.6927C90.7663 5.42921 89.7469 4.53904 88.2824 4.53904H81.5795V0.317871H88.2824C92.8482 0.317871 96.0499 2.87351 96.0356 6.34812C96.0499 8.67409 94.2696 10.2678 91.8144 10.5406V10.7129C95.1167 11.0862 96.0499 12.8952 96.0356 15.4509Z" fill="#0EAFE1"/>
</svg>
