<svg width="669" height="1344" viewBox="0 0 669 1344" fill="none" xmlns="http://www.w3.org/2000/svg">
<path d="M422.893 258.763C425.084 270.814 438.655 301.807 445.773 317.125C446.204 318.052 446.431 319.053 446.423 320.075C446.311 334.034 444.699 364.295 438.898 385.47C433.041 406.849 298.032 432.218 225.636 443.136C222.148 443.661 218.844 441.484 217.914 438.082L204.896 390.438C204.089 387.485 205.301 384.351 207.886 382.71L311.873 316.693C314.593 314.966 315.791 311.59 314.638 308.581C304.255 281.489 287.466 260.85 282.053 256.18C280.896 255.182 279.432 256.796 278.696 255.457C274.511 247.844 269.18 190.208 267.391 173.942L257.2 77.0704C253.619 43.7497 248.915 7.50015 276.028 1.76248C303.142 -3.97519 314.314 24.0756 316.51 38.8183L353.988 313.749C358.695 270.717 369.043 121.537 372.055 89.0239C375.821 48.3821 386.177 11.3263 413.479 18.4984C435.32 24.2361 439.525 54.3589 438.898 68.703C432.622 126.877 420.634 246.332 422.893 258.763Z" fill="#FFF4EA" stroke="#121212" stroke-width="2"/>
<path d="M107.079 240.589C107.618 240.469 107.958 239.935 107.838 239.396C107.718 238.857 107.184 238.517 106.645 238.637L107.079 240.589ZM96.8734 284.307C93.5327 278.017 90.0989 268.296 90.5327 259.542C90.7487 255.183 91.9199 251.121 94.4781 247.828C97.0283 244.545 101.029 241.933 107.079 240.589L106.645 238.637C100.224 240.063 95.783 242.888 92.8987 246.601C90.0223 250.304 88.7653 254.797 88.5351 259.443C88.0765 268.698 91.6785 278.789 95.107 285.245L96.8734 284.307Z" fill="black"/>
<path d="M244.506 210.068C245.045 209.948 245.385 209.414 245.265 208.875C245.146 208.335 244.612 207.995 244.072 208.115L244.506 210.068ZM234.301 253.786C230.96 247.495 227.526 237.775 227.96 229.02C228.176 224.661 229.347 220.6 231.905 217.306C234.456 214.023 238.456 211.411 244.506 210.068L244.072 208.115C237.651 209.541 233.21 212.366 230.326 216.079C227.45 219.782 226.193 224.275 225.962 228.921C225.504 238.177 229.106 248.268 232.534 254.724L234.301 253.786Z" fill="black"/>
<path d="M290.314 199.892C290.853 199.773 291.193 199.238 291.073 198.699C290.953 198.16 290.419 197.82 289.88 197.94L290.314 199.892ZM280.108 243.61C276.768 237.32 273.334 227.6 273.768 218.845C273.984 214.486 275.155 210.424 277.713 207.131C280.263 203.848 284.264 201.236 290.314 199.892L289.88 197.94C283.459 199.366 279.018 202.191 276.134 205.904C273.257 209.607 272 214.1 271.77 218.746C271.311 228.002 274.913 238.093 278.342 244.549L280.108 243.61Z" fill="black"/>
<path d="M336.121 189.718C336.66 189.598 337 189.064 336.881 188.525C336.761 187.986 336.227 187.646 335.688 187.766L336.121 189.718ZM325.916 233.436C322.575 227.146 319.141 217.425 319.575 208.671C319.791 204.312 320.962 200.25 323.521 196.957C326.071 193.674 330.071 191.062 336.121 189.718L335.688 187.766C329.266 189.192 324.826 192.017 321.941 195.73C319.065 199.433 317.808 203.926 317.578 208.572C317.119 217.827 320.721 227.918 324.149 234.374L325.916 233.436Z" fill="black"/>
<path d="M381.927 179.544C382.466 179.424 382.806 178.89 382.686 178.351C382.567 177.811 382.033 177.471 381.493 177.591L381.927 179.544ZM371.722 223.262C368.381 216.971 364.947 207.251 365.381 198.496C365.597 194.137 366.768 190.076 369.326 186.782C371.876 183.499 375.877 180.887 381.927 179.544L381.493 177.591C375.072 179.017 370.631 181.842 367.747 185.555C364.87 189.258 363.613 193.751 363.383 198.397C362.925 207.653 366.527 217.744 369.955 224.2L371.722 223.262Z" fill="black"/>
<path d="M427.737 169.371C428.276 169.251 428.616 168.717 428.496 168.178C428.376 167.639 427.842 167.299 427.303 167.419L427.737 169.371ZM417.531 213.089C414.19 206.799 410.757 197.078 411.19 188.324C411.406 183.965 412.578 179.903 415.136 176.61C417.686 173.327 421.686 170.715 427.737 169.371L427.303 167.419C420.881 168.845 416.441 171.67 413.556 175.383C410.68 179.086 409.423 183.579 409.193 188.225C408.734 197.48 412.336 207.572 415.765 214.027L417.531 213.089Z" fill="black"/>
<rect x="83.7889" y="274.532" width="405.551" height="251.42" rx="21.6163" transform="rotate(-12.5222 83.7889 274.532)" fill="#EBE7D0" stroke="black" stroke-width="2"/>
<mask id="path-9-outside-1_1536_13599" maskUnits="userSpaceOnUse" x="82.5959" y="185.311" width="412.388" height="151.916" fill="black">
<rect fill="white" x="82.5959" y="185.311" width="412.388" height="151.916"/>
<path fill-rule="evenodd" clip-rule="evenodd" d="M491.98 246.534L98.0282 334.032L89.4519 295.417C86.9832 284.302 93.9926 273.29 105.108 270.821L458.808 192.264C469.923 189.795 480.935 196.805 483.404 207.92L491.98 246.534Z"/>
</mask>
<path fill-rule="evenodd" clip-rule="evenodd" d="M491.98 246.534L98.0282 334.032L89.4519 295.417C86.9832 284.302 93.9926 273.29 105.108 270.821L458.808 192.264C469.923 189.795 480.935 196.805 483.404 207.92L491.98 246.534Z" fill="#4AC2E0"/>
<path d="M491.98 246.534L492.414 248.487L494.366 248.053L493.932 246.101L491.98 246.534ZM98.0282 334.032L96.0758 334.465L96.5094 336.418L98.4619 335.984L98.0282 334.032ZM483.404 207.92L485.356 207.486L483.404 207.92ZM491.546 244.582L97.5946 332.079L98.4619 335.984L492.414 248.487L491.546 244.582ZM99.9807 333.598L91.4044 294.984L87.4995 295.851L96.0758 334.465L99.9807 333.598ZM91.4044 294.984C89.1751 284.947 95.5045 275.003 105.541 272.774L104.674 268.869C92.4807 271.577 84.7913 283.657 87.4995 295.851L91.4044 294.984ZM105.541 272.774L459.241 194.216L458.374 190.312L104.674 268.869L105.541 272.774ZM459.241 194.216C469.278 191.987 479.222 198.317 481.451 208.354L485.356 207.486C482.648 195.293 470.568 187.603 458.374 190.312L459.241 194.216ZM481.451 208.354L490.028 246.968L493.932 246.101L485.356 207.486L481.451 208.354Z" fill="black" mask="url(#path-9-outside-1_1536_13599)"/>
<rect x="72.3143" y="266.143" width="405.551" height="251.42" rx="21.6163" transform="rotate(-12.5222 72.3143 266.143)" fill="#F9F6E3" stroke="black" stroke-width="2"/>
<mask id="path-12-outside-2_1536_13599" maskUnits="userSpaceOnUse" x="71.1213" y="176.922" width="412.388" height="151.916" fill="black">
<rect fill="white" x="71.1213" y="176.922" width="412.388" height="151.916"/>
<path fill-rule="evenodd" clip-rule="evenodd" d="M480.505 238.146L86.5537 325.643L77.9773 287.029C75.5086 275.914 82.518 264.902 93.6332 262.433L447.333 183.875C458.448 181.407 469.46 188.416 471.929 199.531L480.505 238.146Z"/>
</mask>
<path fill-rule="evenodd" clip-rule="evenodd" d="M480.505 238.146L86.5537 325.643L77.9773 287.029C75.5086 275.914 82.518 264.902 93.6332 262.433L447.333 183.875C458.448 181.407 469.46 188.416 471.929 199.531L480.505 238.146Z" fill="#4DD9FC"/>
<path d="M480.505 238.146L480.939 240.098L482.891 239.665L482.458 237.712L480.505 238.146ZM86.5537 325.643L84.6012 326.077L85.0349 328.029L86.9873 327.596L86.5537 325.643ZM77.9773 287.029L79.9298 286.595L77.9773 287.029ZM471.929 199.531L469.977 199.965L471.929 199.531ZM480.072 236.193L86.12 323.691L86.9873 327.596L480.939 240.098L480.072 236.193ZM88.5061 325.209L79.9298 286.595L76.0249 287.462L84.6012 326.077L88.5061 325.209ZM79.9298 286.595C77.7005 276.558 84.0299 266.614 94.0669 264.385L93.1996 260.48C81.0061 263.189 73.3167 275.269 76.0249 287.462L79.9298 286.595ZM94.0669 264.385L447.767 185.828L446.9 181.923L93.1996 260.48L94.0669 264.385ZM447.767 185.828C457.804 183.599 467.747 189.928 469.977 199.965L473.882 199.098C471.173 186.904 459.093 179.215 446.9 181.923L447.767 185.828ZM469.977 199.965L478.553 238.579L482.458 237.712L473.882 199.098L469.977 199.965Z" fill="black" mask="url(#path-12-outside-2_1536_13599)"/>
<path d="M119.07 294.593C125.206 293.23 128.984 287.004 127.593 280.74C126.201 274.476 120.143 270.434 114.007 271.797C107.871 273.16 104.093 279.386 105.484 285.65C106.876 291.914 112.934 295.956 119.07 294.593Z" fill="white" stroke="black" stroke-width="2"/>
<path d="M115.883 282.441C115.467 282.804 115.423 283.435 115.786 283.852C116.149 284.268 116.78 284.312 117.197 283.949L115.883 282.441ZM117.197 283.949C120.958 280.673 123.921 275.846 125.836 270.593C127.753 265.334 128.649 259.571 128.21 254.369C127.772 249.179 125.991 244.429 122.425 241.373C118.826 238.289 113.6 237.093 106.644 238.638L107.077 240.59C113.603 239.141 118.129 240.326 121.124 242.892C124.151 245.486 125.805 249.652 126.217 254.538C126.629 259.411 125.789 264.882 123.957 269.908C122.124 274.937 119.324 279.444 115.883 282.441L117.197 283.949Z" fill="black"/>
<path d="M164.88 284.418C171.016 283.055 174.794 276.829 173.403 270.565C172.011 264.301 165.953 260.259 159.817 261.622C153.681 262.985 149.903 269.211 151.295 275.475C152.686 281.739 158.744 285.781 164.88 284.418Z" fill="white" stroke="black" stroke-width="2"/>
<path d="M210.689 274.244C216.824 272.881 220.602 266.655 219.211 260.391C217.82 254.127 211.761 250.085 205.626 251.448C199.49 252.811 195.712 259.037 197.103 265.301C198.494 271.565 204.553 275.607 210.689 274.244Z" fill="white" stroke="black" stroke-width="2"/>
<path d="M256.496 264.07C262.632 262.707 266.41 256.481 265.019 250.217C263.628 243.953 257.569 239.912 251.433 241.274C245.298 242.637 241.52 248.864 242.911 255.127C244.302 261.391 250.361 265.433 256.496 264.07Z" fill="white" stroke="black" stroke-width="2"/>
<path d="M253.309 251.918C252.893 252.281 252.849 252.913 253.212 253.329C253.575 253.746 254.206 253.789 254.623 253.426L253.309 251.918ZM254.623 253.426C258.385 250.15 261.347 245.324 263.262 240.07C265.179 234.811 266.075 229.049 265.637 223.847C265.199 218.656 263.417 213.906 259.851 210.85C256.252 207.766 251.026 206.57 244.07 208.115L244.503 210.067C251.029 208.618 255.555 209.803 258.55 212.369C261.577 214.963 263.232 219.13 263.644 224.015C264.055 228.888 263.215 234.36 261.383 239.385C259.55 244.414 256.75 248.921 253.309 251.918L254.623 253.426Z" fill="black"/>
<path d="M302.305 253.896C308.44 252.533 312.219 246.307 310.827 240.043C309.436 233.779 303.377 229.737 297.242 231.1C291.106 232.463 287.328 238.689 288.719 244.953C290.11 251.217 296.169 255.259 302.305 253.896Z" fill="white" stroke="black" stroke-width="2"/>
<path d="M299.118 241.744C298.701 242.107 298.658 242.738 299.021 243.155C299.383 243.571 300.015 243.615 300.431 243.252L299.118 241.744ZM300.431 243.252C304.193 239.976 307.156 235.149 309.071 229.896C310.988 224.637 311.884 218.874 311.445 213.672C311.007 208.482 309.226 203.732 305.66 200.676C302.06 197.592 296.835 196.396 289.878 197.941L290.312 199.893C296.838 198.444 301.364 199.629 304.358 202.195C307.386 204.789 309.04 208.955 309.452 213.841C309.863 218.714 309.024 224.185 307.192 229.211C305.358 234.24 302.559 238.747 299.118 241.744L300.431 243.252Z" fill="black"/>
<path d="M348.113 243.721C354.249 242.358 358.027 236.132 356.636 229.868C355.245 223.604 349.186 219.563 343.05 220.925C336.915 222.288 333.137 228.515 334.528 234.778C335.919 241.042 341.978 245.084 348.113 243.721Z" fill="white" stroke="black" stroke-width="2"/>
<path d="M344.927 231.569C344.51 231.932 344.466 232.564 344.829 232.98C345.192 233.397 345.824 233.44 346.24 233.077L344.927 231.569ZM346.24 233.077C350.002 229.801 352.964 224.975 354.88 219.721C356.796 214.463 357.693 208.7 357.254 203.498C356.816 198.307 355.035 193.557 351.468 190.501C347.869 187.417 342.643 186.221 335.687 187.766L336.121 189.718C342.646 188.269 347.172 189.454 350.167 192.02C353.194 194.614 354.849 198.781 355.261 203.666C355.672 208.539 354.832 214.011 353.001 219.036C351.167 224.066 348.367 228.572 344.927 231.569L346.24 233.077Z" fill="black"/>
<path d="M393.92 233.547C400.056 232.184 403.834 225.958 402.443 219.694C401.051 213.43 394.993 209.389 388.857 210.751C382.722 212.114 378.943 218.341 380.335 224.604C381.726 230.868 387.784 234.91 393.92 233.547Z" fill="white" stroke="black" stroke-width="2"/>
<path d="M390.733 221.395C390.317 221.758 390.273 222.39 390.636 222.806C390.999 223.222 391.63 223.266 392.047 222.903L390.733 221.395ZM392.047 222.903C395.809 219.627 398.771 214.801 400.686 209.547C402.603 204.288 403.499 198.526 403.06 193.324C402.622 188.133 400.841 183.383 397.275 180.327C393.676 177.243 388.45 176.047 381.494 177.592L381.927 179.544C388.453 178.095 392.979 179.28 395.974 181.846C399.001 184.44 400.655 188.607 401.067 193.492C401.479 198.365 400.639 203.836 398.807 208.862C396.974 213.891 394.174 218.398 390.733 221.395L392.047 222.903Z" fill="black"/>
<path d="M439.731 223.373C445.866 222.01 449.644 215.784 448.253 209.52C446.862 203.256 440.803 199.215 434.668 200.577C428.532 201.94 424.754 208.167 426.145 214.43C427.536 220.694 433.595 224.736 439.731 223.373Z" fill="white" stroke="black" stroke-width="2"/>
<path d="M436.543 211.221C436.127 211.584 436.083 212.216 436.446 212.632C436.809 213.049 437.441 213.092 437.857 212.729L436.543 211.221ZM437.857 212.729C441.619 209.453 444.581 204.627 446.497 199.373C448.413 194.114 449.31 188.352 448.871 183.15C448.433 177.959 446.652 173.209 443.085 170.153C439.486 167.069 434.26 165.873 427.304 167.418L427.738 169.37C434.263 167.921 438.789 169.106 441.784 171.672C444.811 174.266 446.466 178.433 446.878 183.318C447.289 188.191 446.449 193.662 444.618 198.688C442.784 203.717 439.984 208.224 436.543 211.221L437.857 212.729Z" fill="black"/>
<path d="M187.793 236.084C187.768 238.007 187.789 239.656 187.822 240.93C187.279 240.23 186.698 239.441 186.065 238.581C185.726 238.12 185.371 237.639 185 237.14C183.148 234.653 180.937 231.84 178.205 229.354C172.693 224.339 165.065 220.669 154.008 223.389C144.262 225.786 137.722 234.405 136.436 246.558C135.151 258.7 139.072 274.447 150.221 291.527C157.09 302.05 169.385 308.925 179.998 308.123C185.349 307.718 190.268 305.355 193.762 300.542C196.854 296.284 198.774 290.188 198.988 282.004L202.033 286.275C202.051 286.299 202.069 286.322 202.088 286.344C205.248 290.037 210.967 294.921 217.918 297.616C224.901 300.322 233.189 300.833 241.298 295.622C246.242 292.445 249.378 287.402 251.317 281.697C253.255 275.993 254.022 269.553 254.179 263.456C254.493 251.263 252.371 240.249 252.082 238.811C252.062 238.712 252.046 238.623 252.028 238.52L251.042 238.687L252.028 238.52C251.737 236.799 249.152 222.284 242.708 209.186C239.487 202.64 235.26 196.36 229.796 192.229C224.29 188.066 217.548 186.105 209.454 188.21C203.083 189.867 198.578 194.293 195.413 199.856C192.254 205.408 190.387 212.16 189.29 218.645C188.191 225.14 187.855 231.427 187.793 236.084Z" fill="#FFF4EA" stroke="#121212" stroke-width="2" stroke-linejoin="round"/>
<path d="M199.075 282.036C197.349 270.581 192.956 249.554 186.836 239.669" stroke="black" stroke-width="2" stroke-linecap="round" stroke-linejoin="round"/>
<path d="M146.235 372.381L145.356 372.856L145.831 373.736L175.521 428.648L175.996 429.527L176.876 429.052L197.733 417.775C206.296 413.145 211.937 406.686 214.206 399.102C216.476 391.517 215.329 382.954 210.597 374.201C205.854 365.43 199.316 359.779 191.709 357.54C184.103 355.302 175.576 356.517 166.941 361.186L146.235 372.381ZM184.572 406.738L169.12 378.16L173.777 375.642C178.103 373.303 181.7 372.491 184.896 373.469C188.101 374.45 191.188 377.316 194.275 383.025C197.351 388.715 198.063 392.873 197.172 396.077C196.285 399.266 193.733 401.785 189.608 404.015L184.572 406.738Z" fill="#FBDF96" stroke="#121212" stroke-width="2"/>
<path d="M332.982 317.527L331.988 317.422L331.882 318.416L325.317 380.494L325.212 381.488L326.206 381.593L349.786 384.087C359.466 385.111 367.771 382.974 373.931 378.002C380.092 373.03 383.989 365.319 385.035 355.424C386.084 345.508 383.887 337.15 378.879 331.002C373.871 324.854 366.152 321.035 356.39 320.002L332.982 317.527ZM345.171 367.542L348.588 335.234L353.853 335.791C358.744 336.308 362.169 337.673 364.252 340.287C366.341 342.908 367.266 347.018 366.584 353.472C365.904 359.904 364.139 363.736 361.592 365.875C359.058 368.003 355.528 368.638 350.865 368.144L345.171 367.542Z" fill="#FBDF96" stroke="#121212" stroke-width="2"/>
<path d="M451.578 302.324L451.464 301.33L450.471 301.444L434.194 303.302L433.201 303.416L433.314 304.409L440.396 366.43L440.51 367.424L441.503 367.31L457.779 365.452L458.773 365.338L458.659 364.345L451.578 302.324Z" fill="#4DD9FC" stroke="#121212" stroke-width="2"/>
<path d="M390.485 377.208L390.777 378.164L391.733 377.873L410.82 372.056C418.212 369.803 423.492 366.123 426.495 361.55C429.51 356.959 430.161 351.567 428.465 346.075C427.338 342.303 425.633 339.12 422.8 337.148C420.694 335.683 418.066 334.955 414.8 335.049C419.834 331.574 422.383 325.991 420.496 319.928C417.272 309.201 405.108 304.645 391.702 308.731L372.45 314.598L371.493 314.889L371.785 315.846L375.48 327.97L375.771 328.926L376.728 328.635L395.98 322.768C397.892 322.185 399.617 322.293 400.946 322.889C402.262 323.479 403.256 324.574 403.706 326.116L403.71 326.126L403.713 326.137C404.202 327.681 403.913 329.226 402.942 330.584C401.959 331.96 400.255 333.165 397.923 333.875L379.99 339.341L379.034 339.632L379.325 340.589L382.643 351.475L382.935 352.432L383.891 352.14L401.82 346.677C404.424 345.905 406.724 345.909 408.457 346.484C410.168 347.052 411.328 348.167 411.799 349.711C412.293 351.335 412.027 352.901 411.134 354.236C410.23 355.586 408.646 356.747 406.449 357.416L387.28 363.258L386.323 363.55L386.614 364.507L390.485 377.208Z" fill="#4DD9FC" stroke="#121212" stroke-width="2"/>
<circle cx="149.572" cy="361.483" r="17.0072" transform="rotate(-13.2859 149.572 361.483)" fill="white" stroke="#121212" stroke-width="2"/>
<circle cx="182.613" cy="353.682" r="17.0072" transform="rotate(-13.2859 182.613 353.682)" fill="white" stroke="#121212" stroke-width="2"/>
<circle cx="148.067" cy="369.124" r="8.84247" transform="rotate(-13.2859 148.067 369.124)" fill="#121212" stroke="#121212" stroke-width="2"/>
<circle cx="181.106" cy="361.323" r="8.84247" transform="rotate(-13.2859 181.106 361.323)" fill="#121212" stroke="#121212" stroke-width="2"/>
<path d="M225.011 404.59L225.753 404.586L225.965 403.875L229.4 392.325L248.827 392.229L252.418 403.748L252.638 404.454L253.378 404.45L271.053 404.363L272.438 404.356L271.995 403.044L250.995 340.722L250.765 340.038L250.043 340.042L227.712 340.152L226.99 340.155L226.766 340.841L206.295 403.366L205.863 404.684L207.25 404.677L225.011 404.59ZM244.349 377.835L233.731 377.887L238.937 360.485L244.349 377.835Z" fill="#FBDF96" stroke="#121212" stroke-width="2"/>
<path d="M255.956 365.881L254.37 366.426L255.604 367.562L290.904 400.044L297.329 418.72L297.654 419.666L298.6 419.34L314.009 414.04L314.955 413.714L314.63 412.769L308.205 394.093L316.052 346.768L316.327 345.113L314.74 345.659L297.374 351.633L296.784 351.836L296.707 352.455L293.367 379.208L274.356 360.146L273.914 359.703L273.322 359.907L255.956 365.881Z" fill="#FBDF96" stroke="#121212" stroke-width="2"/>
<path d="M172.495 452.904L170.628 453.263L170.272 451.413L172.139 451.053L172.495 452.904ZM173.934 460.372L172.067 460.731L171.707 458.864L173.574 458.505L173.934 460.372ZM186.013 458.662L186.284 460.066L180.584 461.164L178.012 447.814L183.316 446.792L183.586 448.197L179.836 448.919L181.866 459.461L186.013 458.662ZM186.741 445.893L189.446 459.937L187.893 460.236L186.578 453.412L183.241 454.055L182.974 452.667L186.311 452.024L185.188 446.192L186.741 445.893ZM192.815 459.459L191.262 459.758L188.512 445.483L190.065 445.184L192.815 459.459ZM204.942 442.318L207.692 456.593L206.139 456.892L203.389 442.617L204.942 442.318ZM195.116 449.043L196.014 453.702C196.431 455.867 197.386 456.642 198.873 456.356C200.343 456.072 200.942 454.998 200.525 452.833L199.627 448.174C199.207 445.993 198.252 445.217 196.782 445.501C195.295 445.787 194.696 446.862 195.116 449.043ZM194.461 454.001L193.563 449.342C192.978 446.302 194.248 444.532 196.511 444.096C198.758 443.663 200.595 444.835 201.18 447.875L202.078 452.534C202.657 455.541 201.387 457.311 199.14 457.744C196.877 458.18 195.04 457.008 194.461 454.001ZM215.766 452.93L216.037 454.335L210.337 455.433L207.765 442.083L213.068 441.061L213.339 442.465L209.588 443.188L211.619 453.729L215.766 452.93ZM216.494 440.161L219.199 454.205L217.646 454.504L216.331 447.681L212.994 448.324L212.727 446.936L216.064 446.293L214.941 440.46L216.494 440.161ZM222.568 453.727L221.015 454.027L218.265 439.751L219.818 439.452L222.568 453.727ZM234.695 436.586L237.445 450.862L235.892 451.161L233.142 436.886L234.695 436.586ZM224.869 443.311L225.767 447.971C226.184 450.135 227.139 450.911 228.626 450.624C230.096 450.341 230.695 449.266 230.278 447.102L229.38 442.442C228.96 440.262 228.005 439.486 226.535 439.769C225.048 440.056 224.449 441.13 224.869 443.311ZM224.214 448.27L223.316 443.611C222.731 440.57 224.001 438.801 226.264 438.365C228.511 437.932 230.347 439.103 230.933 442.143L231.831 446.803C232.41 449.81 231.14 451.579 228.893 452.012C226.63 452.448 224.793 451.277 224.214 448.27Z" fill="#121212"/>
<path d="M428.27 539.535L423.353 702.676L228.362 702.676L228.362 542.295C205.398 538.345 198.511 519.935 197.191 506.112L428.27 456.05C419.692 448.48 393.084 398.311 402.416 381.438C416.257 356.415 452.456 383.501 469.283 398.311C486.11 413.121 494.233 426.075 494.233 453.388C494.233 466.867 458.34 507.83 428.27 539.535Z" fill="#FFF4EA" stroke="#121212" stroke-width="2" stroke-linejoin="round"/>
<path fill-rule="evenodd" clip-rule="evenodd" d="M221.231 549.272C229.745 549.272 273.202 549.272 307.104 549.272L307.104 549.272L328.033 549.272L349.018 549.272L349.018 549.272C382.92 549.272 426.377 549.272 434.89 549.272C449.228 549.272 469.691 552.128 466.622 574.019C465.077 585.049 457.862 588.239 445.918 589.081C446.167 590.143 446.299 591.249 446.299 592.386L446.299 1275.61C446.299 1283.56 439.858 1290 431.913 1290L223.685 1290C215.74 1290 209.299 1283.56 209.299 1275.61L209.299 592.386C209.299 591.235 209.434 590.116 209.689 589.043C198.052 588.145 191.023 584.89 189.499 574.019C186.431 552.128 206.894 549.272 221.231 549.272Z" fill="#E2CCFB"/>
<path d="M307.104 549.272L307.104 550.272L308.45 550.272L308.061 548.984L307.104 549.272ZM221.231 549.272L221.231 548.272L221.231 549.272ZM307.104 549.272L307.104 548.272L305.758 548.272L306.146 549.561L307.104 549.272ZM328.033 549.272L328.033 550.272L328.033 549.272ZM349.018 549.272L349.976 549.56L350.363 548.272L349.018 548.272L349.018 549.272ZM349.018 549.272L348.06 548.984L347.673 550.272L349.018 550.272L349.018 549.272ZM434.89 549.272L434.89 548.272L434.89 549.272ZM466.622 574.019L467.613 574.158L466.622 574.019ZM445.918 589.081L445.847 588.084L444.675 588.166L444.944 589.31L445.918 589.081ZM446.299 592.386L445.299 592.386L446.299 592.386ZM446.299 1275.61L447.299 1275.61L446.299 1275.61ZM209.299 1275.61L210.299 1275.61L209.299 1275.61ZM209.299 592.386L208.299 592.386L209.299 592.386ZM209.689 589.043L210.662 589.275L210.933 588.136L209.766 588.046L209.689 589.043ZM189.499 574.019L190.49 573.881L189.499 574.019ZM307.104 548.272C273.202 548.272 229.745 548.272 221.231 548.272L221.231 550.272C229.745 550.272 273.202 550.272 307.104 550.272L307.104 548.272ZM306.146 549.561L306.146 549.561L308.061 548.984L308.061 548.983L306.146 549.561ZM328.033 548.272L307.104 548.272L307.104 550.272L328.033 550.272L328.033 548.272ZM349.018 548.272L328.033 548.272L328.033 550.272L349.018 550.272L349.018 548.272ZM349.976 549.56L349.976 549.56L348.06 548.984L348.06 548.984L349.976 549.56ZM434.89 548.272C426.377 548.272 382.92 548.272 349.018 548.272L349.018 550.272C382.92 550.272 426.377 550.272 434.89 550.272L434.89 548.272ZM467.613 574.158C468.402 568.529 467.689 564.029 465.865 560.462C464.041 556.894 461.153 554.351 457.751 552.552C450.995 548.979 442.081 548.272 434.89 548.272L434.89 550.272C442.038 550.272 450.523 550.992 456.816 554.32C459.939 555.972 462.487 558.247 464.085 561.372C465.682 564.497 466.377 568.564 465.632 573.881L467.613 574.158ZM445.988 590.079C452 589.655 457.005 588.634 460.717 586.208C464.495 583.738 466.808 579.898 467.613 574.158L465.632 573.881C464.891 579.17 462.824 582.441 459.622 584.534C456.354 586.67 451.779 587.665 445.847 588.084L445.988 590.079ZM444.944 589.31C445.176 590.297 445.299 591.327 445.299 592.386L447.299 592.386C447.299 591.171 447.158 589.988 446.891 588.852L444.944 589.31ZM445.299 592.386L445.299 1275.61L447.299 1275.61L447.299 592.386L445.299 592.386ZM445.299 1275.61C445.299 1283.01 439.306 1289 431.913 1289L431.913 1291C440.41 1291 447.299 1284.11 447.299 1275.61L445.299 1275.61ZM431.913 1289L223.685 1289L223.685 1291L431.913 1291L431.913 1289ZM223.685 1289C216.292 1289 210.299 1283.01 210.299 1275.61L208.299 1275.61C208.299 1284.11 215.188 1291 223.685 1291L223.685 1289ZM210.299 1275.61L210.299 592.386L208.299 592.386L208.299 1275.61L210.299 1275.61ZM210.299 592.386C210.299 591.314 210.425 590.272 210.662 589.275L208.717 588.812C208.443 589.96 208.299 591.157 208.299 592.386L210.299 592.386ZM188.509 574.158C189.301 579.814 191.559 583.626 195.244 586.101C198.868 588.534 203.75 589.588 209.612 590.04L209.766 588.046C203.992 587.601 199.541 586.577 196.359 584.441C193.24 582.346 191.22 579.096 190.49 573.881L188.509 574.158ZM221.231 548.272C214.041 548.272 205.126 548.979 198.371 552.552C194.969 554.351 192.081 556.894 190.256 560.462C188.432 564.029 187.72 568.529 188.509 574.158L190.49 573.881C189.744 568.564 190.439 564.497 192.037 561.372C193.635 558.247 196.183 555.972 199.306 554.32C205.598 550.992 214.084 550.272 221.231 550.272L221.231 548.272Z" fill="black"/>
</svg>
