<svg width="32" height="67" viewBox="0 0 32 67" fill="none" xmlns="http://www.w3.org/2000/svg">
<path fill-rule="evenodd" clip-rule="evenodd" d="M21.5526 21.3883C18.8738 16.7004 17.0094 12.1507 15.9663 7.76089C14.9414 12.6064 13.0569 17.824 10.3059 22.6382C7.13812 28.1817 4.7078 30.7159 3.09008 32.4027L3.09006 32.4027C2.7301 32.7781 2.41038 33.1115 2.13171 33.4267C2.41038 33.742 2.7301 34.0754 3.09006 34.4507L3.09008 34.4507C4.7078 36.1376 7.13812 38.6717 10.3059 44.2152C13.0569 49.0294 14.9414 54.247 15.9663 59.0925C17.0094 54.7027 18.8738 50.153 21.5526 45.4652C25.0875 39.2792 27.5793 36.1567 29.2178 34.1035L29.2178 34.1034C29.4086 33.8644 29.5877 33.6399 29.7556 33.4267C29.5877 33.2135 29.4086 32.989 29.2178 32.75L29.2178 32.7499C27.5793 30.6967 25.0875 27.5742 21.5526 21.3883ZM31.6489 32.8385C31.3569 32.4535 31.0301 32.0438 30.6654 31.5865L30.6653 31.5864C29.0271 29.5326 26.6232 26.5189 23.1649 20.467C19.1838 13.5002 17.1128 6.95539 16.8579 0.889501C16.8369 0.389874 16.4248 -0.000902344 15.9293 1.56495e-06C15.4337 -0.000902342 15.0216 0.389874 15.0006 0.889501C14.7444 6.98507 12.6578 14.7799 8.69364 21.7169C5.65288 27.0381 3.52066 29.2568 1.9104 30.9323L1.91036 30.9323C1.26897 31.5997 0.710395 32.1809 0.210198 32.8377C0.12854 32.9372 0.0700408 33.051 0.0358146 33.171C0.0117858 33.2548 -3.14703e-05 33.3409 6.29384e-08 33.4267C7.76813e-05 33.6379 0.0719461 33.8472 0.210198 34.0157C0.710395 34.6725 1.26897 35.2537 1.91036 35.9211L1.9104 35.9211C3.52066 37.5967 5.65288 39.8153 8.69364 45.1365C12.6578 52.0736 14.7444 59.8684 15.0006 65.9639C15.0216 66.4636 15.4337 66.8543 15.9293 66.8534C16.4248 66.8543 16.8369 66.4636 16.8579 65.9639C17.1128 59.898 19.1838 53.3532 23.1649 46.3865C26.6232 40.3345 29.0271 37.3208 30.6653 35.267L30.6654 35.2669C31.0301 34.8097 31.3569 34.4 31.6489 34.0149C31.73 33.9159 31.7882 33.8028 31.8224 33.6834C31.87 33.5172 31.871 33.3389 31.8224 33.17C31.7882 33.0507 31.73 32.9375 31.6489 32.8385Z" fill="black"/>
</svg>
