<svg width="13" height="25" viewBox="0 0 13 25" fill="none" xmlns="http://www.w3.org/2000/svg">
<path fill-rule="evenodd" clip-rule="evenodd" d="M7.61679 8.31029C7.02761 7.27924 6.54551 6.26164 6.17333 5.25967C5.79141 6.43435 5.27883 7.622 4.63547 8.74785C3.53647 10.6711 2.62061 11.661 2.05533 12.2516C2.62061 12.8422 3.53647 13.8321 4.63547 15.7554C5.27883 16.8812 5.79141 18.0689 6.17333 19.2435C6.54551 18.2416 7.02761 17.224 7.61679 16.1929C8.81577 14.0947 9.68738 12.974 10.2629 12.2516C9.68738 11.5292 8.81577 10.4085 7.61679 8.31029ZM12.0596 11.7035C11.9551 11.566 11.8401 11.4218 11.7132 11.2626L11.7132 11.2626C11.1401 10.5439 10.3245 9.52099 9.13642 7.44191C7.77456 5.05871 7.08524 2.85292 7.00059 0.838397C6.98082 0.367766 6.59285 -0.000394042 6.12613 3.16518e-07C5.6594 -0.000394042 5.27144 0.367766 5.25167 0.838397C5.16585 2.8809 4.46169 5.5243 3.11584 7.87947C2.08532 9.68285 1.4182 10.3743 0.864896 10.9478C0.626577 11.1948 0.40937 11.4199 0.193331 11.7026C0.139365 11.7695 0.0963987 11.8431 0.0648102 11.9207C0.0212313 12.0273 -7.04629e-05 12.1397 1.75095e-07 12.2516C0.000124264 12.4481 0.0662029 12.6429 0.193331 12.8006C0.40937 13.0833 0.626577 13.3084 0.864896 13.5554C1.4182 14.1289 2.08532 14.8204 3.11584 16.6237C4.46169 18.9789 5.16585 21.6223 5.25167 23.6648C5.27144 24.1354 5.6594 24.5036 6.12613 24.5032C6.59285 24.5036 6.98082 24.1354 7.00059 23.6648C7.08524 21.6503 7.77456 19.4445 9.13642 17.0613C10.3245 14.9822 11.1401 13.9593 11.7132 13.2406L11.7132 13.2406C11.8401 13.0814 11.9551 12.9372 12.0596 12.7997C12.1135 12.7328 12.1563 12.6592 12.1878 12.5816C12.2725 12.3728 12.275 12.1353 12.1878 11.9216C12.1563 11.844 12.1135 11.7704 12.0596 11.7035Z" fill="black"/>
</svg>
