<svg width="85" height="92" viewBox="0 0 85 92" fill="none" xmlns="http://www.w3.org/2000/svg">
<path d="M50.9706 69.3657L50.1317 68.8214L50.9706 69.3657ZM35.782 52.7661L35.8077 53.7658L35.782 52.7661ZM82.8849 74.8255C83.1172 75.3265 83.7116 75.5445 84.2127 75.3122C84.7138 75.08 84.9317 74.4855 84.6995 73.9844L82.8849 74.8255ZM4.22334 2.59877C18.0705 2.42611 37.3665 7.17884 49.2509 17.8695C55.165 23.1896 59.2159 29.9508 59.9079 38.3071C60.6012 46.6791 57.9346 56.7925 50.1317 68.8214L51.8096 69.9099C59.7697 57.6385 62.6419 47.0873 61.9011 38.1421C61.159 29.1812 56.8028 21.9728 50.5884 16.3826C38.2157 5.2526 18.3688 0.422233 4.1984 0.598923L4.22334 2.59877ZM50.1317 68.8214C41.2573 82.5022 31.7834 88.2556 23.7277 89.3784C15.6695 90.5016 8.86548 87.0237 5.16384 81.8941C1.4674 76.7716 0.877901 70.052 5.14512 64.4917C9.45383 58.8775 18.8989 54.2008 35.8077 53.7658L35.7562 51.7665C18.5857 52.2081 8.40175 56.9633 3.55851 63.2741C-1.32622 69.6389 -0.590576 77.3375 3.54201 83.0644C7.6694 88.7841 15.1984 92.5866 24.0038 91.3593C32.8116 90.1316 42.7321 83.9036 51.8096 69.9099L50.1317 68.8214ZM35.8077 53.7658C44.3556 53.5459 54.9362 56.1617 64.026 60.2145C68.5632 62.2375 72.6961 64.6042 75.9951 67.125C79.3084 69.6569 81.7101 72.2908 82.8849 74.8255L84.6995 73.9844C83.3308 71.0315 80.6441 68.1605 77.2094 65.5359C73.7602 62.9002 69.4854 60.4589 64.8404 58.3879C55.566 54.2527 44.6849 51.5368 35.7562 51.7665L35.8077 53.7658Z" fill="black"/>
</svg>
