<svg width="28" height="28" viewBox="0 0 20 21" fill="none" xmlns="http://www.w3.org/2000/svg">
<path d="M14.7917 2.74707C16.2874 2.74707 17.5 3.95963 17.5 5.4554V15.0387C17.5 16.5345 16.2874 17.7471 14.7917 17.7471H5.20833C3.71256 17.7471 2.5 16.5345 2.5 15.0387V5.4554C2.5 3.95963 3.71256 2.74707 5.20833 2.74707H14.7917ZM16.25 7.3304H3.75V15.0387C3.75 15.8442 4.40292 16.4971 5.20833 16.4971H14.7917C15.5971 16.4971 16.25 15.8442 16.25 15.0387V7.3304ZM6.45833 12.3304C7.03363 12.3304 7.5 12.7967 7.5 13.3721C7.5 13.9474 7.03363 14.4137 6.45833 14.4137C5.88303 14.4137 5.41667 13.9474 5.41667 13.3721C5.41667 12.7967 5.88303 12.3304 6.45833 12.3304ZM10 12.3304C10.5753 12.3304 11.0417 12.7967 11.0417 13.3721C11.0417 13.9474 10.5753 14.4137 10 14.4137C9.42467 14.4137 8.95833 13.9474 8.95833 13.3721C8.95833 12.7967 9.42467 12.3304 10 12.3304ZM6.45833 8.99707C7.03363 8.99707 7.5 9.4634 7.5 10.0387C7.5 10.6141 7.03363 11.0804 6.45833 11.0804C5.88303 11.0804 5.41667 10.6141 5.41667 10.0387C5.41667 9.4634 5.88303 8.99707 6.45833 8.99707ZM10 8.99707C10.5753 8.99707 11.0417 9.4634 11.0417 10.0387C11.0417 10.6141 10.5753 11.0804 10 11.0804C9.42467 11.0804 8.95833 10.6141 8.95833 10.0387C8.95833 9.4634 9.42467 8.99707 10 8.99707ZM13.5417 8.99707C14.117 8.99707 14.5833 9.4634 14.5833 10.0387C14.5833 10.6141 14.117 11.0804 13.5417 11.0804C12.9663 11.0804 12.5 10.6141 12.5 10.0387C12.5 9.4634 12.9663 8.99707 13.5417 8.99707ZM14.7917 3.99707H5.20833C4.40292 3.99707 3.75 4.64999 3.75 5.4554V6.0804H16.25V5.4554C16.25 4.64999 15.5971 3.99707 14.7917 3.99707Z" fill="#494D55"/>
</svg>
