<svg width="40" height="40" viewBox="0 0 40 40" fill="none" xmlns="http://www.w3.org/2000/svg">
<rect width="40" height="40" rx="4" fill="#F2F4F6"/>
<path d="M18.7878 11.1021C19.283 10.0988 20.7138 10.0988 21.209 11.1021L23.567 15.8799L28.8395 16.646C29.9468 16.8069 30.3889 18.1677 29.5877 18.9487L25.7724 22.6676L26.6731 27.9189C26.8622 29.0217 25.7047 29.8627 24.7143 29.342L19.9984 26.8627L15.2825 29.342C14.2921 29.8627 13.1346 29.0217 13.3237 27.9189L14.2244 22.6676L10.4092 18.9487C9.60791 18.1677 10.0501 16.8069 11.1574 16.646L16.4299 15.8799L18.7878 11.1021ZM19.9984 12.0385L17.7401 16.6144C17.5434 17.0129 17.1633 17.289 16.7236 17.3529L11.6738 18.0867L15.3279 21.6486C15.6461 21.9587 15.7913 22.4055 15.7161 22.8435L14.8535 27.8729L19.3702 25.4983C19.7635 25.2915 20.2333 25.2915 20.6266 25.4983L25.1433 27.8729L24.2807 22.8435C24.2056 22.4055 24.3508 21.9587 24.6689 21.6486L28.323 18.0867L23.2732 17.3529C22.8335 17.289 22.4534 17.0129 22.2568 16.6144L19.9984 12.0385Z" fill="#494D55"/>
</svg>
