<svg width="21" height="20" viewBox="0 0 21 20" fill="none" xmlns="http://www.w3.org/2000/svg">
<path d="M4.87484 3.3335H16.1248C17.569 3.3335 18.7492 4.46387 18.8289 5.88815L18.8332 6.04183V13.9585C18.8332 15.4027 17.7028 16.5828 16.2785 16.6626L16.1248 16.6668H4.87484C3.43065 16.6668 2.25046 15.5364 2.17079 14.1122L2.1665 13.9585V6.04183C2.1665 4.59764 3.29688 3.41745 4.72115 3.33778L4.87484 3.3335ZM17.5832 7.811L10.7909 11.3866C10.6348 11.4687 10.4524 11.4805 10.2888 11.4218L10.2088 11.3866L3.4165 7.81183V13.9585C3.4165 14.7237 4.00576 15.3512 4.75523 15.412L4.87484 15.4168H16.1248C16.89 15.4168 17.5175 14.8276 17.5783 14.0781L17.5832 13.9585V7.811ZM16.1248 4.5835H4.87484C4.1097 4.5835 3.48218 5.17275 3.42134 5.92222L3.4165 6.04183V6.39933L10.4998 10.1272L17.5832 6.3985V6.04183C17.5832 5.27669 16.9939 4.64917 16.2444 4.58833L16.1248 4.5835Z" fill="#626262"/>
</svg>
