<svg width="16" height="17" viewBox="0 0 16 17" fill="none" xmlns="http://www.w3.org/2000/svg">
<path fill-rule="evenodd" clip-rule="evenodd" d="M1.36407 8.13163C1.21267 8.51587 1.23864 8.94735 1.43505 9.31066C2.21395 10.7514 4.55505 13.2333 7.99994 13.2333C11.4452 13.2333 13.786 10.7498 14.5645 9.31119C14.7611 8.94795 14.7873 8.51645 14.636 8.13213C14.0984 6.7662 12.0524 3.7666 7.99994 3.7666C3.94711 3.7666 1.90145 6.76782 1.36407 8.13163ZM7.99994 5.1666C4.73719 5.1666 3.0849 7.58327 2.6666 8.64486C3.29405 9.80549 5.23915 11.8333 7.99994 11.8333C10.7607 11.8333 12.7058 9.80428 13.3333 8.64486C12.915 7.58206 11.2627 5.1666 7.99994 5.1666ZM7.99994 10.4999C9.10451 10.4999 9.99994 9.6045 9.99994 8.49994C9.99994 7.39537 9.10451 6.49994 7.99994 6.49994C6.89537 6.49994 5.99994 7.39537 5.99994 8.49994C5.99994 9.6045 6.89537 10.4999 7.99994 10.4999Z" fill="#121212"/>
</svg>
