<svg width="311" height="156" viewBox="0 0 311 156" fill="none" xmlns="http://www.w3.org/2000/svg">
<rect x="-0.572295" y="-1.02075" width="295.764" height="69.0357" rx="34.5178" transform="matrix(0.962586 0.270977 -0.270975 0.962586 26.5992 10.6245)" fill="black"/>
<path d="M58.8603 59.7914L62.2071 47.9028L63.9185 48.3845L60.5717 60.2732L58.8603 59.7914ZM46.7062 60.3194L48.049 55.5493L49.7603 56.0311L48.8481 59.2718L60.318 62.5007L59.8875 64.03L46.7062 60.3194ZM55.2846 48.9014C55.1098 49.3827 54.8622 49.8435 54.5833 50.2759C55.1569 52.1468 56.5755 54.1574 58.0898 55.4089L56.6649 56.4225C55.4054 55.2427 54.1461 53.4342 53.4148 51.7743C51.9994 53.2425 50.1562 54.2759 48.3883 54.6231L47.4367 53.1174C50.0667 52.6395 52.6082 50.8006 53.5732 48.4196L49.8045 47.3587L50.2402 45.8111L53.9178 46.8464L54.3996 45.1351L56.111 45.6168L55.6292 47.3282L59.3251 48.3686L58.8894 49.9162L55.2846 48.9014ZM78.0662 61.6023L76.3548 61.1205L78.2358 54.4388L66.602 51.1638L67.0376 49.6163L80.3828 53.3731L78.0662 61.6023ZM78.5887 63.0266L78.1531 64.5741L71.4896 62.6983L70.193 67.3044L68.4816 66.8227L69.7782 62.2165L63.0966 60.3355L63.5322 58.788L78.5887 63.0266ZM91.1749 60.8518C90.4522 63.4189 88.0491 64.7662 85.3 63.9923C82.569 63.2235 81.2035 60.8153 81.9261 58.2482C82.6488 55.6811 85.0701 54.3389 87.801 55.1077C90.5502 55.8816 91.8975 58.2847 91.1749 60.8518ZM94.1593 65.327L91.9298 73.2467L90.2184 72.765L94.6466 57.0348L96.358 57.5165L94.5898 63.7977L96.8109 64.423L96.3804 65.9523L94.1593 65.327ZM89.4635 60.37C89.9196 58.7497 89.1729 57.1444 87.3705 56.637C85.5681 56.1296 84.0936 57.1096 83.6375 58.73C83.1814 60.3503 83.9281 61.9556 85.7305 62.463C87.5329 62.9704 89.0074 61.9904 89.4635 60.37ZM89.5926 70.172L89.157 71.7195L78.4335 68.7007L78.8691 67.1532L83.1112 68.3474L84.167 64.5969L85.8784 65.0787L84.8226 68.8291L89.5926 70.172ZM114.196 73.4237L112.659 78.8856L100.005 75.3236L101.543 69.8617L114.196 73.4237ZM105.931 69.9771L105.258 69.7875C103.2 69.2083 101.991 67.5711 102.499 65.7687C103.001 63.9844 104.887 63.2185 106.944 63.7976L107.618 63.9873C109.675 64.5664 110.884 66.2037 110.382 67.9879C109.875 69.7903 107.989 70.5563 105.931 69.9771ZM102.142 74.2942L111.373 76.8927L112.059 74.4531L102.829 71.8546L102.142 74.2942ZM118.175 67.8043L117.74 69.3518L115.518 68.7265L114.401 72.6955L112.69 72.2137L115.324 62.8557L117.036 63.3375L115.954 67.179L118.175 67.8043ZM112.698 63.04L112.278 64.5329L102.865 61.8832L103.286 60.3903L107.036 61.446L107.426 60.0624L109.137 60.5441L108.748 61.9278L112.698 63.04ZM105.668 68.331L106.341 68.5206C107.379 68.8128 108.404 68.4528 108.671 67.5061C108.932 66.5776 108.256 65.6995 107.218 65.4074L106.544 65.2177C105.506 64.9256 104.471 65.3219 104.21 66.2504C103.943 67.1972 104.63 68.0388 105.668 68.331ZM129.346 83.7797L127.635 83.298L132.063 67.5678L133.774 68.0495L129.346 83.7797ZM124.251 65.7224L127.346 66.5937L125.957 71.5276C125.86 71.8735 125.757 72.2376 125.642 72.5784L127.116 72.9936L128.874 66.7488L130.586 67.2306L126.229 82.7059L124.518 82.2241L126.681 74.5411L125.133 74.1054C124.205 76.6343 122.872 79.0687 120.732 80.8047L119.289 79.6516C121.949 77.6694 123.328 74.3047 124.23 71.1004L125.199 67.6594L123.815 67.2699L124.251 65.7224ZM120.337 64.6205L123.76 65.584L122.514 70.0081C121.561 73.3945 120.107 76.9543 117.216 79.2648L115.791 78.1168C118.438 76.1112 119.885 72.7853 120.787 69.581L121.613 66.6498L119.901 66.168L120.337 64.6205ZM146.209 88.7036L140.729 87.1609C138.162 86.4382 136.971 84.8061 137.493 82.9491C138.026 81.0556 139.894 80.2845 142.461 81.0072L147.941 82.5499C150.508 83.2725 151.717 84.9098 151.184 86.8032C150.662 88.6603 148.776 89.4263 146.209 88.7036ZM141.164 85.6134L146.644 87.1561C148.192 87.5917 149.126 87.2062 149.382 86.2959C149.649 85.3491 149.053 84.5331 147.505 84.0974L142.025 82.5547C140.66 82.1703 139.544 82.5046 139.278 83.4514C139.021 84.3617 139.635 85.1829 141.164 85.6134ZM145.73 78.6069L153.595 80.821L153.16 82.3685L138.103 78.1299L138.539 76.5824L144.019 78.1251L144.813 75.3031L146.525 75.7849L145.73 78.6069ZM153.027 79.5605L151.315 79.0788L152.376 75.3101L140.743 72.0351L141.178 70.4875L154.523 74.2443L153.027 79.5605ZM164.398 84.982L159.956 83.7314C157.116 82.9319 155.585 80.8308 156.236 78.5187C156.887 76.2065 159.284 75.2307 162.124 76.0302L166.566 77.2807C169.388 78.0752 170.924 80.158 170.273 82.4702C169.622 84.7824 167.22 85.7764 164.398 84.982ZM160.391 82.1839L164.834 83.4345C166.636 83.9419 168.06 83.4193 168.47 81.9628C168.88 80.5063 167.938 79.3175 166.136 78.8101L161.693 77.5595C159.891 77.0521 158.448 77.5695 158.038 79.026C157.628 80.4825 158.589 81.6765 160.391 82.1839ZM169.071 88.6946L168.64 90.2239L165.054 89.2142L163.803 93.6566L162.092 93.1748L163.342 88.7325L158.9 87.4819L157.649 91.9242L155.938 91.4425L157.189 87.0001L153.584 85.9854L154.014 84.456L169.071 88.6946ZM170.878 90.6771L171.504 88.4559C172.226 85.8888 174.322 85.0051 176.634 85.656C178.946 86.3069 180.273 88.1542 179.551 90.7213L178.925 92.9424C178.208 95.4913 176.112 96.375 173.8 95.7241C171.488 95.0732 170.161 93.2259 170.878 90.6771ZM184.693 90.813L182.463 98.7327L180.752 98.2509L185.18 82.5207L186.891 83.0025L185.123 89.2836L187.344 89.9089L186.914 91.4382L184.693 90.813ZM173.215 88.9377L172.59 91.1588C172.154 92.7064 172.774 93.7847 174.23 94.1948C175.687 94.6048 176.778 94.0082 177.214 92.4607L177.839 90.2395C178.275 88.692 177.66 87.5954 176.204 87.1854C174.747 86.7753 173.651 87.3902 173.215 88.9377ZM181.649 85.2208L172.583 82.6685L173.018 81.1209L176.659 82.146L177.336 79.7428L179.047 80.2245L178.371 82.6278L182.085 83.6733L181.649 85.2208ZM200.57 99.2124L198.859 98.7306L201.554 89.1542L189.921 85.8792L190.356 84.3316L203.702 88.0884L200.57 99.2124ZM200.852 101.492L200.416 103.04L185.359 98.8014L185.795 97.2538L191.275 98.7965L193.31 91.5687L195.021 92.0504L192.987 99.2783L200.852 101.492ZM214.039 90.6449L215.751 91.1266C215.489 92.0552 215.129 92.9165 214.669 93.7107C215.194 95.5481 216.44 97.471 218.005 98.8938L216.611 99.9358C215.408 98.6935 214.22 96.9834 213.52 95.3519C212.327 96.7258 210.806 97.7319 209.018 98.2897L208.036 96.7554C211.098 95.9277 213.153 93.7946 214.039 90.6449ZM220.157 101.72L222.596 93.0537L224.307 93.5355L221.868 102.202L220.157 101.72ZM208.301 100.839L208.731 99.3092L221.749 102.974L221.318 104.503L208.301 100.839ZM206.84 105.399L207.271 103.869L210.002 104.638L210.673 102.253L212.385 102.735L211.713 105.12L215.755 106.258L217.227 104.098L218.975 104.59L217.503 106.75L220.616 107.626L220.185 109.155L206.84 105.399ZM237.1 112.266L236.669 113.796L223.142 109.988L224.295 105.891L226.007 106.373L225.284 108.94L237.1 112.266ZM224.306 102.574L239.362 106.812L238.927 108.36L223.87 104.121L224.306 102.574ZM234.841 103.889L229.706 102.443C226.957 101.669 225.766 100.037 226.391 97.8162C226.971 95.7589 228.884 94.8239 231.633 95.5978L236.768 97.0432C239.499 97.8119 240.662 99.613 240.083 101.67C239.457 103.892 237.572 104.657 234.841 103.889ZM230.142 100.896L235.276 102.341C236.988 102.823 237.876 102.248 238.189 101.137C238.502 100.027 238.049 99.0542 236.337 98.5725L231.203 97.1272C229.655 96.6915 228.579 97.2335 228.267 98.3441C227.954 99.4547 228.431 100.414 230.142 100.896ZM248.317 104.44C247.932 105.806 248.685 107.039 250.069 107.429C251.434 107.813 252.721 107.154 253.105 105.788C253.489 104.423 252.736 103.189 251.371 102.805C249.987 102.415 248.701 103.075 248.317 104.44ZM246.605 103.958C247.231 101.737 249.489 100.624 251.801 101.275C254.095 101.921 255.442 104.049 254.816 106.27C254.191 108.491 251.927 109.622 249.633 108.976C247.321 108.326 245.98 106.18 246.605 103.958ZM261.378 103.971L259.194 111.727L257.483 111.245L259.666 103.489L261.378 103.971ZM257.721 118.288L257.296 119.799L244.114 116.088L245.334 111.755L256.458 114.886L256.837 113.539L245.713 110.408L246.134 108.915L258.969 112.528L257.754 116.843L246.63 113.711L246.251 115.059L257.721 118.288ZM262.477 114.262L261.437 112.791C264.108 112.029 266.073 110.421 267.12 107.611L263.897 106.704L264.333 105.157L272.69 107.509L272.254 109.057L268.831 108.093C268.636 108.647 268.391 109.168 268.133 109.665C268.707 111.536 269.904 113.425 271.466 114.926L269.997 115.888C268.688 114.537 267.642 112.946 266.96 111.319C265.786 112.698 264.252 113.681 262.477 114.262ZM269.71 123.47L264.23 121.928C261.662 121.205 260.661 119.528 261.137 117.835C261.619 116.123 263.343 115.233 265.911 115.956L271.391 117.499C273.958 118.221 274.964 119.88 274.483 121.591C274.006 123.285 272.277 124.193 269.71 123.47ZM264.655 120.416L270.135 121.959C271.5 122.343 272.419 122.013 272.68 121.084C272.942 120.156 272.331 119.394 270.965 119.01L265.485 117.467C264.12 117.083 263.183 117.408 262.922 118.337C262.66 119.265 263.289 120.032 264.655 120.416ZM276.059 108.104L277.77 108.586L275.136 117.944L273.425 117.462L274.614 113.238L271.027 112.229L271.463 110.681L275.049 111.691L276.059 108.104Z" fill="#121212"/>
<rect x="-0.572295" y="-1.02075" width="295.764" height="69.0357" rx="34.5178" transform="matrix(0.962586 0.270977 -0.270975 0.962586 26.5992 10.6245)" stroke="#121212" stroke-width="1.65496"/>
<rect x="-0.572295" y="-1.02075" width="302.897" height="69.0357" rx="34.5178" transform="matrix(0.962586 0.270977 -0.270975 0.962586 18.2412 0.2508)" fill="white"/>
<path d="M50.5635 49.4272L53.9255 37.4844L55.6447 37.9684L52.2827 49.9112L50.5635 49.4272ZM38.354 49.9575L39.7029 45.1658L41.4221 45.6498L40.5056 48.9052L52.0278 52.1488L51.5953 53.6851L38.354 49.9575ZM46.9715 38.4875C46.7959 38.9711 46.5472 39.434 46.267 39.8683C46.8432 41.7478 48.2683 43.7675 49.7895 45.0247L48.358 46.0429C47.0929 44.8578 45.8278 43.041 45.0932 41.3735C43.6713 42.8484 41.8197 43.8865 40.0438 44.2353L39.0879 42.7227C41.7298 42.2427 44.2829 40.3954 45.2523 38.0036L41.4665 36.9378L41.9041 35.3833L45.5985 36.4233L46.0824 34.7041L47.8016 35.188L47.3177 36.9072L51.0304 37.9524L50.5927 39.507L46.9715 38.4875ZM69.8568 51.2463L68.1376 50.7623L70.0272 44.0502L58.3404 40.7603L58.778 39.2057L72.184 42.9796L69.8568 51.2463ZM70.3818 52.6771L69.9441 54.2317L63.2503 52.3473L61.9477 56.9744L60.2286 56.4905L61.5311 51.8633L54.819 49.9738L55.2566 48.4192L70.3818 52.6771ZM83.0252 50.4924C82.2993 53.0712 79.8852 54.4247 77.1235 53.6472C74.3802 52.8749 73.0084 50.4557 73.7343 47.8769C74.4603 45.2982 76.8926 43.9498 79.636 44.7221C82.3977 45.4996 83.7512 47.9136 83.0252 50.4924ZM86.0232 54.988L83.7836 62.9438L82.0644 62.4598L86.5127 46.658L88.2319 47.142L86.4557 53.4517L88.6869 54.0798L88.2545 55.6161L86.0232 54.988ZM81.306 50.0085C81.7643 48.3807 81.0142 46.7681 79.2035 46.2584C77.3929 45.7487 75.9117 46.7332 75.4535 48.3609C74.9953 49.9886 75.7454 51.6012 77.556 52.1109C79.3666 52.6207 80.8478 51.6362 81.306 50.0085ZM81.4357 59.855L80.9981 61.4096L70.2258 58.3771L70.6634 56.8225L74.9248 58.0221L75.9854 54.2545L77.7046 54.7385L76.644 58.5061L81.4357 59.855ZM106.151 63.1216L104.607 68.6083L91.8959 65.0301L93.4404 59.5433L106.151 63.1216ZM97.8489 59.6593L97.1722 59.4688C95.1056 58.887 93.8908 57.2423 94.4005 55.4317C94.905 53.6393 96.7994 52.8699 98.8661 53.4516L99.5428 53.6421C101.609 54.2239 102.824 55.8686 102.32 57.661C101.81 59.4716 99.9156 60.2411 97.8489 59.6593ZM94.0424 63.996L103.315 66.6064L104.005 64.1556L94.7323 61.5453L94.0424 63.996ZM110.149 57.4765L109.711 59.0311L107.48 58.403L106.357 62.39L104.638 61.906L107.284 52.5054L109.004 52.9894L107.917 56.8484L110.149 57.4765ZM104.647 52.6906L104.224 54.1903L94.7689 51.5285L95.1911 50.0287L98.9587 51.0894L99.35 49.6994L101.069 50.1833L100.678 51.5733L104.647 52.6906ZM97.5841 58.0056L98.2608 58.1961C99.3033 58.4896 100.333 58.128 100.601 57.177C100.863 56.2443 100.184 55.3622 99.1412 55.0687L98.4645 54.8782C97.422 54.5847 96.3822 54.9829 96.1197 55.9156C95.8519 56.8667 96.5416 57.7122 97.5841 58.0056ZM121.37 73.5247L119.651 73.0408L124.099 57.239L125.819 57.7229L121.37 73.5247ZM116.252 55.3852L119.361 56.2604L117.966 61.2168C117.868 61.5643 117.765 61.9301 117.649 62.2724L119.13 62.6894L120.896 56.4163L122.616 56.9002L118.239 72.446L116.52 71.962L118.693 64.244L117.138 63.8064C116.206 66.3468 114.866 68.7923 112.717 70.5362L111.267 69.3778C113.939 67.3865 115.325 64.0066 116.231 60.7877L117.204 57.331L115.814 56.9398L116.252 55.3852ZM112.32 54.2782L115.758 55.2462L114.507 59.6904C113.55 63.0922 112.089 66.6682 109.185 68.9892L107.753 67.836C110.413 65.8213 111.866 62.4802 112.773 59.2613L113.601 56.3168L111.882 55.8328L112.32 54.2782ZM138.31 78.471L132.805 76.9213C130.226 76.1954 129.029 74.5558 129.555 72.6903C130.09 70.7882 131.966 70.0136 134.545 70.7396L140.05 72.2893C142.629 73.0152 143.843 74.66 143.308 76.562C142.783 78.4275 140.888 79.197 138.31 78.471ZM133.242 75.3667L138.747 76.9164C140.302 77.3541 141.24 76.9668 141.497 76.0523C141.765 75.1013 141.167 74.2815 139.612 73.8439L134.107 72.2942C132.736 71.908 131.615 72.2438 131.347 73.1949C131.089 74.1093 131.706 74.9343 133.242 75.3667ZM137.829 68.3283L145.73 70.5525L145.292 72.1071L130.167 67.8492L130.605 66.2946L136.11 67.8444L136.908 65.0095L138.627 65.4935L137.829 68.3283ZM145.159 69.2863L143.44 68.8024L144.505 65.0165L132.819 61.7266L133.256 60.172L146.662 63.9459L145.159 69.2863ZM156.582 74.7325L152.119 73.4762C149.266 72.673 147.729 70.5624 148.382 68.2397C149.036 65.917 151.444 64.9367 154.297 65.7399L158.76 66.9962C161.594 67.7942 163.137 69.8865 162.483 72.2092C161.829 74.532 159.417 75.5305 156.582 74.7325ZM152.557 71.9216L157.019 73.1779C158.83 73.6876 160.261 73.1627 160.673 71.6995C161.085 70.2364 160.138 69.0422 158.327 68.5324L153.865 67.2762C152.054 66.7665 150.605 67.2863 150.193 68.7494C149.781 70.2125 150.746 71.4119 152.557 71.9216ZM161.276 78.462L160.843 79.9983L157.24 78.984L155.984 83.4465L154.265 82.9626L155.521 78.5L151.059 77.2438L149.802 81.7063L148.083 81.2224L149.34 76.7598L145.718 75.7404L146.151 74.2041L161.276 78.462ZM163.092 80.4535L163.72 78.2222C164.446 75.6435 166.551 74.7557 168.874 75.4096C171.196 76.0635 172.529 77.9191 171.803 80.4979L171.175 82.7292C170.455 85.2896 168.349 86.1774 166.027 85.5235C163.704 84.8696 162.371 83.014 163.092 80.4535ZM176.969 80.59L174.729 88.5458L173.01 88.0618L177.458 72.26L179.177 72.744L177.401 79.0537L179.633 79.6818L179.2 81.2181L176.969 80.59ZM165.439 78.7062L164.811 80.9375C164.373 82.492 164.996 83.5753 166.459 83.9872C167.922 84.3991 169.019 83.7998 169.456 82.2452L170.084 80.0139C170.522 78.4593 169.904 77.3578 168.441 76.9459C166.978 76.534 165.876 77.1516 165.439 78.7062ZM173.912 74.9724L164.804 72.4084L165.241 70.8539L168.899 71.8836L169.579 69.4694L171.298 69.9534L170.618 72.3675L174.349 73.4178L173.912 74.9724ZM192.919 89.0277L191.199 88.5437L193.907 78.9237L182.221 75.6337L182.658 74.0791L196.064 77.853L192.919 89.0277ZM193.201 91.3181L192.764 92.8726L177.639 88.6148L178.076 87.0602L183.581 88.6099L185.625 81.3491L187.345 81.8331L185.301 89.0939L193.201 91.3181ZM206.449 80.4211L208.168 80.9051C207.906 81.8379 207.544 82.7031 207.082 83.5009C207.609 85.3467 208.861 87.2783 210.433 88.7076L209.033 89.7544C207.825 88.5064 206.63 86.7885 205.927 85.1497C204.729 86.5297 203.201 87.5405 201.405 88.1008L200.418 86.5595C203.494 85.7281 205.558 83.5852 206.449 80.4211ZM212.594 91.5466L215.045 82.841L216.764 83.3249L214.313 92.0306L212.594 91.5466ZM200.685 90.6612L201.117 89.1249L214.194 92.8062L213.761 94.3424L200.685 90.6612ZM199.217 95.242L199.65 93.7058L202.393 94.478L203.068 92.0822L204.787 92.5661L204.112 94.962L208.173 96.105L209.652 93.9356L211.407 94.4299L209.928 96.5992L213.056 97.4797L212.623 99.0159L199.217 95.242ZM229.615 102.141L229.182 103.677L215.593 99.852L216.752 95.737L218.471 96.2209L217.745 98.7997L229.615 102.141ZM216.762 92.4041L231.887 96.662L231.45 98.2165L216.325 93.9587L216.762 92.4041ZM227.345 93.7253L222.188 92.2734C219.426 91.4959 218.229 89.8564 218.858 87.6251C219.439 85.5584 221.362 84.6192 224.123 85.3967L229.281 86.8486C232.024 87.6208 233.193 89.4302 232.611 91.4968C231.983 93.7281 230.089 94.4976 227.345 93.7253ZM222.625 90.7188L227.783 92.1707C229.502 92.6547 230.395 92.077 230.709 90.9614C231.023 89.8457 230.568 88.8688 228.849 88.3848L223.691 86.933C222.136 86.4953 221.055 87.0398 220.741 88.1554C220.427 89.271 220.906 90.2348 222.625 90.7188ZM240.883 94.2793C240.496 95.651 241.253 96.8904 242.643 97.2817C244.015 97.6678 245.306 97.0051 245.693 95.6334C246.079 94.2617 245.322 93.0224 243.951 92.6362C242.561 92.2449 241.269 92.9077 240.883 94.2793ZM239.163 93.7954C239.792 91.5641 242.06 90.4461 244.383 91.0999C246.688 91.7487 248.04 93.8861 247.412 96.1174C246.784 98.3486 244.51 99.485 242.205 98.8362C239.883 98.1824 238.535 96.0266 239.163 93.7954ZM254.003 93.8081L251.81 101.599L250.091 101.115L252.284 93.3241L254.003 93.8081ZM250.33 108.19L249.902 109.708L236.661 105.98L237.886 101.627L249.061 104.773L249.442 103.42L238.267 100.274L238.69 98.7742L251.583 102.404L250.363 106.739L239.189 103.593L238.808 104.946L250.33 108.19ZM255.108 104.146L254.063 102.668C256.746 101.903 258.72 100.288 259.771 97.465L256.534 96.5537L256.972 94.9991L265.367 97.3623L264.929 98.9169L261.491 97.9489C261.294 98.5056 261.049 99.0285 260.79 99.528C261.366 101.408 262.569 103.305 264.138 104.813L262.662 105.779C261.346 104.422 260.296 102.824 259.611 101.19C258.432 102.575 256.89 103.562 255.108 104.146ZM262.373 113.396L256.868 111.846C254.289 111.12 253.283 109.436 253.762 107.735C254.246 106.016 255.978 105.121 258.557 105.847L264.062 107.397C266.64 108.123 267.652 109.789 267.168 111.509C266.689 113.21 264.952 114.122 262.373 113.396ZM257.295 110.328L262.8 111.878C264.172 112.264 265.095 111.932 265.357 110.999C265.62 110.066 265.006 109.301 263.634 108.915L258.129 107.365C256.758 106.979 255.817 107.307 255.554 108.239C255.292 109.172 255.924 109.942 257.295 110.328ZM268.751 97.9598L270.471 98.4438L267.824 107.844L266.105 107.36L267.299 103.117L263.697 102.103L264.134 100.549L267.737 101.563L268.751 97.9598Z" fill="#121212"/>
<rect x="-0.572295" y="-1.02075" width="302.897" height="69.0357" rx="34.5178" transform="matrix(0.962586 0.270977 -0.270975 0.962586 18.2412 0.2508)" stroke="#121212" stroke-width="1.65496"/>
</svg>
