<svg width="318" height="290" viewBox="0 0 318 290" fill="none" xmlns="http://www.w3.org/2000/svg">
<rect x="28.5015" y="137.096" width="250.984" height="70.0799" rx="35.04" transform="rotate(-12.1835 28.5015 137.096)" fill="black"/>
<path d="M71.5307 159.401C71.8346 160.808 73.0963 161.557 74.5226 161.249C75.9302 160.945 76.7704 159.743 76.4665 158.335C76.1626 156.928 74.9009 156.179 73.4934 156.482C72.067 156.79 71.2268 157.993 71.5307 159.401ZM69.7665 159.782C69.2722 157.492 70.7695 155.421 73.153 154.906C75.5177 154.395 77.7363 155.665 78.2307 157.954C78.725 160.244 77.2317 162.334 74.867 162.845C72.4835 163.359 70.2609 162.071 69.7665 159.782ZM83.0247 152.775L84.7509 160.77L82.9867 161.15L81.2606 153.155L83.0247 152.775ZM86.5459 167.355L86.8823 168.913L73.2946 171.846L72.3302 167.38L83.7972 164.904L83.4973 163.515L72.0303 165.991L71.6981 164.452L84.9292 161.595L85.8895 166.043L74.4226 168.519L74.7224 169.908L86.5459 167.355ZM89.338 151.412L91.1021 151.031C91.3047 151.969 91.4094 152.909 91.3934 153.836C92.8212 155.354 94.9607 156.621 97.1019 157.258L96.3052 158.845C94.5033 158.232 92.6417 157.161 91.1767 155.925C90.8029 157.833 89.9219 159.575 88.5429 161.012L86.9323 160.102C89.2554 157.852 90.0754 154.827 89.338 151.412ZM102.618 152.237L102.958 153.814L100.668 154.308L101.572 158.493L99.8079 158.874L97.8021 149.584L99.5663 149.203L100.328 152.731L102.618 152.237ZM99.2188 166.426L94.114 167.528C91.4678 168.099 89.5849 167.111 89.1716 165.197C88.7542 163.264 90.0618 161.587 92.708 161.016L97.8127 159.914C100.459 159.342 102.342 160.33 102.759 162.263C103.173 164.178 101.865 165.855 99.2188 166.426ZM93.7777 165.97L98.8825 164.868C100.309 164.56 101.124 163.697 100.901 162.665C100.674 161.614 99.5754 161.163 98.1491 161.471L93.0443 162.573C91.6367 162.877 90.8026 163.745 91.0296 164.796C91.2524 165.828 92.3701 166.274 93.7777 165.97ZM120.298 159.852L120.638 161.428L106.694 164.439L105.766 160.141L117.758 157.552L117.523 156.463L105.531 159.053L105.19 157.476L118.947 154.506L119.859 158.729L107.866 161.318L108.117 162.482L120.298 159.852ZM103.721 154.945L119.242 151.594L119.582 153.171L104.061 156.522L103.721 154.945ZM107.055 151.554L114.637 149.917C115.519 149.727 116.143 149.16 115.993 148.465C115.839 147.752 115.037 147.493 114.154 147.684L106.572 149.321C105.69 149.511 105.254 150.038 105.408 150.751C105.558 151.445 106.172 151.745 107.055 151.554ZM106.236 147.763L113.818 146.126C115.77 145.705 117.376 146.32 117.757 148.085C118.138 149.849 116.925 151.053 114.973 151.475L107.391 153.112C105.458 153.529 104.025 152.896 103.644 151.132C103.263 149.367 104.303 148.18 106.236 147.763ZM134.361 141.769L137.805 157.722L136.041 158.103L134.903 152.829L132.613 153.323L132.269 151.728L134.558 151.234L133.76 147.536L131.639 147.994L131.295 146.399L133.416 145.941L132.597 142.15L134.361 141.769ZM124.452 144.184L130.101 142.964L130.92 146.755C131.913 151.353 131.296 155.592 128.556 159.188L126.769 158.553C129.605 155.132 130.019 151.133 129.192 147.305L128.682 144.94L124.797 145.779L124.452 144.184ZM141.637 157.091L139.873 157.472L136.372 141.257L138.136 140.876L141.637 157.091ZM153.27 137.608L155.034 137.227L157.384 148.112L155.62 148.493L153.27 137.608ZM157.55 148.882L158.572 153.611L156.807 153.992L156.127 150.839L144.491 153.352L144.15 151.775L157.55 148.882ZM145.53 142.245L147.501 141.82C149.434 141.402 150.996 142.087 151.336 143.663C151.681 145.258 150.54 146.526 148.607 146.943L148.457 146.976L148.68 148.008L153.916 146.877L154.256 148.454L142.846 150.918L142.505 149.341L146.916 148.389L146.693 147.357L146.636 147.369C144.703 147.786 143.141 147.102 142.797 145.507C142.457 143.93 143.597 142.663 145.53 142.245ZM146.316 145.886L148.287 145.461C149.282 145.246 149.71 144.682 149.572 144.044C149.434 143.406 148.808 143.05 147.813 143.265L145.842 143.69C144.848 143.905 144.423 144.488 144.561 145.126C144.699 145.764 145.322 146.101 146.316 145.886ZM145.162 140.085L144.895 138.847L146.659 138.466L146.926 139.705L151.149 138.793L151.481 140.332L141.403 142.508L141.071 140.969L145.162 140.085ZM160.857 148.148L160.362 145.859C159.791 143.213 161.251 141.424 163.635 140.909C166.018 140.395 168.086 141.422 168.658 144.068L169.152 146.357C169.719 148.985 168.259 150.773 165.876 151.288C163.492 151.803 161.424 150.776 160.857 148.148ZM173.314 141.707L175.077 149.871L173.312 150.252L169.811 134.037L171.576 133.656L172.974 140.131L175.263 139.636L175.604 141.213L173.314 141.707ZM162.127 145.478L162.621 147.768C162.965 149.363 164.034 150.036 165.535 149.711C167.037 149.387 167.732 148.334 167.388 146.738L166.894 144.449C166.549 142.853 165.477 142.162 163.975 142.486C162.474 142.81 161.782 143.883 162.127 145.478ZM167.927 138.136L158.581 140.154L158.236 138.559L161.99 137.749L161.455 135.271L163.219 134.89L163.754 137.368L167.583 136.541L167.927 138.136ZM176.111 141.162L191.632 137.811L191.976 139.406L176.455 142.757L176.111 141.162ZM192.307 144.304L192.647 145.881L178.703 148.892L177.641 143.974L179.406 143.594L180.127 146.934L192.307 144.304ZM176.527 138.813L175.279 133.033L177.043 132.652L177.959 136.894L190.139 134.264L190.471 135.803L176.527 138.813ZM210.387 125.63L210.732 127.225L205.308 128.396C205.169 128.662 205.03 128.927 204.849 129.183C206.757 129.831 209.335 129.943 211.807 129.566L211.341 131.14C208.815 131.449 205.995 131.214 203.882 130.432C202.341 132.121 200.162 133.494 198.109 134.173L197.013 132.917C199.527 132.099 201.814 130.682 203.093 128.874L196.975 130.195L196.631 128.6L210.387 125.63ZM213.622 139.702L213.962 141.279L200.018 144.29L199.098 140.029L211.091 137.44L210.86 136.37L198.867 138.96L198.531 137.402L212.288 134.432L213.191 138.617L201.199 141.206L201.442 142.332L213.622 139.702ZM197.07 134.909L212.59 131.558L212.927 133.115L197.406 136.466L197.07 134.909ZM213.36 124.988L220.773 123.387L221.49 126.709C222.572 131.72 221.032 136.688 217.07 140.078L215.645 139.03C219.331 135.995 220.711 131.651 219.799 127.428L219.353 125.364L213.704 126.583L213.36 124.988ZM227.018 130.112L222.776 131.028L222.436 129.451L226.677 128.536L225.279 122.061L227.044 121.68L230.544 137.895L228.78 138.276L227.018 130.112ZM246.396 128.58L247.571 134.023L233.814 136.993L232.639 131.55L238.551 130.274L238.207 128.678L231.413 130.145L231.072 128.569L246.593 125.218L246.934 126.794L239.971 128.298L240.315 129.893L246.396 128.58ZM245.47 132.846L244.964 130.5L234.736 132.708L235.242 135.054L245.47 132.846ZM241.39 125.045L235.741 126.265C232.926 126.872 231.287 126.106 230.85 124.08C230.448 122.222 231.593 120.698 234.408 120.09L240.057 118.87C242.891 118.258 244.562 119.174 244.963 121.032C245.4 123.059 244.224 124.433 241.39 125.045ZM235.405 124.707L241.054 123.487C242.818 123.106 243.295 122.316 243.105 121.434C242.914 120.552 242.153 120.028 240.389 120.409L234.74 121.629C233.164 121.969 232.498 122.8 232.689 123.682C232.879 124.565 233.64 125.088 235.405 124.707Z" fill="#121212"/>
<rect x="28.5015" y="137.096" width="250.984" height="70.0799" rx="35.04" transform="rotate(-12.1835 28.5015 137.096)" stroke="#121212" stroke-width="1.68"/>
<rect x="21.2802" y="130.261" width="251.384" height="70.0799" rx="35.04" transform="rotate(-12.1835 21.2802 130.261)" fill="white"/>
<path d="M64.5048 152.524C64.8087 153.931 66.0704 154.68 67.4967 154.372C68.9043 154.069 69.7446 152.866 69.4407 151.458C69.1368 150.051 67.8751 149.302 66.4675 149.605C65.0412 149.913 64.2009 151.116 64.5048 152.524ZM62.7406 152.905C62.2463 150.615 63.7437 148.544 66.1271 148.029C68.4918 147.518 70.7105 148.788 71.2048 151.077C71.6992 153.367 70.2058 155.457 67.8411 155.968C65.4577 156.482 63.235 155.194 62.7406 152.905ZM75.9989 145.898L77.725 153.893L75.9609 154.273L74.2347 146.279L75.9989 145.898ZM79.5201 160.478L79.8564 162.036L66.2687 164.969L65.3043 160.503L76.7713 158.027L76.4714 156.638L65.0045 159.114L64.6722 157.575L77.9033 154.718L78.8636 159.166L67.3967 161.642L67.6965 163.031L79.5201 160.478ZM82.3121 144.535L84.0762 144.154C84.2788 145.092 84.3835 146.032 84.3675 146.959C85.7954 148.477 87.9349 149.744 90.0761 150.381L89.2793 151.968C87.4774 151.355 85.6158 150.284 84.1509 149.048C83.777 150.956 82.896 152.698 81.517 154.135L79.9064 153.225C82.2295 150.975 83.0495 147.95 82.3121 144.535ZM95.5918 145.36L95.9322 146.937L93.6425 147.431L94.5461 151.616L92.782 151.997L90.7762 142.707L92.5404 142.326L93.3022 145.854L95.5918 145.36ZM92.1929 159.549L87.0882 160.651C84.4419 161.223 82.559 160.234 82.1457 158.32C81.7283 156.387 83.0359 154.71 85.6821 154.139L90.7869 153.037C93.4331 152.465 95.316 153.453 95.7334 155.386C96.1467 157.301 94.8391 158.978 92.1929 159.549ZM86.7518 159.093L91.8566 157.991C93.2829 157.683 94.0983 156.82 93.8754 155.788C93.6485 154.737 92.5495 154.286 91.1232 154.594L86.0184 155.697C84.6109 156 83.7768 156.868 84.0037 157.919C84.2265 158.951 85.3443 159.397 86.7518 159.093ZM113.272 152.975L113.612 154.551L99.6678 157.562L98.7399 153.264L110.732 150.675L110.497 149.586L98.5049 152.176L98.1645 150.599L111.921 147.629L112.833 151.852L100.84 154.441L101.092 155.605L113.272 152.975ZM96.6949 148.068L112.216 144.717L112.556 146.294L97.0353 149.645L96.6949 148.068ZM100.029 144.677L107.611 143.04C108.493 142.85 109.117 142.283 108.967 141.588C108.813 140.875 108.011 140.616 107.129 140.807L99.5465 142.444C98.6644 142.634 98.2281 143.161 98.3821 143.874C98.532 144.568 99.1466 144.868 100.029 144.677ZM99.2102 140.886L106.792 139.249C108.744 138.828 110.35 139.443 110.731 141.208C111.112 142.972 109.899 144.176 107.947 144.598L100.365 146.235C98.432 146.652 96.9988 146.019 96.6179 144.255C96.237 142.491 97.2771 141.303 99.2102 140.886ZM127.335 134.892L130.78 150.845L129.015 151.226L127.877 145.952L125.587 146.446L125.243 144.851L127.532 144.357L126.734 140.659L124.613 141.117L124.269 139.522L126.39 139.064L125.571 135.273L127.335 134.892ZM117.426 137.307L123.076 136.087L123.894 139.878C124.887 144.476 124.27 148.715 121.53 152.311L119.743 151.676C122.579 148.255 122.993 144.256 122.166 140.428L121.656 138.063L117.771 138.902L117.426 137.307ZM134.611 150.214L132.847 150.595L129.346 134.38L131.11 133.999L134.611 150.214ZM146.244 130.731L148.008 130.35L150.358 141.235L148.594 141.616L146.244 130.731ZM150.525 142.005L151.546 146.734L149.782 147.115L149.101 143.962L137.465 146.475L137.125 144.898L150.525 142.005ZM138.504 135.368L140.475 134.943C142.408 134.525 143.97 135.21 144.31 136.786C144.655 138.381 143.514 139.649 141.581 140.066L141.431 140.099L141.654 141.131L146.89 140L147.23 141.577L135.82 144.041L135.479 142.464L139.89 141.512L139.667 140.48L139.611 140.492C137.678 140.909 136.116 140.225 135.771 138.63C135.431 137.053 136.571 135.786 138.504 135.368ZM139.29 139.009L141.261 138.584C142.256 138.369 142.684 137.805 142.546 137.167C142.408 136.529 141.782 136.173 140.787 136.388L138.816 136.813C137.822 137.028 137.398 137.611 137.535 138.249C137.673 138.887 138.296 139.224 139.29 139.009ZM138.136 133.208L137.869 131.97L139.633 131.589L139.9 132.828L144.123 131.916L144.455 133.455L134.377 135.631L134.045 134.092L138.136 133.208ZM153.831 141.271L153.337 138.982C152.765 136.336 154.225 134.547 156.609 134.033C158.992 133.518 161.06 134.545 161.632 137.191L162.126 139.48C162.693 142.108 161.233 143.896 158.85 144.411C156.466 144.926 154.398 143.899 153.831 141.271ZM166.288 134.83L168.051 142.994L166.287 143.375L162.786 127.16L164.55 126.779L165.948 133.254L168.237 132.759L168.578 134.336L166.288 134.83ZM155.101 138.601L155.595 140.891C155.939 142.486 157.008 143.159 158.509 142.834C160.011 142.51 160.706 141.457 160.362 139.861L159.868 137.572C159.523 135.976 158.451 135.285 156.949 135.609C155.448 135.933 154.756 137.006 155.101 138.601ZM160.901 131.259L151.555 133.277L151.211 131.682L154.964 130.872L154.429 128.394L156.193 128.013L156.728 130.491L160.557 129.664L160.901 131.259ZM169.085 134.285L184.606 130.934L184.95 132.529L169.43 135.88L169.085 134.285ZM185.281 137.427L185.621 139.004L171.677 142.015L170.616 137.098L172.38 136.717L173.101 140.057L185.281 137.427ZM169.501 131.936L168.253 126.156L170.017 125.775L170.933 130.017L183.113 127.387L183.446 128.926L169.501 131.936ZM203.361 118.753L203.706 120.348L198.282 121.519C198.143 121.785 198.004 122.051 197.823 122.306C199.731 122.954 202.309 123.066 204.781 122.689L204.315 124.263C201.789 124.572 198.969 124.337 196.856 123.556C195.315 125.244 193.136 126.617 191.083 127.296L189.987 126.04C192.501 125.222 194.788 123.805 196.067 121.997L189.949 123.318L189.605 121.723L203.361 118.753ZM206.596 132.825L206.937 134.402L192.992 137.413L192.072 133.152L204.065 130.563L203.834 129.493L191.842 132.083L191.505 130.525L205.262 127.555L206.165 131.74L194.173 134.329L194.416 135.455L206.596 132.825ZM190.044 128.032L205.564 124.681L205.901 126.238L190.38 129.589L190.044 128.032ZM206.334 118.111L213.747 116.51L214.464 119.832C215.546 124.843 214.006 129.811 210.044 133.201L208.619 132.153C212.305 129.118 213.685 124.774 212.773 120.551L212.327 118.487L206.678 119.706L206.334 118.111ZM219.992 123.235L215.75 124.151L215.41 122.574L219.651 121.659L218.253 115.184L220.018 114.803L223.519 131.018L221.754 131.399L219.992 123.235ZM239.37 121.703L240.545 127.146L226.788 130.116L225.613 124.673L231.525 123.397L231.181 121.802L224.387 123.268L224.047 121.692L239.567 118.341L239.908 119.917L232.945 121.421L233.289 123.016L239.37 121.703ZM238.445 125.969L237.938 123.623L227.71 125.831L228.216 128.177L238.445 125.969ZM234.364 118.168L228.715 119.388C225.9 119.995 224.261 119.23 223.824 117.203C223.423 115.345 224.567 113.821 227.382 113.213L233.031 111.993C235.865 111.382 237.536 112.297 237.937 114.155C238.374 116.182 237.198 117.556 234.364 118.168ZM228.379 117.83L234.028 116.61C235.792 116.229 236.269 115.439 236.079 114.557C235.888 113.675 235.127 113.151 233.363 113.532L227.714 114.752C226.138 115.092 225.472 115.923 225.663 116.806C225.853 117.688 226.614 118.211 228.379 117.83Z" fill="#121212"/>
<rect x="21.2802" y="130.261" width="251.384" height="70.0799" rx="35.04" transform="rotate(-12.1835 21.2802 130.261)" stroke="#121212" stroke-width="1.68"/>
</svg>
