<svg width="153" height="144" viewBox="0 0 153 144" fill="none" xmlns="http://www.w3.org/2000/svg">
<g filter="url(#filter0_d_1138_10609)">
<path d="M127.5 140C142.3 114.4 147.833 50.5 149 15.5L31 2C31.5 6.5 31.5 22.5 27.5 50.5C23.5 78.5 8.83333 109.5 2 121.5L127.5 140Z" fill="#FFEBF5"/>
<path d="M149.7 15.5233C149.712 15.1588 149.442 14.846 149.08 14.8045L31.0796 1.30454C30.8679 1.28032 30.6567 1.35382 30.5058 1.50422C30.3549 1.65462 30.2808 1.86556 30.3043 2.0773C30.7944 6.48806 30.8046 22.418 26.807 50.401C22.8248 78.2764 8.2054 109.188 1.39171 121.154C1.27734 121.354 1.26948 121.599 1.37072 121.807C1.47197 122.014 1.66925 122.159 1.89792 122.193L127.398 140.693C127.682 140.734 127.962 140.599 128.106 140.35C135.581 127.421 140.677 104.921 144.055 81.3744C147.439 57.7929 149.116 33.0415 149.7 15.5233Z" stroke="black" stroke-width="1.4" stroke-linejoin="round"/>
</g>
<g filter="url(#filter1_d_1138_10609)">
<circle cx="53" cy="26" r="12" fill="#F19ABE"/>
<circle cx="53" cy="26" r="12.7" stroke="black" stroke-width="1.4" stroke-linejoin="round"/>
</g>
<defs>
<filter id="filter0_d_1138_10609" x="0.599976" y="0.599976" width="151.8" height="142.8" filterUnits="userSpaceOnUse" color-interpolation-filters="sRGB">
<feFlood flood-opacity="0" result="BackgroundImageFix"/>
<feColorMatrix in="SourceAlpha" type="matrix" values="0 0 0 0 0 0 0 0 0 0 0 0 0 0 0 0 0 0 127 0" result="hardAlpha"/>
<feOffset dx="2" dy="2"/>
<feColorMatrix type="matrix" values="0 0 0 0 0 0 0 0 0 0 0 0 0 0 0 0 0 0 1 0"/>
<feBlend mode="normal" in2="BackgroundImageFix" result="effect1_dropShadow_1138_10609"/>
<feBlend mode="normal" in="SourceGraphic" in2="effect1_dropShadow_1138_10609" result="shape"/>
</filter>
<filter id="filter1_d_1138_10609" x="39.6" y="12.6" width="27.8909" height="27.891" filterUnits="userSpaceOnUse" color-interpolation-filters="sRGB">
<feFlood flood-opacity="0" result="BackgroundImageFix"/>
<feColorMatrix in="SourceAlpha" type="matrix" values="0 0 0 0 0 0 0 0 0 0 0 0 0 0 0 0 0 0 127 0" result="hardAlpha"/>
<feOffset dx="1.09091" dy="1.09091"/>
<feColorMatrix type="matrix" values="0 0 0 0 0 0 0 0 0 0 0 0 0 0 0 0 0 0 1 0"/>
<feBlend mode="normal" in2="BackgroundImageFix" result="effect1_dropShadow_1138_10609"/>
<feBlend mode="normal" in="SourceGraphic" in2="effect1_dropShadow_1138_10609" result="shape"/>
</filter>
</defs>
</svg>
