<svg width="41" height="39" viewBox="0 0 41 39" fill="none" xmlns="http://www.w3.org/2000/svg">
<g filter="url(#filter0_d_1138_10613)">
<path d="M4.51954 11.5487C10.0399 5.62194 18.2236 12.0522 21.6255 16.0082C21.0152 13.5835 23.1716 -2.42653 33.6112 4.22618C41.9629 9.54835 33.0831 27.3892 27.5991 35.6443C12.6768 31.6664 -2.38086 18.9571 4.51954 11.5487Z" fill="#FFA8DB"/>
<path d="M27.3416 36.6106C27.756 36.721 28.1948 36.5549 28.4321 36.1976C31.2055 32.0227 34.8512 25.4081 36.7508 19.1248C37.6993 15.9873 38.2364 12.8561 37.9614 10.1197C37.6835 7.35508 36.5627 4.92125 34.1486 3.38286C31.3738 1.61459 28.9532 1.2363 26.907 1.97963C24.906 2.70653 23.5212 4.4167 22.5834 6.25963C21.6381 8.11734 21.0755 10.2459 20.7854 12.05C20.704 12.5562 20.6432 13.042 20.6015 13.4949C18.8849 11.8705 16.6595 10.1861 14.2624 9.15393C12.5802 8.42954 10.7568 8.00205 8.93771 8.19435C7.09417 8.38925 5.32726 9.21428 3.78779 10.8671C1.79276 13.009 1.39543 15.5705 2.15672 18.1615C2.89989 20.6909 4.73587 23.2424 7.18139 25.6025C12.0827 30.3326 19.7329 34.5823 27.3416 36.6106Z" stroke="black" stroke-width="2" stroke-linecap="round" stroke-linejoin="round"/>
</g>
<defs>
<filter id="filter0_d_1138_10613" x="0.796326" y="0.618652" width="39.2369" height="38.0258" filterUnits="userSpaceOnUse" color-interpolation-filters="sRGB">
<feFlood flood-opacity="0" result="BackgroundImageFix"/>
<feColorMatrix in="SourceAlpha" type="matrix" values="0 0 0 0 0 0 0 0 0 0 0 0 0 0 0 0 0 0 127 0" result="hardAlpha"/>
<feOffset dx="1" dy="1"/>
<feColorMatrix type="matrix" values="0 0 0 0 0 0 0 0 0 0 0 0 0 0 0 0 0 0 1 0"/>
<feBlend mode="normal" in2="BackgroundImageFix" result="effect1_dropShadow_1138_10613"/>
<feBlend mode="normal" in="SourceGraphic" in2="effect1_dropShadow_1138_10613" result="shape"/>
</filter>
</defs>
</svg>
