<svg width="34" height="45" viewBox="0 0 34 45" fill="none" xmlns="http://www.w3.org/2000/svg">
<path fill-rule="evenodd" clip-rule="evenodd" d="M7.61679 28.0964C7.02761 27.0654 6.54551 26.0478 6.17333 25.0458C5.79141 26.2205 5.27883 27.4081 4.63547 28.534C3.53647 30.4572 2.62061 31.4471 2.05533 32.0377C2.62061 32.6283 3.53647 33.6183 4.63547 35.5415C5.27883 36.6673 5.79141 37.855 6.17333 39.0297C6.54551 38.0277 7.02761 37.0101 7.61679 35.979C8.81577 33.8809 9.68738 32.7601 10.2629 32.0377C9.68738 31.3154 8.81577 30.1946 7.61679 28.0964ZM12.0596 31.4896C11.9551 31.3521 11.8401 31.2079 11.7132 31.0488L11.7132 31.0488C11.1401 30.3301 10.3245 29.3071 9.13642 27.228C7.77456 24.8448 7.08524 22.6391 7.00059 20.6245C6.98082 20.1539 6.59285 19.7857 6.12613 19.7861C5.6594 19.7857 5.27144 20.1539 5.25167 20.6245C5.16585 22.667 4.46169 25.3104 3.11584 27.6656C2.08532 29.469 1.4182 30.1604 0.864896 30.7339C0.626577 30.9809 0.40937 31.2061 0.193331 31.4887C0.139365 31.5557 0.0963987 31.6293 0.0648102 31.7069C0.0212313 31.8134 -7.04629e-05 31.9258 1.75095e-07 32.0377C0.000124264 32.2343 0.0662029 32.4291 0.193331 32.5867C0.40937 32.8694 0.626577 33.0945 0.864896 33.3416C1.4182 33.915 2.08532 34.6065 3.11584 36.4099C4.46169 38.765 5.16585 41.4084 5.25167 43.4509C5.27144 43.9216 5.6594 44.2897 6.12613 44.2893C6.59285 44.2897 6.98082 43.9216 7.00059 43.4509C7.08524 41.4364 7.77456 39.2306 9.13642 36.8474C10.3245 34.7683 11.1401 33.7454 11.7132 33.0267L11.7132 33.0267C11.8401 32.8675 11.9551 32.7233 12.0596 32.5859C12.1135 32.5189 12.1563 32.4453 12.1878 32.3677C12.2725 32.1589 12.275 31.9214 12.1878 31.7078C12.1563 31.6302 12.1135 31.5566 12.0596 31.4896Z" fill="black"/>
<path fill-rule="evenodd" clip-rule="evenodd" d="M27.8837 10.0605C26.8712 8.47085 26.0884 6.90755 25.5427 5.37568C24.9971 7.12248 24.1877 8.92076 23.1148 10.6052C21.5366 13.0831 20.2665 14.271 19.4873 14.9998C19.4739 15.0124 19.4606 15.0248 19.4475 15.0371C19.4606 15.0494 19.4739 15.0618 19.4873 15.0744C20.2665 15.8032 21.5366 16.9911 23.1148 19.469C24.1877 21.1535 24.9971 22.9517 25.5427 24.6985C26.0884 23.1667 26.8712 21.6034 27.8837 20.0137C29.5993 17.32 30.8247 15.9324 31.6211 15.0371C30.8247 14.1418 29.5993 12.7542 27.8837 10.0605ZM33.4333 14.4488C33.29 14.2797 33.1315 14.1014 32.9563 13.9042C32.1608 13.0092 31.0178 11.7233 29.3599 9.12028C27.457 6.13258 26.4921 3.36439 26.3736 0.8342C26.3516 0.365061 25.9641 -0.000455541 25.4992 4.26554e-07C25.0344 -0.000455766 24.6469 0.365061 24.6249 0.8342C24.505 3.39463 23.5222 6.70756 21.6386 9.66499C20.1943 11.9326 19.2325 12.8283 18.4591 13.5487C18.1357 13.8499 17.8452 14.1205 17.5661 14.4478C17.4559 14.5687 17.385 14.7144 17.3549 14.8673C17.3439 14.9234 17.3384 14.9803 17.3384 15.0371C17.3384 15.2498 17.4156 15.4614 17.5661 15.6264C17.8452 15.9538 18.1357 16.2243 18.4591 16.5256C19.2325 17.2459 20.1943 18.1416 21.6386 20.4092C23.5222 23.3667 24.505 26.6796 24.6249 29.24C24.6469 29.7092 25.0344 30.0747 25.4992 30.0742C25.9641 30.0747 26.3516 29.7092 26.3736 29.24C26.4921 26.7098 27.457 23.9416 29.3599 20.9539C31.0178 18.3509 32.1608 17.065 32.9563 16.17C33.1315 15.9728 33.29 15.7945 33.4333 15.6254C33.7238 15.3058 33.7401 14.8127 33.4541 14.4734C33.4472 14.4652 33.4403 14.457 33.4333 14.4488Z" fill="black"/>
</svg>
