<svg width="16" height="17" viewBox="0 0 16 17" fill="none" xmlns="http://www.w3.org/2000/svg">
<path d="M5.16634 8.50065C5.16634 9.14498 4.64401 9.66732 3.99967 9.66732C3.35534 9.66732 2.83301 9.14498 2.83301 8.50065C2.83301 7.85632 3.35534 7.33398 3.99967 7.33398C4.64401 7.33398 5.16634 7.85632 5.16634 8.50065ZM9.16634 8.50065C9.16634 9.14498 8.64401 9.66732 7.99967 9.66732C7.35534 9.66732 6.83301 9.14498 6.83301 8.50065C6.83301 7.85632 7.35534 7.33398 7.99967 7.33398C8.64401 7.33398 9.16634 7.85632 9.16634 8.50065ZM11.9997 9.66732C12.644 9.66732 13.1663 9.14498 13.1663 8.50065C13.1663 7.85632 12.644 7.33398 11.9997 7.33398C11.3553 7.33398 10.833 7.85632 10.833 8.50065C10.833 9.14498 11.3553 9.66732 11.9997 9.66732Z" fill="#121212"/>
</svg>
