<svg width="20" height="21" viewBox="0 0 20 21" fill="none" xmlns="http://www.w3.org/2000/svg">
<path d="M10.0003 2.3288C14.6027 2.3288 18.3337 6.05975 18.3337 10.6621C18.3337 15.2645 14.6027 18.9955 10.0003 18.9955C5.39795 18.9955 1.66699 15.2645 1.66699 10.6621C1.66699 6.05975 5.39795 2.3288 10.0003 2.3288ZM10.0003 3.5788C6.08831 3.5788 2.91699 6.75011 2.91699 10.6621C2.91699 14.5741 6.08831 17.7455 10.0003 17.7455C13.9123 17.7455 17.0837 14.5741 17.0837 10.6621C17.0837 6.75011 13.9123 3.5788 10.0003 3.5788ZM10.0003 6.49546C10.3455 6.49546 10.6253 6.77529 10.6253 7.12046V10.0371H13.542C13.8872 10.0371 14.167 10.317 14.167 10.6621C14.167 11.0073 13.8872 11.2871 13.542 11.2871H10.6253V14.2038C10.6253 14.549 10.3455 14.8288 10.0003 14.8288C9.65516 14.8288 9.37533 14.549 9.37533 14.2038V11.2871H6.45866C6.11348 11.2871 5.83366 11.0073 5.83366 10.6621C5.83366 10.317 6.11348 10.0371 6.45866 10.0371H9.37533V7.12046C9.37533 6.77529 9.65516 6.49546 10.0003 6.49546Z" fill="#0EAFE1"/>
</svg>
