<svg width="525" height="460" viewBox="0 0 525 460" fill="none" xmlns="http://www.w3.org/2000/svg">
<rect x="10" y="104" width="514" height="355" rx="21" fill="#121212" stroke="#121212" stroke-width="2"/>
<rect x="1" y="93" width="514" height="355" rx="21" fill="white" stroke="#121212" stroke-width="2"/>
<path d="M416 117C416 117 324.706 51.3075 293.476 28.6633C262.245 6.0192 254.137 5.76682 237.122 18.3753C196.586 48.4134 100 117 100 117" stroke="black" stroke-width="2"/>
<g filter="url(#filter0_d_1362_10189)">
<circle cx="257" cy="12" r="10" fill="#0EAFE1"/>
<circle cx="257" cy="12" r="11" stroke="black" stroke-width="2" stroke-linejoin="round"/>
</g>
<ellipse cx="101.5" cy="117" rx="7.5" ry="2" fill="#121212"/>
<ellipse cx="414.5" cy="117" rx="7.5" ry="2" fill="#121212"/>
<path d="M167.754 344.227H165.176V351.281H179.473V344.227H176.895V345.891H167.754V344.227ZM162.668 354.727H170.988V356.297H164.941V358.219H177.012V359.602H164.965V364.898H180.152V362.906H167.52V361.43H179.566V356.297H173.59V354.727H181.98V352.594H162.668V354.727ZM167.754 349.336V347.789H176.895V349.336H167.754ZM201.152 343.898H198.551V347.742H195.551V349.852H198.551V351.867H195.551V354.023H198.551V359.555H201.152V343.898ZM183.434 354.609L183.715 356.766C187.09 356.766 191.789 356.684 195.809 356.039L195.691 354.141C194.941 354.223 194.168 354.293 193.371 354.352V347.578H195.246V345.492H183.973V347.578H185.824V354.598C184.98 354.609 184.172 354.609 183.434 354.609ZM187.23 364.664H201.691V362.555H189.855V358.336H187.23V364.664ZM188.355 354.562V347.578H190.863V354.48C190.02 354.516 189.176 354.551 188.355 354.562ZM213.785 344.227C208.969 344.238 206.145 345.516 206.145 347.859C206.145 350.227 208.969 351.504 213.785 351.516C218.613 351.504 221.414 350.227 221.426 347.859C221.414 345.516 218.613 344.238 213.785 344.227ZM204.152 354.727H223.465V352.641H204.152V354.727ZM206.426 358.078H218.496V359.484H206.449V364.898H221.637V362.906H209.004V361.336H221.051V356.156H206.426V358.078ZM208.887 347.859C208.875 346.77 210.562 346.148 213.785 346.148C217.055 346.148 218.73 346.77 218.73 347.859C218.73 349.031 217.055 349.57 213.785 349.57C210.562 349.57 208.875 349.031 208.887 347.859ZM247.793 353.836H235.512V347.859H247.629V345.75H232.934V355.922H247.793V353.836ZM230.59 362.391H249.949V360.234H230.59V362.391ZM269.074 343.898H266.473V348.516H262.676V350.648H266.473V354.281H262.605V356.414H266.473V365.109H269.074V343.898ZM252.035 347.812H258.926V351.609H252.105V360.305H253.746C257.039 360.305 259.734 360.234 262.98 359.719L262.77 357.586C259.91 358.008 257.484 358.137 254.684 358.148V353.648H261.48V345.727H252.035V347.812ZM290.566 345.82H278.848V347.906H283.348C283.266 350.426 281.426 352.758 278.051 353.695L279.293 355.688C281.895 354.961 283.758 353.367 284.73 351.305C285.703 353.227 287.52 354.727 290.027 355.406L291.27 353.391C287.93 352.5 286.102 350.238 286.02 347.906H290.566V345.82ZM277.863 358.734L278.191 360.867C281.93 360.867 287.016 360.832 291.762 359.953L291.551 358.008C289.781 358.277 287.906 358.441 286.043 358.547V354.727H283.395V358.664C281.391 358.723 279.48 358.734 277.863 358.734ZM292.816 365.109H295.418V343.898H292.816V365.109ZM309.434 351.375H306.855V354.141H298.512V356.227H317.824V354.141H309.434V351.375ZM299.566 350.531L300.504 352.57C303.996 352.043 306.762 350.461 308.121 348.246C309.469 350.473 312.246 352.043 315.715 352.57L316.723 350.531C312.305 349.98 309.457 347.637 309.457 345.047V344.25H306.809V345.047C306.809 347.578 303.938 349.98 299.566 350.531ZM300.762 361.336C300.762 363.738 303.516 365.062 308.145 365.062C312.738 365.062 315.469 363.738 315.48 361.336C315.469 358.957 312.738 357.598 308.145 357.609C303.516 357.598 300.762 358.957 300.762 361.336ZM303.41 361.336C303.398 360.176 305.027 359.602 308.145 359.602C311.203 359.602 312.855 360.176 312.879 361.336C312.855 362.496 311.203 363.094 308.145 363.094C305.027 363.094 303.398 362.496 303.41 361.336ZM329.59 347.273H325.723V344.508H323.145V347.273H319.207V349.359H329.59V347.273ZM319.816 355.406C319.793 358.348 321.75 360.398 324.434 360.398C327.129 360.398 329.051 358.348 329.051 355.406C329.051 352.523 327.129 350.473 324.434 350.484C321.75 350.473 319.793 352.523 319.816 355.406ZM322.113 355.406C322.102 353.742 323.062 352.641 324.434 352.641C325.793 352.641 326.754 353.742 326.754 355.406C326.754 357.117 325.793 358.184 324.434 358.172C323.062 358.184 322.102 357.117 322.113 355.406ZM330.48 364.125H332.918V354.727H334.98V365.086H337.465V343.898H334.98V352.617H332.918V344.344H330.48V364.125ZM359.355 360.375H354.902V354.961C356.543 353.988 357.539 352.5 357.527 350.648C357.539 347.273 354.211 345.047 349.629 345.047C345.07 345.047 341.766 347.273 341.777 350.648C341.766 352.523 342.785 354.047 344.473 355.02V360.375H339.996V362.508H359.355V360.375ZM344.332 350.648C344.32 348.445 346.465 347.098 349.629 347.109C352.781 347.098 354.973 348.445 354.973 350.648C354.973 352.816 352.781 354.199 349.629 354.188C346.465 354.199 344.32 352.816 344.332 350.648ZM347.051 360.375V355.969C347.848 356.133 348.715 356.227 349.629 356.227C350.566 356.227 351.445 356.133 352.254 355.957V360.375H347.051Z" fill="black"/>
<path d="M79.3672 384.281V384.016H82.5078V383H79.3984V381.312H78.1641V383H75.0234V384.016H78.1641V384.281C78.1562 386.109 76.7031 387.703 74.6328 388.328L75.2422 389.297C76.8906 388.758 78.1797 387.633 78.7812 386.18C79.3984 387.5 80.6406 388.531 82.2422 389.016L82.8203 388.078C80.7656 387.469 79.375 385.945 79.3672 384.281ZM76.0391 394.266L76.5078 395.203C78.5234 394.859 80.3594 393.867 81.1484 392.484C81.9453 393.875 83.7891 394.883 85.8203 395.219L86.2734 394.266C84.0469 393.906 82 392.656 81.8047 391.203H85.7422V390.203H76.5859V391.203H80.5078C80.3047 392.688 78.2734 393.906 76.0391 394.266ZM84.2734 389.453H85.4922V385.844H87.5859V384.812H85.4922V381.375H84.2734V389.453ZM94.7891 382.281C91.8906 382.289 89.7109 383.805 89.7109 386.094C89.7109 388.406 91.8906 389.922 94.7891 389.906C97.6875 389.922 99.8672 388.406 99.8672 386.094C99.8672 383.805 97.6875 382.289 94.7891 382.281ZM88.4609 393.422H101.18V392.391H88.4609V393.422ZM90.8828 386.094C90.8672 384.43 92.5469 383.273 94.7891 383.281C97.0156 383.273 98.6797 384.43 98.6797 386.094C98.6797 387.781 97.0156 388.906 94.7891 388.906C92.5469 388.906 90.8672 387.781 90.8828 386.094ZM107.227 385.109V382.578H106.008V385.109C105.992 387.742 104.281 390.398 102.211 391.344L102.992 392.375C104.617 391.555 105.984 389.797 106.625 387.703C107.289 389.68 108.656 391.328 110.242 392.094L110.992 391.125C108.945 390.195 107.219 387.648 107.227 385.109ZM112.508 395.297H113.742V381.375H112.508V395.297ZM127.352 385.594H119.055V381.891H117.836V386.578H127.352V385.594ZM116.102 389.469H128.82V388.469H116.102V389.469ZM117.758 394.922H127.43V393.906H118.977V390.891H117.758V394.922ZM145.914 381.375H144.727V395.266H145.914V381.375ZM133.805 390.781L133.961 391.828C135.773 391.836 138.688 391.766 140.883 391.359L140.805 390.453C140.344 390.516 139.844 390.562 139.32 390.609V384.172H140.492V383.156H134.102V384.172H135.273V390.773C134.734 390.781 134.234 390.781 133.805 390.781ZM136.398 390.75V384.172H138.18V390.68C137.586 390.711 136.977 390.734 136.398 390.75ZM140.086 387.766H142.023V394.531H143.195V381.719H142.023V386.656H140.086V387.766ZM159.242 381.375H158.008V395.297H159.242V381.375ZM148.305 387.297C148.312 390.258 149.781 392.133 151.852 392.125C153.914 392.133 155.406 390.258 155.398 387.297C155.406 384.344 153.914 382.461 151.852 382.453C149.781 382.461 148.312 384.344 148.305 387.297ZM149.492 387.297C149.492 385.039 150.461 383.555 151.852 383.547C153.25 383.555 154.211 385.039 154.211 387.297C154.211 389.555 153.25 391.039 151.852 391.031C150.461 391.039 149.492 389.555 149.492 387.297ZM166.586 385.641V383.828H169.898V382.812H162.07V383.828H165.352V385.641C165.344 388.047 163.609 390.672 161.617 391.625L162.352 392.594C163.938 391.797 165.344 390.031 165.992 387.992C166.641 389.914 168.039 391.516 169.664 392.25L170.352 391.281C168.305 390.398 166.594 388 166.586 385.641ZM171.836 395.266H173.07V381.375H171.836V395.266ZM186.195 381.375H184.977V395.266H186.195V388.062H188.445V387.031H186.195V381.375ZM175.539 391.656L176.227 392.625C180.75 390.391 182.594 386.805 182.602 382.875H176.18V383.906H181.359C181.078 387.195 179.125 389.875 175.539 391.656ZM196.055 389.531H194.898V395.078H199.727V389.531H198.586V391.266H196.055V389.531ZM193.508 385.188C193.5 387.094 195 388.391 197.117 388.391C199 388.391 200.43 387.312 200.672 385.672H203.57V388.734H204.805V381.375H203.57V384.656H200.664C200.398 383.055 198.984 382 197.117 382C195 382 193.5 383.289 193.508 385.188ZM194.68 385.188C194.68 383.922 195.688 383.031 197.117 383.031C198.516 383.031 199.523 383.922 199.523 385.188C199.523 386.461 198.516 387.367 197.117 387.375C195.688 387.367 194.68 386.461 194.68 385.188ZM196.055 394.109V392.203H198.586V394.109H196.055ZM199.914 394.25L200.555 395.188C201.781 394.664 202.633 393.68 203.07 392.547C203.5 393.695 204.336 394.68 205.617 395.188L206.258 394.25C204.562 393.625 203.68 392.086 203.695 390.625V389.438H202.477V390.625C202.469 392.031 201.586 393.555 199.914 394.25ZM218.617 381.375H217.398V386.969H214.086V387.984H217.398V395.266H218.617V381.375ZM207.133 391.641L207.805 392.625C212.445 390.32 214.109 386.828 214.117 382.891H207.742V383.891H212.883C212.633 387.141 210.891 389.82 207.133 391.641ZM233.945 386.922H231.695V381.375H230.477V395.266H231.695V387.953H233.945V386.922ZM221.523 391.734H222.633C224.734 391.734 226.891 391.594 229.289 391.109L229.133 390.062C226.844 390.547 224.773 390.703 222.742 390.703V382.75H221.523V391.734ZM245.727 383.781H242.867V381.797H241.648V383.781H238.758V384.781H245.727V383.781ZM239.258 388.875C239.258 390.742 240.516 392.055 242.242 392.062C243.992 392.055 245.242 390.742 245.258 388.875C245.242 387.031 243.992 385.727 242.242 385.719C240.516 385.727 239.258 387.031 239.258 388.875ZM240.352 388.875C240.352 387.656 241.141 386.766 242.242 386.75C243.352 386.766 244.164 387.656 244.164 388.875C244.164 390.109 243.352 390.992 242.242 390.984C241.141 390.992 240.352 390.109 240.352 388.875ZM246.445 394.578H247.602V388.25H249.445V395.266H250.617V381.375H249.445V387.234H247.602V381.719H246.445V394.578ZM263.492 381.375H262.258V389.672H263.492V386.031H265.57V385H263.492V381.375ZM253.258 388.531H254.336C257.273 388.531 258.938 388.453 260.883 388.062L260.758 387.047C258.891 387.43 257.273 387.516 254.461 387.531V383.453H259.43V382.438H253.258V388.531ZM254.414 392.578C254.422 394.266 256.188 395.234 259.023 395.234C261.859 395.234 263.602 394.266 263.602 392.578C263.602 390.914 261.859 389.945 259.023 389.938C256.188 389.945 254.422 390.914 254.414 392.578ZM255.617 392.578C255.625 391.555 256.93 390.938 259.023 390.953C261.102 390.938 262.422 391.555 262.414 392.578C262.422 393.609 261.102 394.242 259.023 394.25C256.93 394.242 255.625 393.609 255.617 392.578ZM282.414 381.375H281.227V395.266H282.414V381.375ZM270.305 390.781L270.461 391.828C272.273 391.836 275.188 391.766 277.383 391.359L277.305 390.453C276.844 390.516 276.344 390.562 275.82 390.609V384.172H276.992V383.156H270.602V384.172H271.773V390.773C271.234 390.781 270.734 390.781 270.305 390.781ZM272.898 390.75V384.172H274.68V390.68C274.086 390.711 273.477 390.734 272.898 390.75ZM276.586 387.766H278.523V394.531H279.695V381.719H278.523V386.656H276.586V387.766ZM295.742 381.375H294.508V395.297H295.742V381.375ZM284.805 387.297C284.812 390.258 286.281 392.133 288.352 392.125C290.414 392.133 291.906 390.258 291.898 387.297C291.906 384.344 290.414 382.461 288.352 382.453C286.281 382.461 284.812 384.344 284.805 387.297ZM285.992 387.297C285.992 385.039 286.961 383.555 288.352 383.547C289.75 383.555 290.711 385.039 290.711 387.297C290.711 389.555 289.75 391.039 288.352 391.031C286.961 391.039 285.992 389.555 285.992 387.297ZM303.086 385.641V383.828H306.398V382.812H298.57V383.828H301.852V385.641C301.844 388.047 300.109 390.672 298.117 391.625L298.852 392.594C300.438 391.797 301.844 390.031 302.492 387.992C303.141 389.914 304.539 391.516 306.164 392.25L306.852 391.281C304.805 390.398 303.094 388 303.086 385.641ZM308.336 395.266H309.57V381.375H308.336V395.266ZM323.852 381.375H322.664V395.266H323.852V381.375ZM312.117 387.375C312.125 390.328 313.297 392.211 315.102 392.203C316.812 392.211 317.977 390.516 318.094 387.812H319.883V394.562H321.055V381.672H319.883V386.797H318.086C317.93 384.18 316.789 382.555 315.102 382.547C313.297 382.555 312.125 384.422 312.117 387.375ZM313.273 387.375C313.258 385.117 313.977 383.703 315.102 383.703C316.234 383.703 316.953 385.117 316.945 387.375C316.953 389.625 316.234 391.047 315.102 391.031C313.977 391.047 313.258 389.625 313.273 387.375ZM336.117 382.281C333.172 382.297 331.039 383.734 331.039 385.922C331.039 387.984 332.883 389.352 335.508 389.539V392.453H329.789V393.484H342.508V392.453H336.711V389.539C339.352 389.359 341.195 387.992 341.195 385.922C341.195 383.734 339.07 382.297 336.117 382.281ZM332.227 385.922C332.219 384.352 333.867 383.289 336.117 383.297C338.367 383.289 340.008 384.352 340.008 385.922C340.008 387.523 338.367 388.562 336.117 388.578C333.867 388.562 332.219 387.523 332.227 385.922ZM356.32 389.672H343.602V390.656H346.93V395.266H348.164V390.656H351.758V395.266H352.977V390.656H356.32V389.672ZM345.133 382.938H353.523V384.531H345.164V388.234H355.07V387.219H346.398V385.484H354.773V381.922H345.133V382.938ZM368.195 381.375H366.977V395.266H368.195V388.062H370.445V387.031H368.195V381.375ZM357.539 391.656L358.227 392.625C362.75 390.391 364.594 386.805 364.602 382.875H358.18V383.906H363.359C363.078 387.195 361.125 389.875 357.539 391.656ZM377.086 381.969H375.883V388.016H382.352V381.969H381.133V383.969H377.086V381.969ZM377.086 387.016V384.922H381.133V387.016H377.086ZM377.289 390.203H384.93V391.641H377.32V395.109H386.664V394.109H378.523V392.578H386.148V389.219H377.289V390.203ZM384.93 388.562H386.148V385.422H388.242V384.391H386.148V381.375H384.93V388.562ZM393.258 384.141V382.25H392.086V384.141C392.078 385.688 390.961 387.484 389.133 388.281L389.805 389.234C391.172 388.641 392.172 387.461 392.68 386.141C393.18 387.336 394.141 388.328 395.477 388.844L396.117 387.906C394.336 387.234 393.266 385.68 393.258 384.141ZM391.664 392.766C391.648 394.32 393.43 395.234 396.32 395.234C399.195 395.234 400.984 394.32 400.992 392.766C400.984 391.195 399.195 390.273 396.32 390.281C393.43 390.273 391.648 391.195 391.664 392.766ZM392.883 392.766C392.867 391.805 394.188 391.227 396.32 391.219C398.43 391.227 399.758 391.805 399.773 392.766C399.758 393.711 398.43 394.289 396.32 394.281C394.188 394.289 392.867 393.711 392.883 392.766ZM396.742 389.531H397.898V386.141H399.742V389.969H400.914V381.391H399.742V385.125H397.898V381.656H396.742V389.531ZM414.742 381.391H413.57V385.219H411.758V381.609H410.586V389.781H411.758V386.234H413.57V390H414.742V381.391ZM402.867 383.984H409.992V382.969H407.055V381.438H405.836V382.969H402.867V383.984ZM403.477 387.062C403.469 388.484 404.695 389.438 406.445 389.438C408.203 389.438 409.422 388.484 409.43 387.062C409.422 385.602 408.203 384.688 406.445 384.688C404.695 384.688 403.469 385.602 403.477 387.062ZM403.836 394.172L404.43 395.109C405.758 394.625 406.719 393.688 407.227 392.609C407.648 393.734 408.5 394.719 409.836 395.219C411.141 394.695 411.984 393.641 412.406 392.547C412.891 393.68 413.875 394.625 415.273 395.109L415.852 394.172C414.07 393.625 413.016 392.242 413.023 390.891V390.391H411.82V390.891C411.805 391.906 411.133 393.25 409.812 394.031C408.5 393.32 407.852 392.078 407.867 390.891V390.391H406.664V390.891C406.656 392.156 405.578 393.578 403.836 394.172ZM404.57 387.062C404.57 386.164 405.336 385.602 406.445 385.609C407.555 385.602 408.32 386.164 408.32 387.062C408.32 387.938 407.555 388.508 406.445 388.516C405.336 388.508 404.57 387.938 404.57 387.062ZM420.508 382.453C418.453 382.461 417.016 384.344 417.023 387.297C417.016 390.258 418.453 392.133 420.508 392.125C422.445 392.133 423.836 390.43 423.969 387.703H427.07V395.297H428.289V381.375H427.07V386.688H423.953C423.766 384.086 422.398 382.461 420.508 382.453ZM418.195 387.297C418.203 385.039 419.141 383.555 420.508 383.547C421.867 383.555 422.82 385.039 422.82 387.297C422.82 389.555 421.867 391.039 420.508 391.031C419.141 391.039 418.203 389.555 418.195 387.297ZM443.32 392.453H440.164V388.672C441.312 388.055 442.008 387.07 442.008 385.828C442.008 383.68 439.898 382.266 436.93 382.25C433.961 382.266 431.852 383.68 431.852 385.828C431.852 387.094 432.57 388.094 433.758 388.711V392.453H430.602V393.484H443.32V392.453ZM433.039 385.828C433.031 384.273 434.648 383.25 436.93 383.266C439.188 383.25 440.82 384.273 440.82 385.828C440.82 387.383 439.188 388.422 436.93 388.422C434.648 388.422 433.031 387.383 433.039 385.828ZM434.961 392.453V389.156C435.555 389.312 436.219 389.391 436.93 389.391C437.656 389.391 438.328 389.305 438.93 389.148V392.453H434.961ZM445.898 394.094C446.453 394.086 446.906 393.633 446.898 393.078C446.906 392.531 446.453 392.078 445.898 392.078C445.352 392.078 444.883 392.531 444.898 393.078C444.883 393.633 445.352 394.086 445.898 394.094Z" fill="black"/>
<path d="M154.94 216.201H173.27V263.976H189.65V280.356H173.27V311.361H154.94V280.356H98V267.681L147.53 163.161H167.81L121.985 263.976H154.94V216.201Z" fill="black"/>
<path d="M282.438 274.116V202.551C282.438 187.926 275.028 179.541 261.378 179.541C247.533 179.541 240.318 187.926 240.318 202.551V274.116C240.318 288.741 247.533 296.931 261.378 296.931C275.028 296.931 282.438 288.741 282.438 274.116ZM300.768 200.796V275.871C300.768 298.686 286.143 313.311 261.378 313.311C236.613 313.311 221.988 298.686 221.988 275.871V200.796C221.988 177.786 236.613 163.161 261.378 163.161C286.143 163.161 300.768 177.786 300.768 200.796Z" fill="black"/>
<path d="M389.892 216.201H408.222V263.976H424.602V280.356H408.222V311.361H389.892V280.356H332.952V267.681L382.482 163.161H402.762L356.937 263.976H389.892V216.201Z" fill="black"/>
<circle cx="276.661" cy="168.782" r="20" transform="rotate(-12.7812 276.661 168.782)" fill="white" stroke="#121212" stroke-width="2"/>
<circle cx="19" cy="19" r="20" transform="matrix(-0.975222 0.221228 0.221228 0.975222 251.66 154.971)" fill="white" stroke="#121212" stroke-width="2"/>
<circle cx="272.93" cy="169.629" r="10.3087" transform="rotate(-12.7812 272.93 169.629)" fill="#121212" stroke="#121212" stroke-width="2"/>
<circle cx="9.30872" cy="9.30872" r="10.3087" transform="matrix(-0.975222 0.221228 0.221228 0.975222 248.083 165.72)" fill="#121212" stroke="#121212" stroke-width="2"/>
<path d="M296.219 173.843L295.941 174.893L294.918 174.529L259.237 161.833L258.212 161.468L258.661 160.477C261.158 154.979 266.108 150.668 272.455 149.228C283.227 146.784 293.94 153.536 296.384 164.308C297.123 167.566 297.021 170.821 296.219 173.843Z" fill="white" stroke="#121212" stroke-width="2"/>
<path d="M221.873 190.708L222.577 191.536L223.344 190.765L250.054 163.916L250.821 163.145L249.988 162.445C245.363 158.562 239.037 156.809 232.691 158.249C221.919 160.692 215.167 171.406 217.611 182.178C218.35 185.435 219.846 188.328 221.873 190.708Z" fill="white" stroke="#121212" stroke-width="2"/>
<defs>
<filter id="filter0_d_1362_10189" x="245" y="0" width="25" height="25" filterUnits="userSpaceOnUse" color-interpolation-filters="sRGB">
<feFlood flood-opacity="0" result="BackgroundImageFix"/>
<feColorMatrix in="SourceAlpha" type="matrix" values="0 0 0 0 0 0 0 0 0 0 0 0 0 0 0 0 0 0 127 0" result="hardAlpha"/>
<feOffset dx="1" dy="1"/>
<feColorMatrix type="matrix" values="0 0 0 0 0 0 0 0 0 0 0 0 0 0 0 0 0 0 1 0"/>
<feBlend mode="normal" in2="BackgroundImageFix" result="effect1_dropShadow_1362_10189"/>
<feBlend mode="normal" in="SourceGraphic" in2="effect1_dropShadow_1362_10189" result="shape"/>
</filter>
</defs>
</svg>
