<svg width="24" height="24" viewBox="0 0 24 24" fill="none" xmlns="http://www.w3.org/2000/svg">
<path d="M4.24566 4.4231L4.24083 4.42869L4.23643 4.43462C3.96038 4.80667 3.99085 5.33435 4.32825 5.67175C4.32825 5.67175 4.32825 5.67175 4.32825 5.67175L10.6562 12L4.32825 18.3283C3.95725 18.6993 3.95725 19.3007 4.32825 19.6717C4.69924 20.0427 5.30076 20.0427 5.67175 19.6717L12 13.3438L18.3283 19.6717L18.3335 19.6769L18.339 19.6817L18.4231 19.7543L18.4287 19.7591L18.4346 19.7635C18.8066 20.0396 19.3344 20.0092 19.6717 19.6717L19.6769 19.6665L19.6817 19.661L19.7543 19.5769L19.7591 19.5713L19.7635 19.5654C20.0396 19.1934 20.0092 18.6656 19.6717 18.3283C19.6717 18.3283 19.6717 18.3283 19.6717 18.3283L13.3438 12L19.6717 5.67175C20.0427 5.30076 20.0427 4.69924 19.6717 4.32825C19.3007 3.95725 18.6993 3.95725 18.3283 4.32824L12 10.6562L5.67175 4.32825L5.66657 4.32307L5.66102 4.31828L5.5769 4.24566L5.57131 4.24083L5.56538 4.23643C5.19333 3.96038 4.66565 3.99085 4.32825 4.32825L4.32307 4.33343L4.31828 4.33898L4.24566 4.4231Z" fill="white" stroke="white" stroke-width="0.4"/>
</svg>
