<svg width="16" height="17" viewBox="0 0 16 17" fill="none" xmlns="http://www.w3.org/2000/svg">
<path d="M6.66634 2.33398C9.33574 2.33398 11.4997 4.49794 11.4997 7.16732C11.4997 8.32192 11.0948 9.38192 10.4193 10.2132L13.6865 13.4805C13.8818 13.6757 13.8818 13.9923 13.6865 14.1875C13.5091 14.3651 13.2313 14.3812 13.0355 14.2359L12.9795 14.1875L9.71221 10.9203C8.88094 11.5958 7.82094 12.0007 6.66634 12.0007C3.99697 12.0007 1.83301 9.83672 1.83301 7.16732C1.83301 4.49794 3.99697 2.33398 6.66634 2.33398ZM6.66634 3.33398C4.54925 3.33398 2.83301 5.05022 2.83301 7.16732C2.83301 9.28438 4.54925 11.0007 6.66634 11.0007C8.78341 11.0007 10.4997 9.28438 10.4997 7.16732C10.4997 5.05022 8.78341 3.33398 6.66634 3.33398Z" fill="#A5A5A5"/>
</svg>
