<svg width="20" height="21" viewBox="0 0 20 21" fill="none" xmlns="http://www.w3.org/2000/svg">
<path d="M4.58334 7.16634C4.58334 6.01575 5.51608 5.08301 6.66667 5.08301C7.81726 5.08301 8.75 6.01575 8.75 7.16634C8.75 8.31693 7.81726 9.24967 6.66667 9.24967C5.51608 9.24967 4.58334 8.31693 4.58334 7.16634ZM6.66667 3.83301C4.82572 3.83301 3.33334 5.32539 3.33334 7.16634C3.33334 9.00726 4.82572 10.4997 6.66667 10.4997C8.50759 10.4997 10 9.00726 10 7.16634C10 5.32539 8.50759 3.83301 6.66667 3.83301ZM12.9167 7.99967C12.9167 7.30932 13.4763 6.74967 14.1667 6.74967C14.857 6.74967 15.4167 7.30932 15.4167 7.99967C15.4167 8.69003 14.857 9.24967 14.1667 9.24967C13.4763 9.24967 12.9167 8.69003 12.9167 7.99967ZM14.1667 5.49967C12.7859 5.49967 11.6667 6.61897 11.6667 7.99967C11.6667 9.38042 12.7859 10.4997 14.1667 10.4997C15.5474 10.4997 16.6667 9.38042 16.6667 7.99967C16.6667 6.61897 15.5474 5.49967 14.1667 5.49967ZM11.8737 16.3644C12.4589 16.6023 13.2098 16.7497 14.1675 16.7497C16.0694 16.7497 17.1556 16.1686 17.7483 15.4514C18.0358 15.1033 18.1822 14.7519 18.2564 14.4826C18.2934 14.3481 18.3128 14.233 18.3229 14.1472C18.328 14.1042 18.3308 14.0681 18.3323 14.0403C18.3331 14.0263 18.3336 14.0144 18.3338 14.0046L18.3341 13.9916L18.3342 13.9863V13.9839V13.9818C18.3342 12.9792 17.5213 12.1663 16.5187 12.1663H11.8163C11.7934 12.1663 11.7707 12.1668 11.7481 12.1676C12.0763 12.5102 12.3156 12.9388 12.4283 13.4163H16.5187C16.8283 13.4163 17.0798 13.6652 17.0841 13.9738C17.0838 13.9785 17.0831 13.9876 17.0816 14.0006C17.0778 14.0319 17.0696 14.0843 17.0513 14.1507C17.0148 14.2832 16.9398 14.4674 16.7847 14.6551C16.4919 15.0093 15.8073 15.4997 14.1675 15.4997C13.3508 15.4997 12.771 15.378 12.3585 15.2122C12.2693 15.5456 12.121 15.9478 11.8737 16.3644ZM3.54167 12.1663C2.50614 12.1663 1.66667 13.0058 1.66667 14.0413V14.2506V14.2515L1.66668 14.2537L1.66673 14.2589L1.66696 14.2728C1.66721 14.2835 1.66765 14.2973 1.66842 14.3139C1.66997 14.3471 1.67288 14.3918 1.67832 14.4462C1.68918 14.5548 1.71028 14.7038 1.75138 14.88C1.8333 15.231 1.99712 15.7 2.32653 16.1706C3.00889 17.1454 4.30982 17.9997 6.66667 17.9997C9.02351 17.9997 10.3244 17.1454 11.0068 16.1706C11.3363 15.7 11.5001 15.231 11.5819 14.88C11.6231 14.7038 11.6442 14.5548 11.655 14.4462C11.6605 14.3918 11.6633 14.3471 11.6649 14.3139C11.6657 14.2973 11.6662 14.2835 11.6663 14.2728L11.6666 14.2589L11.6667 14.2537V14.2515V14.0413C11.6667 13.0058 10.8272 12.1663 9.79167 12.1663H3.54167ZM2.91706 14.2557L2.91667 14.2453V14.0413C2.91667 13.6962 3.1965 13.4163 3.54167 13.4163H9.79167C10.1368 13.4163 10.4167 13.6962 10.4167 14.0413V14.2452L10.4163 14.2557C10.4157 14.2682 10.4143 14.2908 10.4113 14.3218C10.405 14.384 10.3919 14.4791 10.3647 14.5959C10.3098 14.8308 10.2003 15.1431 9.98275 15.4538C9.57142 16.0414 8.68484 16.7497 6.66667 16.7497C4.64852 16.7497 3.76196 16.0414 3.35056 15.4538C3.1331 15.1431 3.02349 14.8308 2.96868 14.5959C2.94142 14.4791 2.92834 14.384 2.92211 14.3218C2.91901 14.2908 2.91765 14.2682 2.91706 14.2557Z" fill="#626262"/>
</svg>
