<svg width="20" height="20" viewBox="0 0 20 20" fill="none" xmlns="http://www.w3.org/2000/svg">
<path d="M9.99999 1.66699C11.8409 1.66699 13.3333 3.15938 13.3333 5.00033V6.66699H14.7917C15.8272 6.66699 16.6667 7.50646 16.6667 8.54199V16.4587C16.6667 17.4942 15.8272 18.3337 14.7917 18.3337H5.20833C4.17279 18.3337 3.33333 17.4942 3.33333 16.4587V8.54199C3.33333 7.50646 4.17279 6.66699 5.20833 6.66699H6.66666V5.00033C6.66666 3.15938 8.15904 1.66699 9.99999 1.66699ZM14.7917 7.91699H5.20833C4.86315 7.91699 4.58333 8.19682 4.58333 8.54199V16.4587C4.58333 16.8038 4.86315 17.0837 5.20833 17.0837H14.7917C15.1368 17.0837 15.4167 16.8038 15.4167 16.4587V8.54199C15.4167 8.19682 15.1368 7.91699 14.7917 7.91699ZM10.0001 11.2503C10.6905 11.2503 11.2501 11.81 11.2501 12.5003C11.2501 13.1907 10.6905 13.7503 10.0001 13.7503C9.30974 13.7503 8.75008 13.1907 8.75008 12.5003C8.75008 11.81 9.30974 11.2503 10.0001 11.2503ZM9.99999 2.91699C8.84941 2.91699 7.91666 3.84973 7.91666 5.00033V6.66699H12.0833V5.00033C12.0833 3.84973 11.1506 2.91699 9.99999 2.91699Z" fill="#626262"/>
</svg>
