<svg width="32" height="33" viewBox="0 0 32 33" fill="none" xmlns="http://www.w3.org/2000/svg">
<path d="M23.3333 16.5C27.3835 16.5 30.6667 19.7832 30.6667 23.8333C30.6667 27.8835 27.3835 31.1667 23.3333 31.1667C19.2832 31.1667 16 27.8835 16 23.8333C16 19.7832 19.2832 16.5 23.3333 16.5ZM23.6667 4.5C26.0599 4.5 28 6.44009 28 8.83333L28.0016 16.5301C27.3837 16.1344 26.7123 15.8148 26.0005 15.5848L26 11.8333H6V24.1667C6 25.4553 7.04467 26.5 8.33333 26.5L15.0848 26.5005C15.3148 27.2123 15.6344 27.8837 16.0301 28.5016L8.33333 28.5C5.94009 28.5 4 26.5599 4 24.1667V8.83333C4 6.44009 5.94009 4.5 8.33333 4.5H23.6667ZM23.3333 19.1667L23.2135 19.1775C22.9413 19.2268 22.7268 19.4413 22.6775 19.7135L22.6667 19.8333V23.1667H19.3333L19.2135 23.1775C18.9413 23.2268 18.7268 23.4413 18.6775 23.7135L18.6667 23.8333L18.6775 23.9532C18.7268 24.2253 18.9413 24.4399 19.2135 24.4892L19.3333 24.5H22.6667V27.8333L22.6775 27.9532C22.7268 28.2253 22.9413 28.4399 23.2135 28.4892L23.3333 28.5L23.4532 28.4892C23.7253 28.4399 23.9399 28.2253 23.9892 27.9532L24 27.8333V24.5H27.3333L27.4532 24.4892C27.7253 24.4399 27.9399 24.2253 27.9892 23.9532L28 23.8333L27.9892 23.7135C27.9399 23.4413 27.7253 23.2268 27.4532 23.1775L27.3333 23.1667H24V19.8333L23.9892 19.7135C23.9399 19.4413 23.7253 19.2268 23.4532 19.1775L23.3333 19.1667ZM23.6667 6.5H8.33333C7.04467 6.5 6 7.54467 6 8.83333V9.83333H26V8.83333C26 7.54467 24.9553 6.5 23.6667 6.5Z" fill="#AFB4BF"/>
</svg>
