<svg width="20" height="20" viewBox="0 0 20 20" fill="none" xmlns="http://www.w3.org/2000/svg">
<path d="M2.91667 10.0003C2.91667 6.08831 6.08799 2.91699 10 2.91699C13.912 2.91699 17.0833 6.08831 17.0833 10.0003C17.0833 13.9123 13.912 17.0837 10 17.0837C6.08799 17.0837 2.91667 13.9123 2.91667 10.0003ZM10 1.66699C5.39763 1.66699 1.66667 5.39795 1.66667 10.0003C1.66667 14.6027 5.39763 18.3337 10 18.3337C14.6023 18.3337 18.3333 14.6027 18.3333 10.0003C18.3333 5.39795 14.6023 1.66699 10 1.66699ZM9.99426 5.54055C9.95292 5.2356 9.69126 5.00033 9.37501 5.00033C9.03001 5.00033 8.75001 5.28033 8.75001 5.62533V10.6253L8.75576 10.7101C8.79709 11.0151 9.05876 11.2503 9.37501 11.2503H12.7083L12.7931 11.2446C13.0981 11.2032 13.3333 10.9416 13.3333 10.6253C13.3333 10.2803 13.0533 10.0003 12.7083 10.0003H10V5.62533L9.99426 5.54055Z" fill="#626262"/>
</svg>
