<svg width="20" height="20" viewBox="0 0 20 20" fill="none" xmlns="http://www.w3.org/2000/svg">
<path d="M4.86898 3.8069C7.70266 0.973222 12.297 0.973222 15.1307 3.8069C17.9643 6.64057 17.9643 11.2349 15.1307 14.0686L14.1415 15.0468C13.4124 15.7623 12.4665 16.6823 11.3032 17.8069C10.5764 18.5097 9.42324 18.5097 8.69649 17.8067L5.78721 14.9768C5.42158 14.6178 5.11552 14.3151 4.86898 14.0686C2.03531 11.2349 2.03531 6.64057 4.86898 3.8069ZM14.2467 4.69078C11.9012 2.34526 8.09838 2.34526 5.75287 4.69078C3.40734 7.0363 3.40734 10.8392 5.75287 13.1847L6.99209 14.4076C7.67452 15.0754 8.53241 15.9091 9.56549 16.9082C9.80774 17.1425 10.1921 17.1426 10.4344 16.9083L13.2635 14.1571C13.6542 13.7735 13.9821 13.4493 14.2467 13.1847C16.5922 10.8392 16.5922 7.0363 14.2467 4.69078ZM9.99983 6.66577C11.3812 6.66577 12.5011 7.78564 12.5011 9.16707C12.5011 10.5485 11.3812 11.6683 9.99983 11.6683C8.61841 11.6683 7.49852 10.5485 7.49852 9.16707C7.49852 7.78564 8.61841 6.66577 9.99983 6.66577ZM9.99983 7.91577C9.30874 7.91577 8.74849 8.47599 8.74849 9.16707C8.74849 9.85816 9.30874 10.4183 9.99983 10.4183C10.6909 10.4183 11.2511 9.85816 11.2511 9.16707C11.2511 8.47599 10.6909 7.91577 9.99983 7.91577Z" fill="#626262"/>
</svg>
