<svg width="20" height="20" viewBox="0 0 20 20" fill="none" xmlns="http://www.w3.org/2000/svg">
<path d="M15.2083 2.5C16.474 2.5 17.5 3.52602 17.5 4.79167V15.2083C17.5 16.474 16.474 17.5 15.2083 17.5H4.79167C3.52602 17.5 2.5 16.474 2.5 15.2083V4.79167C2.5 3.52602 3.52602 2.5 4.79167 2.5H15.2083ZM15.2083 3.75H4.79167C4.21637 3.75 3.75 4.21637 3.75 4.79167V15.2083C3.75 15.7837 4.21637 16.25 4.79167 16.25H15.2083C15.7837 16.25 16.25 15.7837 16.25 15.2083V4.79167C16.25 4.21637 15.7837 3.75 15.2083 3.75ZM11.875 9.58333H5.625L5.54019 9.589C5.23513 9.63042 5 9.89192 5 10.2083C5 10.5535 5.27982 10.8333 5.625 10.8333H11.875L11.9598 10.8277C12.2648 10.7863 12.5 10.5247 12.5 10.2083C12.5 9.86317 12.2202 9.58333 11.875 9.58333ZM5.625 12.9167H14.375C14.7202 12.9167 15 13.1965 15 13.5417C15 13.8581 14.7648 14.1196 14.4598 14.161L14.375 14.1667H5.625C5.27982 14.1667 5 13.8868 5 13.5417C5 13.2252 5.23513 12.9637 5.54019 12.9223L5.625 12.9167ZM14.375 6.25H5.625L5.54019 6.25571C5.23513 6.29709 5 6.55858 5 6.875C5 7.22017 5.27982 7.5 5.625 7.5H14.375L14.4598 7.49429C14.7648 7.45291 15 7.19142 15 6.875C15 6.52982 14.7202 6.25 14.375 6.25Z" fill="#626262"/>
</svg>
