<svg width="20" height="20" viewBox="0 0 20 20" fill="none" xmlns="http://www.w3.org/2000/svg">
<path d="M13.9842 4.4006L14.584 3.80088V17.7087C14.584 18.0538 14.8638 18.3337 15.209 18.3337C15.5541 18.3337 15.834 18.0538 15.834 17.7087V3.80088L16.4337 4.4006C16.6778 4.64468 17.0735 4.64468 17.3176 4.4006C17.5616 4.15653 17.5616 3.76079 17.3176 3.51672L15.6509 1.85005C15.4068 1.60598 15.0111 1.60598 14.7671 1.85005L13.1004 3.51672C12.8563 3.76079 12.8563 4.15653 13.1004 4.4006C13.3445 4.64468 13.7401 4.64468 13.9842 4.4006ZM5.00065 16.1997L5.60037 15.6001C5.84445 15.356 6.24018 15.356 6.48426 15.6001C6.72833 15.8442 6.72833 16.2398 6.48426 16.4839L4.81759 18.1506C4.57352 18.3947 4.17778 18.3947 3.93371 18.1506L2.26704 16.4839C2.02297 16.2398 2.02297 15.8442 2.26704 15.6001C2.51112 15.356 2.90685 15.356 3.15092 15.6001L3.75065 16.1997V2.29199C3.75065 1.94682 4.03047 1.66699 4.37565 1.66699C4.72082 1.66699 5.00065 1.94682 5.00065 2.29199V16.1997ZM10.4173 2.29199C10.4173 1.94682 10.1375 1.66699 9.79231 1.66699C9.44715 1.66699 9.16731 1.94682 9.16731 2.29199V17.7087C9.16731 18.0538 9.44715 18.3337 9.79231 18.3337C10.1375 18.3337 10.4173 18.0538 10.4173 17.7087V2.29199Z" fill="#494D55"/>
</svg>
