<svg width="20" height="20" viewBox="0 0 20 20" fill="none" xmlns="http://www.w3.org/2000/svg">
<path d="M8.33268 2.29199C11.6694 2.29199 14.3743 4.99694 14.3743 8.33366C14.3743 9.77691 13.8683 11.1019 13.0239 12.141L17.1079 16.2251C17.352 16.4692 17.352 16.8648 17.1079 17.1089C16.8861 17.3308 16.5388 17.351 16.2942 17.1694L16.2241 17.1089L12.14 13.0249C11.1009 13.8692 9.77593 14.3753 8.33268 14.3753C4.99597 14.3753 2.29102 11.6704 2.29102 8.33366C2.29102 4.99694 4.99597 2.29199 8.33268 2.29199ZM8.33268 3.54199C5.68632 3.54199 3.54102 5.68729 3.54102 8.33366C3.54102 10.98 5.68632 13.1253 8.33268 13.1253C10.979 13.1253 13.1243 10.98 13.1243 8.33366C13.1243 5.68729 10.979 3.54199 8.33268 3.54199Z" fill="#494D55"/>
</svg>
