<svg width="20" height="20" viewBox="0 0 20 20" fill="none" xmlns="http://www.w3.org/2000/svg">
<path d="M14.7917 2.5C16.2874 2.5 17.5 3.71256 17.5 5.20833V14.7917C17.5 16.2874 16.2874 17.5 14.7917 17.5H5.20833C3.71256 17.5 2.5 16.2874 2.5 14.7917V5.20833C2.5 3.71256 3.71256 2.5 5.20833 2.5H14.7917ZM15.2754 16.1678L10.4373 11.429C10.2163 11.2127 9.87508 11.193 9.63233 11.37L9.56267 11.429L4.72371 16.1676C4.87533 16.2209 5.03844 16.25 5.20833 16.25H14.7917C14.9612 16.25 15.1241 16.2211 15.2754 16.1678ZM14.7917 3.75H5.20833C4.40292 3.75 3.75 4.40292 3.75 5.20833V14.7917C3.75 14.9653 3.78036 15.1319 3.83605 15.2864L8.68817 10.5358C9.38242 9.85608 10.4729 9.82375 11.2048 10.4388L11.3118 10.5359L16.1637 15.2872C16.2195 15.1325 16.25 14.9657 16.25 14.7917V5.20833C16.25 4.40292 15.5971 3.75 14.7917 3.75ZM12.7101 5.41667C13.7466 5.41667 14.5868 6.25692 14.5868 7.29343C14.5868 8.32993 13.7466 9.17017 12.7101 9.17017C11.6736 9.17017 10.8333 8.32993 10.8333 7.29343C10.8333 6.25692 11.6736 5.41667 12.7101 5.41667ZM12.7101 6.66667C12.3639 6.66667 12.0833 6.94727 12.0833 7.29343C12.0833 7.63958 12.3639 7.92019 12.7101 7.92019C13.0562 7.92019 13.3368 7.63958 13.3368 7.29343C13.3368 6.94727 13.0562 6.66667 12.7101 6.66667Z" fill="#494D55"/>
</svg>
