<svg width="21" height="20" viewBox="0 0 21 20" fill="none" xmlns="http://www.w3.org/2000/svg">
<path d="M15.7079 5.83302C15.7079 6.40832 15.2415 6.87469 14.6662 6.87469C14.0909 6.87469 13.6246 6.40832 13.6246 5.83302C13.6246 5.25772 14.0909 4.79136 14.6662 4.79136C15.2415 4.79136 15.7079 5.25772 15.7079 5.83302ZM13.4162 1.70801C10.4043 1.70801 7.95784 4.1545 7.95784 7.16634C7.95784 7.48902 7.99965 7.79998 8.0499 8.08636C8.06474 8.17092 8.0376 8.24438 7.99221 8.28977L2.79572 13.4863C2.36595 13.916 2.12451 14.4989 2.12451 15.1067V16.9163C2.12451 17.7218 2.77743 18.3747 3.58285 18.3747H5.66618C6.47159 18.3747 7.12451 17.7218 7.12451 16.9163V15.8747H8.58284C9.15816 15.8747 9.62449 15.4083 9.62449 14.833V13.3747H11.0828C11.6452 13.3747 12.1036 12.929 12.1238 12.3715C12.5377 12.478 12.9742 12.5413 13.4162 12.5413C16.428 12.5413 18.8745 10.0948 18.8745 7.08301C18.8745 4.05706 16.4137 1.70801 13.4162 1.70801ZM9.20783 7.16634C9.20783 4.84486 11.0947 2.95801 13.4162 2.95801C15.7519 2.95801 17.6245 4.77563 17.6245 7.08301C17.6245 9.40451 15.7377 11.2913 13.4162 11.2913C12.8501 11.2913 12.2673 11.1488 11.7457 10.9252C11.5526 10.8424 11.3308 10.8623 11.1555 10.9779C10.9801 11.0936 10.8745 11.2896 10.8745 11.4997V12.1247H9.41616C8.84091 12.1247 8.37451 12.591 8.37451 13.1663V14.6247H6.91618C6.34088 14.6247 5.87451 15.091 5.87451 15.6663V16.9163C5.87451 17.0314 5.78124 17.1247 5.66618 17.1247H3.58285C3.46779 17.1247 3.37451 17.0314 3.37451 16.9163V15.1067C3.37451 14.8304 3.48425 14.5655 3.67961 14.3701L8.87608 9.17368C9.22474 8.82501 9.36258 8.33467 9.28108 7.87035C9.23633 7.61538 9.20783 7.38501 9.20783 7.16634Z" fill="#626262"/>
</svg>
